%TF.GenerationSoftware,KiCad,Pcbnew,6.0.9-8da3e8f707~117~ubuntu22.04.1*%
%TF.CreationDate,2022-12-02T16:27:46-05:00*%
%TF.ProjectId,watch,77617463-682e-46b6-9963-61645f706362,rev?*%
%TF.SameCoordinates,Original*%
%TF.FileFunction,Legend,Top*%
%TF.FilePolarity,Positive*%
%FSLAX46Y46*%
G04 Gerber Fmt 4.6, Leading zero omitted, Abs format (unit mm)*
G04 Created by KiCad (PCBNEW 6.0.9-8da3e8f707~117~ubuntu22.04.1) date 2022-12-02 16:27:46*
%MOMM*%
%LPD*%
G01*
G04 APERTURE LIST*
%ADD10C,0.150000*%
%ADD11C,0.120000*%
G04 APERTURE END LIST*
D10*
X139785714Y-96452380D02*
X139214285Y-96452380D01*
X139500000Y-96452380D02*
X139500000Y-95452380D01*
X139404761Y-95595238D01*
X139309523Y-95690476D01*
X139214285Y-95738095D01*
X144869047Y-123702380D02*
X144869047Y-124511904D01*
X144916666Y-124607142D01*
X144964285Y-124654761D01*
X145059523Y-124702380D01*
X145250000Y-124702380D01*
X145345238Y-124654761D01*
X145392857Y-124607142D01*
X145440476Y-124511904D01*
X145440476Y-123702380D01*
X145916666Y-124702380D02*
X145916666Y-123702380D01*
X146297619Y-123702380D01*
X146392857Y-123750000D01*
X146440476Y-123797619D01*
X146488095Y-123892857D01*
X146488095Y-124035714D01*
X146440476Y-124130952D01*
X146392857Y-124178571D01*
X146297619Y-124226190D01*
X145916666Y-124226190D01*
X147488095Y-124607142D02*
X147440476Y-124654761D01*
X147297619Y-124702380D01*
X147202380Y-124702380D01*
X147059523Y-124654761D01*
X146964285Y-124559523D01*
X146916666Y-124464285D01*
X146869047Y-124273809D01*
X146869047Y-124130952D01*
X146916666Y-123940476D01*
X146964285Y-123845238D01*
X147059523Y-123750000D01*
X147202380Y-123702380D01*
X147297619Y-123702380D01*
X147440476Y-123750000D01*
X147488095Y-123797619D01*
X148107142Y-123702380D02*
X148297619Y-123702380D01*
X148392857Y-123750000D01*
X148488095Y-123845238D01*
X148535714Y-124035714D01*
X148535714Y-124369047D01*
X148488095Y-124559523D01*
X148392857Y-124654761D01*
X148297619Y-124702380D01*
X148107142Y-124702380D01*
X148011904Y-124654761D01*
X147916666Y-124559523D01*
X147869047Y-124369047D01*
X147869047Y-124035714D01*
X147916666Y-123845238D01*
X148011904Y-123750000D01*
X148107142Y-123702380D01*
X149630952Y-123702380D02*
X149869047Y-124702380D01*
X150059523Y-123988095D01*
X150250000Y-124702380D01*
X150488095Y-123702380D01*
X151297619Y-124702380D02*
X151297619Y-124178571D01*
X151250000Y-124083333D01*
X151154761Y-124035714D01*
X150964285Y-124035714D01*
X150869047Y-124083333D01*
X151297619Y-124654761D02*
X151202380Y-124702380D01*
X150964285Y-124702380D01*
X150869047Y-124654761D01*
X150821428Y-124559523D01*
X150821428Y-124464285D01*
X150869047Y-124369047D01*
X150964285Y-124321428D01*
X151202380Y-124321428D01*
X151297619Y-124273809D01*
X151630952Y-124035714D02*
X152011904Y-124035714D01*
X151773809Y-123702380D02*
X151773809Y-124559523D01*
X151821428Y-124654761D01*
X151916666Y-124702380D01*
X152011904Y-124702380D01*
X152773809Y-124654761D02*
X152678571Y-124702380D01*
X152488095Y-124702380D01*
X152392857Y-124654761D01*
X152345238Y-124607142D01*
X152297619Y-124511904D01*
X152297619Y-124226190D01*
X152345238Y-124130952D01*
X152392857Y-124083333D01*
X152488095Y-124035714D01*
X152678571Y-124035714D01*
X152773809Y-124083333D01*
X153202380Y-124702380D02*
X153202380Y-123702380D01*
X153630952Y-124702380D02*
X153630952Y-124178571D01*
X153583333Y-124083333D01*
X153488095Y-124035714D01*
X153345238Y-124035714D01*
X153250000Y-124083333D01*
X153202380Y-124130952D01*
X154726190Y-123702380D02*
X155059523Y-124702380D01*
X155392857Y-123702380D01*
X156250000Y-124702380D02*
X155678571Y-124702380D01*
X155964285Y-124702380D02*
X155964285Y-123702380D01*
X155869047Y-123845238D01*
X155773809Y-123940476D01*
X155678571Y-123988095D01*
X156678571Y-124607142D02*
X156726190Y-124654761D01*
X156678571Y-124702380D01*
X156630952Y-124654761D01*
X156678571Y-124607142D01*
X156678571Y-124702380D01*
X157345238Y-123702380D02*
X157440476Y-123702380D01*
X157535714Y-123750000D01*
X157583333Y-123797619D01*
X157630952Y-123892857D01*
X157678571Y-124083333D01*
X157678571Y-124321428D01*
X157630952Y-124511904D01*
X157583333Y-124607142D01*
X157535714Y-124654761D01*
X157440476Y-124702380D01*
X157345238Y-124702380D01*
X157250000Y-124654761D01*
X157202380Y-124607142D01*
X157154761Y-124511904D01*
X157107142Y-124321428D01*
X157107142Y-124083333D01*
X157154761Y-123892857D01*
X157202380Y-123797619D01*
X157250000Y-123750000D01*
X157345238Y-123702380D01*
%TO.C,SW2*%
X120345238Y-118916666D02*
X120297619Y-119059523D01*
X120297619Y-119297619D01*
X120345238Y-119392857D01*
X120392857Y-119440476D01*
X120488095Y-119488095D01*
X120583333Y-119488095D01*
X120678571Y-119440476D01*
X120726190Y-119392857D01*
X120773809Y-119297619D01*
X120821428Y-119107142D01*
X120869047Y-119011904D01*
X120916666Y-118964285D01*
X121011904Y-118916666D01*
X121107142Y-118916666D01*
X121202380Y-118964285D01*
X121250000Y-119011904D01*
X121297619Y-119107142D01*
X121297619Y-119345238D01*
X121250000Y-119488095D01*
X121297619Y-119821428D02*
X120297619Y-120059523D01*
X121011904Y-120250000D01*
X120297619Y-120440476D01*
X121297619Y-120678571D01*
X121202380Y-121011904D02*
X121250000Y-121059523D01*
X121297619Y-121154761D01*
X121297619Y-121392857D01*
X121250000Y-121488095D01*
X121202380Y-121535714D01*
X121107142Y-121583333D01*
X121011904Y-121583333D01*
X120869047Y-121535714D01*
X120297619Y-120964285D01*
X120297619Y-121583333D01*
%TO.C,R7*%
X143222380Y-123566666D02*
X142746190Y-123900000D01*
X143222380Y-124138095D02*
X142222380Y-124138095D01*
X142222380Y-123757142D01*
X142270000Y-123661904D01*
X142317619Y-123614285D01*
X142412857Y-123566666D01*
X142555714Y-123566666D01*
X142650952Y-123614285D01*
X142698571Y-123661904D01*
X142746190Y-123757142D01*
X142746190Y-124138095D01*
X142222380Y-123233333D02*
X142222380Y-122566666D01*
X143222380Y-122995238D01*
%TO.C,C2*%
X137857142Y-95916666D02*
X137904761Y-95964285D01*
X137952380Y-96107142D01*
X137952380Y-96202380D01*
X137904761Y-96345238D01*
X137809523Y-96440476D01*
X137714285Y-96488095D01*
X137523809Y-96535714D01*
X137380952Y-96535714D01*
X137190476Y-96488095D01*
X137095238Y-96440476D01*
X137000000Y-96345238D01*
X136952380Y-96202380D01*
X136952380Y-96107142D01*
X137000000Y-95964285D01*
X137047619Y-95916666D01*
X137047619Y-95535714D02*
X137000000Y-95488095D01*
X136952380Y-95392857D01*
X136952380Y-95154761D01*
X137000000Y-95059523D01*
X137047619Y-95011904D01*
X137142857Y-94964285D01*
X137238095Y-94964285D01*
X137380952Y-95011904D01*
X137952380Y-95583333D01*
X137952380Y-94964285D01*
%TO.C,U1*%
X131738095Y-95552380D02*
X131738095Y-96361904D01*
X131785714Y-96457142D01*
X131833333Y-96504761D01*
X131928571Y-96552380D01*
X132119047Y-96552380D01*
X132214285Y-96504761D01*
X132261904Y-96457142D01*
X132309523Y-96361904D01*
X132309523Y-95552380D01*
X133309523Y-96552380D02*
X132738095Y-96552380D01*
X133023809Y-96552380D02*
X133023809Y-95552380D01*
X132928571Y-95695238D01*
X132833333Y-95790476D01*
X132738095Y-95838095D01*
%TO.C,R6*%
X145622380Y-123566666D02*
X145146190Y-123900000D01*
X145622380Y-124138095D02*
X144622380Y-124138095D01*
X144622380Y-123757142D01*
X144670000Y-123661904D01*
X144717619Y-123614285D01*
X144812857Y-123566666D01*
X144955714Y-123566666D01*
X145050952Y-123614285D01*
X145098571Y-123661904D01*
X145146190Y-123757142D01*
X145146190Y-124138095D01*
X144622380Y-122709523D02*
X144622380Y-122900000D01*
X144670000Y-122995238D01*
X144717619Y-123042857D01*
X144860476Y-123138095D01*
X145050952Y-123185714D01*
X145431904Y-123185714D01*
X145527142Y-123138095D01*
X145574761Y-123090476D01*
X145622380Y-122995238D01*
X145622380Y-122804761D01*
X145574761Y-122709523D01*
X145527142Y-122661904D01*
X145431904Y-122614285D01*
X145193809Y-122614285D01*
X145098571Y-122661904D01*
X145050952Y-122709523D01*
X145003333Y-122804761D01*
X145003333Y-122995238D01*
X145050952Y-123090476D01*
X145098571Y-123138095D01*
X145193809Y-123185714D01*
%TO.C,SW4*%
X167154761Y-96583333D02*
X167202380Y-96440476D01*
X167202380Y-96202380D01*
X167154761Y-96107142D01*
X167107142Y-96059523D01*
X167011904Y-96011904D01*
X166916666Y-96011904D01*
X166821428Y-96059523D01*
X166773809Y-96107142D01*
X166726190Y-96202380D01*
X166678571Y-96392857D01*
X166630952Y-96488095D01*
X166583333Y-96535714D01*
X166488095Y-96583333D01*
X166392857Y-96583333D01*
X166297619Y-96535714D01*
X166250000Y-96488095D01*
X166202380Y-96392857D01*
X166202380Y-96154761D01*
X166250000Y-96011904D01*
X166202380Y-95678571D02*
X167202380Y-95440476D01*
X166488095Y-95250000D01*
X167202380Y-95059523D01*
X166202380Y-94821428D01*
X166535714Y-94011904D02*
X167202380Y-94011904D01*
X166154761Y-94250000D02*
X166869047Y-94488095D01*
X166869047Y-93869047D01*
%TO.C,R5*%
X154202380Y-120916666D02*
X153726190Y-121250000D01*
X154202380Y-121488095D02*
X153202380Y-121488095D01*
X153202380Y-121107142D01*
X153250000Y-121011904D01*
X153297619Y-120964285D01*
X153392857Y-120916666D01*
X153535714Y-120916666D01*
X153630952Y-120964285D01*
X153678571Y-121011904D01*
X153726190Y-121107142D01*
X153726190Y-121488095D01*
X153202380Y-120011904D02*
X153202380Y-120488095D01*
X153678571Y-120535714D01*
X153630952Y-120488095D01*
X153583333Y-120392857D01*
X153583333Y-120154761D01*
X153630952Y-120059523D01*
X153678571Y-120011904D01*
X153773809Y-119964285D01*
X154011904Y-119964285D01*
X154107142Y-120011904D01*
X154154761Y-120059523D01*
X154202380Y-120154761D01*
X154202380Y-120392857D01*
X154154761Y-120488095D01*
X154107142Y-120535714D01*
%TO.C,R1*%
X159202380Y-120666666D02*
X158726190Y-121000000D01*
X159202380Y-121238095D02*
X158202380Y-121238095D01*
X158202380Y-120857142D01*
X158250000Y-120761904D01*
X158297619Y-120714285D01*
X158392857Y-120666666D01*
X158535714Y-120666666D01*
X158630952Y-120714285D01*
X158678571Y-120761904D01*
X158726190Y-120857142D01*
X158726190Y-121238095D01*
X159202380Y-119714285D02*
X159202380Y-120285714D01*
X159202380Y-120000000D02*
X158202380Y-120000000D01*
X158345238Y-120095238D01*
X158440476Y-120190476D01*
X158488095Y-120285714D01*
%TO.C,U3*%
X161738095Y-93702380D02*
X161738095Y-94511904D01*
X161785714Y-94607142D01*
X161833333Y-94654761D01*
X161928571Y-94702380D01*
X162119047Y-94702380D01*
X162214285Y-94654761D01*
X162261904Y-94607142D01*
X162309523Y-94511904D01*
X162309523Y-93702380D01*
X162690476Y-93702380D02*
X163309523Y-93702380D01*
X162976190Y-94083333D01*
X163119047Y-94083333D01*
X163214285Y-94130952D01*
X163261904Y-94178571D01*
X163309523Y-94273809D01*
X163309523Y-94511904D01*
X163261904Y-94607142D01*
X163214285Y-94654761D01*
X163119047Y-94702380D01*
X162833333Y-94702380D01*
X162738095Y-94654761D01*
X162690476Y-94607142D01*
X141142857Y-92452380D02*
X140571428Y-92452380D01*
X140857142Y-92452380D02*
X140857142Y-91452380D01*
X140761904Y-91595238D01*
X140666666Y-91690476D01*
X140571428Y-91738095D01*
X142476190Y-91452380D02*
X142476190Y-91690476D01*
X142238095Y-91595238D02*
X142476190Y-91690476D01*
X142714285Y-91595238D01*
X142333333Y-91880952D02*
X142476190Y-91690476D01*
X142619047Y-91880952D01*
X143238095Y-91452380D02*
X143238095Y-91690476D01*
X143000000Y-91595238D02*
X143238095Y-91690476D01*
X143476190Y-91595238D01*
X143095238Y-91880952D02*
X143238095Y-91690476D01*
X143380952Y-91880952D01*
%TO.C,N1*%
X122738095Y-122452380D02*
X122738095Y-121452380D01*
X123309523Y-122452380D01*
X123309523Y-121452380D01*
X124309523Y-122452380D02*
X123738095Y-122452380D01*
X124023809Y-122452380D02*
X124023809Y-121452380D01*
X123928571Y-121595238D01*
X123833333Y-121690476D01*
X123738095Y-121738095D01*
%TO.C,R3*%
X148452380Y-120666666D02*
X147976190Y-121000000D01*
X148452380Y-121238095D02*
X147452380Y-121238095D01*
X147452380Y-120857142D01*
X147500000Y-120761904D01*
X147547619Y-120714285D01*
X147642857Y-120666666D01*
X147785714Y-120666666D01*
X147880952Y-120714285D01*
X147928571Y-120761904D01*
X147976190Y-120857142D01*
X147976190Y-121238095D01*
X147452380Y-120333333D02*
X147452380Y-119714285D01*
X147833333Y-120047619D01*
X147833333Y-119904761D01*
X147880952Y-119809523D01*
X147928571Y-119761904D01*
X148023809Y-119714285D01*
X148261904Y-119714285D01*
X148357142Y-119761904D01*
X148404761Y-119809523D01*
X148452380Y-119904761D01*
X148452380Y-120190476D01*
X148404761Y-120285714D01*
X148357142Y-120333333D01*
%TO.C,SW3*%
X120345238Y-107416666D02*
X120297619Y-107559523D01*
X120297619Y-107797619D01*
X120345238Y-107892857D01*
X120392857Y-107940476D01*
X120488095Y-107988095D01*
X120583333Y-107988095D01*
X120678571Y-107940476D01*
X120726190Y-107892857D01*
X120773809Y-107797619D01*
X120821428Y-107607142D01*
X120869047Y-107511904D01*
X120916666Y-107464285D01*
X121011904Y-107416666D01*
X121107142Y-107416666D01*
X121202380Y-107464285D01*
X121250000Y-107511904D01*
X121297619Y-107607142D01*
X121297619Y-107845238D01*
X121250000Y-107988095D01*
X121297619Y-108321428D02*
X120297619Y-108559523D01*
X121011904Y-108750000D01*
X120297619Y-108940476D01*
X121297619Y-109178571D01*
X121297619Y-109464285D02*
X121297619Y-110083333D01*
X120916666Y-109750000D01*
X120916666Y-109892857D01*
X120869047Y-109988095D01*
X120821428Y-110035714D01*
X120726190Y-110083333D01*
X120488095Y-110083333D01*
X120392857Y-110035714D01*
X120345238Y-109988095D01*
X120297619Y-109892857D01*
X120297619Y-109607142D01*
X120345238Y-109511904D01*
X120392857Y-109464285D01*
%TO.C,C1*%
X127857142Y-95666666D02*
X127904761Y-95714285D01*
X127952380Y-95857142D01*
X127952380Y-95952380D01*
X127904761Y-96095238D01*
X127809523Y-96190476D01*
X127714285Y-96238095D01*
X127523809Y-96285714D01*
X127380952Y-96285714D01*
X127190476Y-96238095D01*
X127095238Y-96190476D01*
X127000000Y-96095238D01*
X126952380Y-95952380D01*
X126952380Y-95857142D01*
X127000000Y-95714285D01*
X127047619Y-95666666D01*
X127952380Y-94714285D02*
X127952380Y-95285714D01*
X127952380Y-95000000D02*
X126952380Y-95000000D01*
X127095238Y-95095238D01*
X127190476Y-95190476D01*
X127238095Y-95285714D01*
%TO.C,J2*%
X166666666Y-120702380D02*
X166666666Y-121416666D01*
X166619047Y-121559523D01*
X166523809Y-121654761D01*
X166380952Y-121702380D01*
X166285714Y-121702380D01*
X167095238Y-120797619D02*
X167142857Y-120750000D01*
X167238095Y-120702380D01*
X167476190Y-120702380D01*
X167571428Y-120750000D01*
X167619047Y-120797619D01*
X167666666Y-120892857D01*
X167666666Y-120988095D01*
X167619047Y-121130952D01*
X167047619Y-121702380D01*
X167666666Y-121702380D01*
%TO.C,C5*%
X146857142Y-114416666D02*
X146904761Y-114464285D01*
X146952380Y-114607142D01*
X146952380Y-114702380D01*
X146904761Y-114845238D01*
X146809523Y-114940476D01*
X146714285Y-114988095D01*
X146523809Y-115035714D01*
X146380952Y-115035714D01*
X146190476Y-114988095D01*
X146095238Y-114940476D01*
X146000000Y-114845238D01*
X145952380Y-114702380D01*
X145952380Y-114607142D01*
X146000000Y-114464285D01*
X146047619Y-114416666D01*
X145952380Y-113511904D02*
X145952380Y-113988095D01*
X146428571Y-114035714D01*
X146380952Y-113988095D01*
X146333333Y-113892857D01*
X146333333Y-113654761D01*
X146380952Y-113559523D01*
X146428571Y-113511904D01*
X146523809Y-113464285D01*
X146761904Y-113464285D01*
X146857142Y-113511904D01*
X146904761Y-113559523D01*
X146952380Y-113654761D01*
X146952380Y-113892857D01*
X146904761Y-113988095D01*
X146857142Y-114035714D01*
%TO.C,R4*%
X151452380Y-120916666D02*
X150976190Y-121250000D01*
X151452380Y-121488095D02*
X150452380Y-121488095D01*
X150452380Y-121107142D01*
X150500000Y-121011904D01*
X150547619Y-120964285D01*
X150642857Y-120916666D01*
X150785714Y-120916666D01*
X150880952Y-120964285D01*
X150928571Y-121011904D01*
X150976190Y-121107142D01*
X150976190Y-121488095D01*
X150785714Y-120059523D02*
X151452380Y-120059523D01*
X150404761Y-120297619D02*
X151119047Y-120535714D01*
X151119047Y-119916666D01*
%TO.C,C4*%
X163333333Y-97107142D02*
X163285714Y-97154761D01*
X163142857Y-97202380D01*
X163047619Y-97202380D01*
X162904761Y-97154761D01*
X162809523Y-97059523D01*
X162761904Y-96964285D01*
X162714285Y-96773809D01*
X162714285Y-96630952D01*
X162761904Y-96440476D01*
X162809523Y-96345238D01*
X162904761Y-96250000D01*
X163047619Y-96202380D01*
X163142857Y-96202380D01*
X163285714Y-96250000D01*
X163333333Y-96297619D01*
X164190476Y-96535714D02*
X164190476Y-97202380D01*
X163952380Y-96154761D02*
X163714285Y-96869047D01*
X164333333Y-96869047D01*
%TO.C,C3*%
X159607142Y-114807246D02*
X159654761Y-114854865D01*
X159702380Y-114997722D01*
X159702380Y-115092960D01*
X159654761Y-115235818D01*
X159559523Y-115331056D01*
X159464285Y-115378675D01*
X159273809Y-115426294D01*
X159130952Y-115426294D01*
X158940476Y-115378675D01*
X158845238Y-115331056D01*
X158750000Y-115235818D01*
X158702380Y-115092960D01*
X158702380Y-114997722D01*
X158750000Y-114854865D01*
X158797619Y-114807246D01*
X158702380Y-114473913D02*
X158702380Y-113854865D01*
X159083333Y-114188199D01*
X159083333Y-114045341D01*
X159130952Y-113950103D01*
X159178571Y-113902484D01*
X159273809Y-113854865D01*
X159511904Y-113854865D01*
X159607142Y-113902484D01*
X159654761Y-113950103D01*
X159702380Y-114045341D01*
X159702380Y-114331056D01*
X159654761Y-114426294D01*
X159607142Y-114473913D01*
%TO.C,R2*%
X156952380Y-120666666D02*
X156476190Y-121000000D01*
X156952380Y-121238095D02*
X155952380Y-121238095D01*
X155952380Y-120857142D01*
X156000000Y-120761904D01*
X156047619Y-120714285D01*
X156142857Y-120666666D01*
X156285714Y-120666666D01*
X156380952Y-120714285D01*
X156428571Y-120761904D01*
X156476190Y-120857142D01*
X156476190Y-121238095D01*
X156047619Y-120285714D02*
X156000000Y-120238095D01*
X155952380Y-120142857D01*
X155952380Y-119904761D01*
X156000000Y-119809523D01*
X156047619Y-119761904D01*
X156142857Y-119714285D01*
X156238095Y-119714285D01*
X156380952Y-119761904D01*
X156952380Y-120333333D01*
X156952380Y-119714285D01*
D11*
%TO.C,SW2*%
X121742500Y-111900000D02*
X121742500Y-117000000D01*
X119967500Y-111900000D02*
X121742500Y-111900000D01*
X119967500Y-111900000D02*
X119967500Y-111350000D01*
X119967500Y-117000000D02*
X121742500Y-117000000D01*
X119967500Y-117000000D02*
X119967500Y-117550000D01*
%TO.C,R7*%
X143677500Y-123637258D02*
X143677500Y-123162742D01*
X144722500Y-123637258D02*
X144722500Y-123162742D01*
%TO.C,C2*%
X137070000Y-98359420D02*
X137070000Y-98640580D01*
X138090000Y-98359420D02*
X138090000Y-98640580D01*
%TO.C,U1*%
X132500000Y-100060000D02*
X131700000Y-100060000D01*
X132500000Y-96940000D02*
X130700000Y-96940000D01*
X132500000Y-100060000D02*
X133300000Y-100060000D01*
X132500000Y-96940000D02*
X133300000Y-96940000D01*
%TO.C,R6*%
X147122500Y-123637258D02*
X147122500Y-123162742D01*
X146077500Y-123637258D02*
X146077500Y-123162742D01*
%TO.C,SW4*%
X168032500Y-103100000D02*
X166257500Y-103100000D01*
X168032500Y-98000000D02*
X168032500Y-97450000D01*
X166257500Y-103100000D02*
X166257500Y-98000000D01*
X168032500Y-103100000D02*
X168032500Y-103650000D01*
X168032500Y-98000000D02*
X166257500Y-98000000D01*
%TO.C,R5*%
X153227500Y-118237258D02*
X153227500Y-117762742D01*
X154272500Y-118237258D02*
X154272500Y-117762742D01*
%TO.C,R1*%
X158477500Y-118237258D02*
X158477500Y-117762742D01*
X159522500Y-118237258D02*
X159522500Y-117762742D01*
%TO.C,U3*%
X144000000Y-92500000D02*
X144000000Y-93000000D01*
X144000000Y-108000000D02*
X144000000Y-108500000D01*
X144000000Y-108500000D02*
X160000000Y-108500000D01*
X160000000Y-108500000D02*
X160000000Y-108000000D01*
X160000000Y-92500000D02*
X160000000Y-93000000D01*
X144000000Y-92500000D02*
X160000000Y-92500000D01*
%TO.C,N1*%
X139500000Y-107000000D02*
X139500000Y-125000000D01*
X139500000Y-125000000D02*
X125500000Y-125000000D01*
X125500000Y-107000000D02*
X139500000Y-107000000D01*
X125500000Y-125000000D02*
X125500000Y-107000000D01*
%TO.C,R3*%
X148522500Y-118149758D02*
X148522500Y-117675242D01*
X147477500Y-118149758D02*
X147477500Y-117675242D01*
%TO.C,SW3*%
X119967500Y-105500000D02*
X119967500Y-106050000D01*
X119967500Y-105500000D02*
X121742500Y-105500000D01*
X119967500Y-100400000D02*
X121742500Y-100400000D01*
X119967500Y-100400000D02*
X119967500Y-99850000D01*
X121742500Y-100400000D02*
X121742500Y-105500000D01*
%TO.C,C1*%
X126910000Y-98359420D02*
X126910000Y-98640580D01*
X127930000Y-98359420D02*
X127930000Y-98640580D01*
%TO.C,J2*%
X167905000Y-125500000D02*
X167905000Y-117500000D01*
X119905000Y-125500000D02*
X167905000Y-125500000D01*
X167905000Y-92500000D02*
X119905000Y-92500000D01*
X119905000Y-92500000D02*
X119905000Y-125500000D01*
X167905000Y-92500000D02*
X167905000Y-100500000D01*
%TO.C,C5*%
X147490000Y-114253080D02*
X147490000Y-113971920D01*
X148510000Y-114253080D02*
X148510000Y-113971920D01*
%TO.C,R4*%
X150477500Y-118237258D02*
X150477500Y-117762742D01*
X151522500Y-118237258D02*
X151522500Y-117762742D01*
%TO.C,C4*%
X163510000Y-99359420D02*
X163510000Y-99640580D01*
X162490000Y-99359420D02*
X162490000Y-99640580D01*
%TO.C,C3*%
X156740000Y-114640580D02*
X156740000Y-114359420D01*
X157760000Y-114640580D02*
X157760000Y-114359420D01*
%TO.C,R2*%
X155977500Y-118237258D02*
X155977500Y-117762742D01*
X157022500Y-118237258D02*
X157022500Y-117762742D01*
%TD*%
M02*
