%TF.GenerationSoftware,KiCad,Pcbnew,6.0.9-8da3e8f707~117~ubuntu22.04.1*%
%TF.CreationDate,2022-12-02T16:27:46-05:00*%
%TF.ProjectId,watch,77617463-682e-46b6-9963-61645f706362,rev?*%
%TF.SameCoordinates,Original*%
%TF.FileFunction,Copper,L4,Bot*%
%TF.FilePolarity,Positive*%
%FSLAX46Y46*%
G04 Gerber Fmt 4.6, Leading zero omitted, Abs format (unit mm)*
G04 Created by KiCad (PCBNEW 6.0.9-8da3e8f707~117~ubuntu22.04.1) date 2022-12-02 16:27:46*
%MOMM*%
%LPD*%
G01*
G04 APERTURE LIST*
G04 Aperture macros list*
%AMRoundRect*
0 Rectangle with rounded corners*
0 $1 Rounding radius*
0 $2 $3 $4 $5 $6 $7 $8 $9 X,Y pos of 4 corners*
0 Add a 4 corners polygon primitive as box body*
4,1,4,$2,$3,$4,$5,$6,$7,$8,$9,$2,$3,0*
0 Add four circle primitives for the rounded corners*
1,1,$1+$1,$2,$3*
1,1,$1+$1,$4,$5*
1,1,$1+$1,$6,$7*
1,1,$1+$1,$8,$9*
0 Add four rect primitives between the rounded corners*
20,1,$1+$1,$2,$3,$4,$5,0*
20,1,$1+$1,$4,$5,$6,$7,0*
20,1,$1+$1,$6,$7,$8,$9,0*
20,1,$1+$1,$8,$9,$2,$3,0*%
G04 Aperture macros list end*
%TA.AperFunction,SMDPad,CuDef*%
%ADD10RoundRect,0.381000X-0.762000X-0.381000X0.762000X-0.381000X0.762000X0.381000X-0.762000X0.381000X0*%
%TD*%
%TA.AperFunction,SMDPad,CuDef*%
%ADD11R,0.400000X1.100000*%
%TD*%
%TA.AperFunction,SMDPad,CuDef*%
%ADD12R,0.550000X1.600000*%
%TD*%
%TA.AperFunction,SMDPad,CuDef*%
%ADD13R,1.600000X0.550000*%
%TD*%
%TA.AperFunction,ComponentPad*%
%ADD14R,1.350000X1.350000*%
%TD*%
%TA.AperFunction,ComponentPad*%
%ADD15O,1.350000X1.350000*%
%TD*%
%TA.AperFunction,SMDPad,CuDef*%
%ADD16R,1.000000X2.750000*%
%TD*%
%TA.AperFunction,SMDPad,CuDef*%
%ADD17RoundRect,0.237500X0.237500X-0.287500X0.237500X0.287500X-0.237500X0.287500X-0.237500X-0.287500X0*%
%TD*%
%TA.AperFunction,ViaPad*%
%ADD18C,0.508000*%
%TD*%
%TA.AperFunction,Conductor*%
%ADD19C,0.127000*%
%TD*%
%TA.AperFunction,Conductor*%
%ADD20C,0.381000*%
%TD*%
%TA.AperFunction,Conductor*%
%ADD21C,0.254000*%
%TD*%
%TA.AperFunction,Conductor*%
%ADD22C,0.177800*%
%TD*%
G04 APERTURE END LIST*
D10*
%TO.P,J2,1,Pin_1*%
%TO.N,/eBUSY*%
X166405000Y-105500000D03*
%TO.P,J2,2,Pin_2*%
%TO.N,/eRST*%
X166405000Y-107500000D03*
%TO.P,J2,3,Pin_3*%
%TO.N,/eDC*%
X166405000Y-109500000D03*
%TO.P,J2,4,Pin_4*%
%TO.N,/eCS*%
X166405000Y-111500000D03*
%TO.P,J2,5,Pin_5*%
%TO.N,/SCK*%
X166405000Y-113500000D03*
%TO.P,J2,6,Pin_6*%
%TO.N,/MOSI*%
X166405000Y-115500000D03*
%TO.P,J2,7,Pin_7*%
%TO.N,GND*%
X166405000Y-117500000D03*
%TO.P,J2,8,Pin_8*%
%TO.N,+3.3V*%
X166405000Y-119500000D03*
%TD*%
D11*
%TO.P,U4,1,OSCI*%
%TO.N,unconnected-(U4-Pad1)*%
X144025000Y-114350000D03*
%TO.P,U4,2,OSCO*%
%TO.N,unconnected-(U4-Pad2)*%
X144675000Y-114350000D03*
%TO.P,U4,3,VBAT*%
%TO.N,+3.3V*%
X145325000Y-114350000D03*
%TO.P,U4,4,VSS*%
%TO.N,GND*%
X145975000Y-114350000D03*
%TO.P,U4,5,SDA*%
%TO.N,/SDA*%
X145975000Y-118650000D03*
%TO.P,U4,6,SCL*%
%TO.N,/SCL*%
X145325000Y-118650000D03*
%TO.P,U4,7,~{INTA}*%
%TO.N,Net-(U2-Pad26)*%
X144675000Y-118650000D03*
%TO.P,U4,8,VDD*%
%TO.N,+3.3V*%
X144025000Y-118650000D03*
%TD*%
D12*
%TO.P,U2,1,PD3*%
%TO.N,Net-(SW4-Pad1)*%
X153200000Y-112250000D03*
%TO.P,U2,2,PD4*%
%TO.N,unconnected-(U2-Pad2)*%
X154000000Y-112250000D03*
%TO.P,U2,3,GND*%
%TO.N,GND*%
X154800000Y-112250000D03*
%TO.P,U2,4,VCC*%
%TO.N,+3.3V*%
X155600000Y-112250000D03*
%TO.P,U2,5,GND*%
%TO.N,GND*%
X156400000Y-112250000D03*
%TO.P,U2,6,VCC*%
%TO.N,+3.3V*%
X157200000Y-112250000D03*
%TO.P,U2,7,XTAL1/PB6*%
%TO.N,/LED1*%
X158000000Y-112250000D03*
%TO.P,U2,8,XTAL2/PB7*%
%TO.N,/LED2*%
X158800000Y-112250000D03*
D13*
%TO.P,U2,9,PD5*%
%TO.N,Net-(U2-Pad9)*%
X160250000Y-113700000D03*
%TO.P,U2,10,PD6*%
%TO.N,/eCS*%
X160250000Y-114500000D03*
%TO.P,U2,11,PD7*%
%TO.N,/eBUSY*%
X160250000Y-115300000D03*
%TO.P,U2,12,PB0*%
%TO.N,/eRST*%
X160250000Y-116100000D03*
%TO.P,U2,13,PB1*%
%TO.N,/eDC*%
X160250000Y-116900000D03*
%TO.P,U2,14,PB2*%
%TO.N,/RF_CS*%
X160250000Y-117700000D03*
%TO.P,U2,15,PB3*%
%TO.N,/MOSI*%
X160250000Y-118500000D03*
%TO.P,U2,16,PB4*%
%TO.N,/MISO*%
X160250000Y-119300000D03*
D12*
%TO.P,U2,17,PB5*%
%TO.N,/SCK*%
X158800000Y-120750000D03*
%TO.P,U2,18,AVCC*%
%TO.N,+3.3V*%
X158000000Y-120750000D03*
%TO.P,U2,19,ADC6*%
%TO.N,Net-(R1-Pad2)*%
X157200000Y-120750000D03*
%TO.P,U2,20,AREF*%
%TO.N,+3.3V*%
X156400000Y-120750000D03*
%TO.P,U2,21,GND*%
%TO.N,GND*%
X155600000Y-120750000D03*
%TO.P,U2,22,ADC7*%
%TO.N,unconnected-(U2-Pad22)*%
X154800000Y-120750000D03*
%TO.P,U2,23,PC0*%
%TO.N,Net-(U2-Pad23)*%
X154000000Y-120750000D03*
%TO.P,U2,24,PC1*%
%TO.N,Net-(SW1-Pad1)*%
X153200000Y-120750000D03*
D13*
%TO.P,U2,25,PC2*%
%TO.N,Net-(SW2-Pad1)*%
X151750000Y-119300000D03*
%TO.P,U2,26,PC3*%
%TO.N,Net-(U2-Pad26)*%
X151750000Y-118500000D03*
%TO.P,U2,27,PC4*%
%TO.N,/SCL*%
X151750000Y-117700000D03*
%TO.P,U2,28,PC5*%
%TO.N,/SDA*%
X151750000Y-116900000D03*
%TO.P,U2,29,~{RESET}/PC6*%
%TO.N,/nRESET*%
X151750000Y-116100000D03*
%TO.P,U2,30,PD0*%
%TO.N,/RXD*%
X151750000Y-115300000D03*
%TO.P,U2,31,PD1*%
%TO.N,/TXD*%
X151750000Y-114500000D03*
%TO.P,U2,32,PD2*%
%TO.N,Net-(SW3-Pad1)*%
X151750000Y-113700000D03*
%TD*%
D14*
%TO.P,J3,1,Pin_1*%
%TO.N,Net-(J3-Pad1)*%
X163000000Y-107000000D03*
D15*
%TO.P,J3,2,Pin_2*%
%TO.N,GND*%
X163000000Y-105000000D03*
%TD*%
D16*
%TO.P,J4,1,Pin_1*%
%TO.N,+3.3V*%
X137500000Y-96375000D03*
%TO.P,J4,2,Pin_2*%
%TO.N,/MOSI*%
X137500000Y-102625000D03*
%TO.P,J4,3,Pin_3*%
%TO.N,/MISO*%
X135500000Y-96375000D03*
%TO.P,J4,4,Pin_4*%
%TO.N,/SCK*%
X135500000Y-102625000D03*
%TO.P,J4,5,Pin_5*%
%TO.N,/nRESET*%
X133500000Y-96375000D03*
%TO.P,J4,6,Pin_6*%
%TO.N,/TXD*%
X133500000Y-102625000D03*
%TO.P,J4,7,Pin_7*%
%TO.N,/RXD*%
X131500000Y-96375000D03*
%TO.P,J4,8,Pin_8*%
%TO.N,GND*%
X131500000Y-102625000D03*
%TD*%
D17*
%TO.P,D1,1,K*%
%TO.N,GND*%
X146500000Y-124250000D03*
%TO.P,D1,2,A*%
%TO.N,Net-(D1-Pad2)*%
X146500000Y-122500000D03*
%TD*%
D14*
%TO.P,J1,1,Pin_1*%
%TO.N,Net-(C1-Pad1)*%
X125500000Y-104000000D03*
D15*
%TO.P,J1,2,Pin_2*%
%TO.N,GND*%
X125500000Y-102000000D03*
%TD*%
D17*
%TO.P,D2,1,K*%
%TO.N,GND*%
X144250000Y-124250000D03*
%TO.P,D2,2,A*%
%TO.N,Net-(D2-Pad2)*%
X144250000Y-122500000D03*
%TD*%
D18*
%TO.N,Net-(C1-Pad1)*%
X141000000Y-125000000D03*
X140804800Y-105780600D03*
%TO.N,GND*%
X156750000Y-110750000D03*
X122567500Y-118682500D03*
X131750000Y-100750000D03*
X145400000Y-123800000D03*
X163250000Y-101250000D03*
X142000000Y-93250000D03*
X155250000Y-122250000D03*
X155250000Y-116500000D03*
X142000000Y-108000000D03*
X156000000Y-114000000D03*
X126000000Y-99250000D03*
X146500000Y-113000000D03*
X164500000Y-118500000D03*
X165000000Y-99750000D03*
X155000000Y-110750000D03*
X132500000Y-98500000D03*
X136500000Y-99500000D03*
%TO.N,+3.3V*%
X149250000Y-113500000D03*
X156000000Y-115500000D03*
X156000000Y-110444000D03*
X144000000Y-117500000D03*
X161556000Y-98725000D03*
X149500000Y-118750000D03*
X136250000Y-98500000D03*
X145000000Y-112750000D03*
X157750000Y-110500000D03*
X156500000Y-122250000D03*
X158000000Y-122250000D03*
X154925000Y-118825000D03*
X164500000Y-120500000D03*
%TO.N,/eBUSY*%
X163500000Y-115250000D03*
X161250000Y-115250000D03*
%TO.N,/eRST*%
X164500000Y-108500000D03*
X161750000Y-112750000D03*
%TO.N,/eDC*%
X161750000Y-116500000D03*
X164250000Y-110750000D03*
%TO.N,/eCS*%
X164000000Y-114500000D03*
X161250000Y-114500000D03*
%TO.N,/SCK*%
X135750000Y-100500000D03*
X163750000Y-117000000D03*
X158750000Y-123250000D03*
X161000000Y-121000000D03*
X142000000Y-110250000D03*
X142000000Y-123250000D03*
X135500000Y-105475800D03*
%TO.N,/MOSI*%
X163500000Y-118250000D03*
X142750000Y-98500000D03*
X138750000Y-97500000D03*
X143500000Y-109750000D03*
X162000000Y-118500000D03*
X162033758Y-110682483D03*
%TO.N,Net-(R1-Pad2)*%
X157500000Y-119250000D03*
%TO.N,/MISO*%
X142052000Y-109500000D03*
X162500000Y-110250000D03*
X141500000Y-94000000D03*
%TO.N,Net-(D1-Pad2)*%
X147800000Y-122400000D03*
%TO.N,Net-(D2-Pad2)*%
X143000000Y-122400000D03*
%TO.N,/nRESET*%
X142250000Y-117000000D03*
X150250000Y-116250000D03*
X141500000Y-106250000D03*
X132500000Y-106000000D03*
%TO.N,/TXD*%
X140500000Y-115250000D03*
X150500000Y-114500000D03*
%TO.N,/RXD*%
X141692130Y-105057870D03*
X130250000Y-105000000D03*
X142250000Y-115250000D03*
X149418084Y-114918084D03*
%TO.N,Net-(U2-Pad23)*%
X152250000Y-121250000D03*
X140500000Y-122250000D03*
X140750000Y-103500000D03*
%TO.N,/SCL*%
X150250000Y-117500000D03*
X145250000Y-117500000D03*
%TO.N,/SDA*%
X153000000Y-116750000D03*
X145975000Y-119725000D03*
%TO.N,Net-(SW2-Pad1)*%
X129000000Y-104500000D03*
X151000000Y-120750000D03*
X123250000Y-110500000D03*
X142750000Y-120750000D03*
X142750000Y-104500000D03*
%TO.N,Net-(SW3-Pad1)*%
X151500000Y-112000000D03*
X141000000Y-95500000D03*
X142250000Y-111250000D03*
%TO.N,Net-(SW4-Pad1)*%
X161500000Y-108250000D03*
X153500000Y-114000000D03*
%TO.N,Net-(U2-Pad9)*%
X162000000Y-97500000D03*
%TO.N,/RF_CS*%
X143000000Y-100500000D03*
X143500000Y-110500000D03*
X161750000Y-111250000D03*
%TO.N,/LED1*%
X158250000Y-119500000D03*
%TO.N,/LED2*%
X160500000Y-123500000D03*
X158750000Y-116000000D03*
X143000000Y-124400000D03*
%TD*%
D19*
%TO.N,Net-(C1-Pad1)*%
X140804800Y-105780600D02*
X141024200Y-106000000D01*
X141304800Y-124695200D02*
X141000000Y-125000000D01*
X141024200Y-114024200D02*
X141304800Y-114304800D01*
X141024200Y-106000000D02*
X141024200Y-114024200D01*
X141304800Y-114304800D02*
X141304800Y-124695200D01*
%TO.N,GND*%
X144250000Y-124250000D02*
X144950000Y-124250000D01*
D20*
X145975000Y-114350000D02*
X145975000Y-113525000D01*
X166405000Y-117500000D02*
X165500000Y-117500000D01*
D21*
X156400000Y-112250000D02*
X156400000Y-111100000D01*
D19*
X144250000Y-124250000D02*
X144250000Y-124200000D01*
D20*
X145975000Y-113525000D02*
X146500000Y-113000000D01*
D21*
X154800000Y-110950000D02*
X155000000Y-110750000D01*
D20*
X155600000Y-120750000D02*
X155600000Y-121900000D01*
D19*
X144950000Y-124250000D02*
X145400000Y-123800000D01*
X145850000Y-124250000D02*
X145400000Y-123800000D01*
X146500000Y-124250000D02*
X145850000Y-124250000D01*
D20*
X165500000Y-117500000D02*
X164500000Y-118500000D01*
X131500000Y-102625000D02*
X131500000Y-101000000D01*
D21*
X156400000Y-111100000D02*
X156750000Y-110750000D01*
D20*
X131500000Y-101000000D02*
X131750000Y-100750000D01*
X155600000Y-121900000D02*
X155250000Y-122250000D01*
D21*
X154800000Y-112250000D02*
X154800000Y-110950000D01*
D20*
%TO.N,+3.3V*%
X137500000Y-96375000D02*
X137500000Y-97250000D01*
D21*
X155600000Y-112250000D02*
X155600000Y-110650000D01*
X157200000Y-111050000D02*
X157750000Y-110500000D01*
X156000000Y-110250000D02*
X156000000Y-110444000D01*
D20*
X144025000Y-117525000D02*
X144000000Y-117500000D01*
X156400000Y-122150000D02*
X156500000Y-122250000D01*
D21*
X157200000Y-112250000D02*
X157200000Y-111050000D01*
D20*
X144025000Y-118650000D02*
X144025000Y-117525000D01*
X137500000Y-97250000D02*
X136250000Y-98500000D01*
X156400000Y-120750000D02*
X156400000Y-122150000D01*
X145325000Y-114350000D02*
X145325000Y-113075000D01*
X165500000Y-119500000D02*
X164500000Y-120500000D01*
X145325000Y-113075000D02*
X145000000Y-112750000D01*
D21*
X155600000Y-110650000D02*
X156000000Y-110250000D01*
D20*
X158000000Y-120750000D02*
X158000000Y-122250000D01*
X166405000Y-119500000D02*
X165500000Y-119500000D01*
D19*
%TO.N,/eBUSY*%
X161250000Y-115250000D02*
X160300000Y-115250000D01*
X160300000Y-115250000D02*
X160250000Y-115300000D01*
X163500000Y-108405000D02*
X166405000Y-105500000D01*
X163500000Y-115250000D02*
X163500000Y-108405000D01*
%TO.N,/eRST*%
X160250000Y-116100000D02*
X161177000Y-116100000D01*
X165405000Y-108500000D02*
X166405000Y-107500000D01*
X161750000Y-115527000D02*
X161750000Y-112750000D01*
X161177000Y-116100000D02*
X161750000Y-115527000D01*
X164500000Y-108500000D02*
X165405000Y-108500000D01*
%TO.N,/eDC*%
X166405000Y-109500000D02*
X165500000Y-109500000D01*
X161350000Y-116900000D02*
X160250000Y-116900000D01*
X165500000Y-109500000D02*
X164250000Y-110750000D01*
X161750000Y-116500000D02*
X161350000Y-116900000D01*
%TO.N,/eCS*%
X164000000Y-114500000D02*
X164000000Y-112000000D01*
X164000000Y-112000000D02*
X164750000Y-111250000D01*
X164750000Y-111250000D02*
X165500000Y-111250000D01*
X160250000Y-114500000D02*
X161250000Y-114500000D01*
%TO.N,/SCK*%
X135500000Y-100750000D02*
X135750000Y-100500000D01*
X158800000Y-120750000D02*
X158800000Y-123200000D01*
X163750000Y-116000000D02*
X163750000Y-117000000D01*
X142750000Y-112378618D02*
X142750000Y-117128618D01*
X141786200Y-110463800D02*
X141786200Y-111414818D01*
X142000000Y-110250000D02*
X141786200Y-110463800D01*
X142750000Y-117128618D02*
X142000000Y-117878618D01*
X166405000Y-113500000D02*
X166250000Y-113500000D01*
X135500000Y-105475800D02*
X135500000Y-102625000D01*
X158800000Y-123200000D02*
X158750000Y-123250000D01*
X142000000Y-117878618D02*
X142000000Y-123250000D01*
X166250000Y-113500000D02*
X163750000Y-116000000D01*
X135500000Y-102625000D02*
X135500000Y-100750000D01*
X160750000Y-120750000D02*
X158800000Y-120750000D01*
X161000000Y-121000000D02*
X160750000Y-120750000D01*
X141786200Y-111414818D02*
X142750000Y-112378618D01*
%TO.N,/MOSI*%
X143500000Y-99250000D02*
X142750000Y-98500000D01*
X162000000Y-118500000D02*
X160250000Y-118500000D01*
X162754000Y-111402725D02*
X162754000Y-117746000D01*
X162033758Y-110682483D02*
X162754000Y-111402725D01*
X166405000Y-115500000D02*
X165000000Y-115500000D01*
X165000000Y-115500000D02*
X164750000Y-115750000D01*
X138750000Y-101000000D02*
X138750000Y-97500000D01*
X164750000Y-117000000D02*
X163500000Y-118250000D01*
X137500000Y-102250000D02*
X138750000Y-101000000D01*
X164750000Y-115750000D02*
X164750000Y-117000000D01*
X137500000Y-102625000D02*
X137500000Y-102250000D01*
X143500000Y-109750000D02*
X143500000Y-99250000D01*
X162754000Y-117746000D02*
X162000000Y-118500000D01*
%TO.N,Net-(R1-Pad2)*%
X157200000Y-120750000D02*
X157200000Y-119550000D01*
X157200000Y-119550000D02*
X157500000Y-119250000D01*
%TO.N,/MISO*%
X142293500Y-109258500D02*
X142293500Y-109250252D01*
X142484000Y-105221828D02*
X141250000Y-103987828D01*
X162500000Y-110250000D02*
X162637382Y-110250000D01*
X142052000Y-109500000D02*
X142293500Y-109258500D01*
X141250000Y-103987828D02*
X141250000Y-96750000D01*
X139750000Y-95250000D02*
X139750000Y-94000000D01*
X162700000Y-119300000D02*
X160250000Y-119300000D01*
X163008000Y-110620618D02*
X163008000Y-118992000D01*
X141250000Y-96750000D02*
X139750000Y-95250000D01*
X142293500Y-109250252D02*
X142484000Y-109059752D01*
X162637382Y-110250000D02*
X163008000Y-110620618D01*
X136250000Y-94000000D02*
X141500000Y-94000000D01*
X135500000Y-96375000D02*
X135500000Y-94750000D01*
X142484000Y-109059752D02*
X142484000Y-105221828D01*
X163008000Y-118992000D02*
X162700000Y-119300000D01*
X135500000Y-94750000D02*
X136250000Y-94000000D01*
%TO.N,Net-(D1-Pad2)*%
X147700000Y-122500000D02*
X147800000Y-122400000D01*
X146500000Y-122500000D02*
X147700000Y-122500000D01*
%TO.N,Net-(D2-Pad2)*%
X144150000Y-122400000D02*
X144250000Y-122500000D01*
X143000000Y-122400000D02*
X144150000Y-122400000D01*
D22*
%TO.N,/nRESET*%
X151600000Y-116250000D02*
X151750000Y-116100000D01*
D19*
X141278200Y-106471800D02*
X141278200Y-113847148D01*
X141278200Y-113847148D02*
X141750000Y-114318948D01*
D22*
X150250000Y-116250000D02*
X151600000Y-116250000D01*
X132500000Y-99500000D02*
X132500000Y-106000000D01*
D19*
X141715526Y-116465526D02*
X142250000Y-117000000D01*
D22*
X133500000Y-96375000D02*
X133500000Y-98500000D01*
D19*
X141500000Y-106250000D02*
X141278200Y-106471800D01*
D22*
X133500000Y-98500000D02*
X132500000Y-99500000D01*
D19*
X141750000Y-116431052D02*
X141715526Y-116465526D01*
X141750000Y-114318948D02*
X141750000Y-116431052D01*
D22*
%TO.N,/TXD*%
X140250000Y-115000000D02*
X140500000Y-115250000D01*
X134250000Y-106250000D02*
X140000000Y-106250000D01*
D19*
X140250000Y-106500000D02*
X140250000Y-115000000D01*
D22*
X133500000Y-105500000D02*
X134250000Y-106250000D01*
X133500000Y-102625000D02*
X133500000Y-105500000D01*
X150500000Y-114500000D02*
X151750000Y-114500000D01*
X140000000Y-106250000D02*
X140250000Y-106500000D01*
D19*
%TO.N,/RXD*%
X141944500Y-105310240D02*
X141944500Y-106834900D01*
X141944500Y-106834900D02*
X141532200Y-107247200D01*
X149800000Y-115300000D02*
X151750000Y-115300000D01*
X142250000Y-114000000D02*
X142250000Y-115250000D01*
X149418084Y-114918084D02*
X149800000Y-115300000D01*
X131500000Y-96375000D02*
X131500000Y-99250000D01*
X130250000Y-100500000D02*
X130250000Y-105000000D01*
X141532200Y-107247200D02*
X141532200Y-113282200D01*
X141692130Y-105057870D02*
X141944500Y-105310240D01*
X141532200Y-113282200D02*
X142250000Y-114000000D01*
X131500000Y-99250000D02*
X130250000Y-100500000D01*
%TO.N,Net-(U2-Pad23)*%
X140500000Y-116250000D02*
X141000000Y-115750000D01*
X140529400Y-106384268D02*
X140250000Y-106104868D01*
X152250000Y-121250000D02*
X153250000Y-122250000D01*
X141000000Y-114695200D02*
X140504000Y-114199200D01*
X154000000Y-122000000D02*
X154000000Y-120750000D01*
X140250000Y-104000000D02*
X140750000Y-103500000D01*
X153250000Y-122250000D02*
X153750000Y-122250000D01*
X140529400Y-106615732D02*
X140529400Y-106384268D01*
X140500000Y-122250000D02*
X140500000Y-116250000D01*
X140250000Y-106104868D02*
X140250000Y-104000000D01*
X141000000Y-115750000D02*
X141000000Y-114695200D01*
X140504000Y-114199200D02*
X140504000Y-106641132D01*
X140504000Y-106641132D02*
X140529400Y-106615732D01*
X153750000Y-122250000D02*
X154000000Y-122000000D01*
D22*
%TO.N,/SCL*%
X150500000Y-117750000D02*
X151700000Y-117750000D01*
X151700000Y-117750000D02*
X151750000Y-117700000D01*
X145250000Y-118575000D02*
X145325000Y-118650000D01*
X145250000Y-117500000D02*
X145250000Y-118575000D01*
X150250000Y-117500000D02*
X150500000Y-117750000D01*
%TO.N,/SDA*%
X152850000Y-116900000D02*
X153000000Y-116750000D01*
D19*
X145975000Y-118650000D02*
X145975000Y-119725000D01*
D22*
X151750000Y-116900000D02*
X152850000Y-116900000D01*
D19*
X146000000Y-119750000D02*
X145975000Y-119725000D01*
%TO.N,Net-(U2-Pad26)*%
X150250000Y-118750000D02*
X150500000Y-118500000D01*
X149250000Y-120500000D02*
X150250000Y-119500000D01*
X145500000Y-120500000D02*
X149250000Y-120500000D01*
X150500000Y-118500000D02*
X151750000Y-118500000D01*
X144675000Y-119675000D02*
X145500000Y-120500000D01*
X150250000Y-119500000D02*
X150250000Y-118750000D01*
X144675000Y-118650000D02*
X144675000Y-119675000D01*
%TO.N,Net-(SW2-Pad1)*%
X142992000Y-109270172D02*
X142801500Y-109460672D01*
X124250000Y-106000000D02*
X127500000Y-106000000D01*
X142992000Y-104742000D02*
X142992000Y-109270172D01*
X127500000Y-106000000D02*
X129000000Y-104500000D01*
X123250000Y-110500000D02*
X123250000Y-107000000D01*
X142750000Y-104500000D02*
X142992000Y-104742000D01*
X151000000Y-120750000D02*
X151750000Y-120000000D01*
X143250000Y-120250000D02*
X142750000Y-120750000D01*
X143250000Y-110878618D02*
X143250000Y-120250000D01*
X151750000Y-120000000D02*
X151750000Y-119300000D01*
X142801500Y-110430118D02*
X143250000Y-110878618D01*
X142801500Y-109460672D02*
X142801500Y-110430118D01*
X123250000Y-107000000D02*
X124250000Y-106000000D01*
%TO.N,Net-(SW3-Pad1)*%
X151750000Y-112250000D02*
X151750000Y-113700000D01*
X142547500Y-110535328D02*
X142750000Y-110737828D01*
X142500000Y-97000000D02*
X142305500Y-97194500D01*
X151500000Y-112000000D02*
X151750000Y-112250000D01*
X142738000Y-109164962D02*
X142547500Y-109355462D01*
X142305500Y-104684118D02*
X142738000Y-105116618D01*
X142305500Y-97194500D02*
X142305500Y-104684118D01*
X141000000Y-95500000D02*
X142500000Y-97000000D01*
X142738000Y-105116618D02*
X142738000Y-109164962D01*
X142547500Y-109355462D02*
X142547500Y-110535328D01*
X142750000Y-110737828D02*
X142750000Y-110750000D01*
X142750000Y-110750000D02*
X142250000Y-111250000D01*
%TO.N,Net-(SW4-Pad1)*%
X153200000Y-112250000D02*
X153200000Y-113700000D01*
X153200000Y-113700000D02*
X153500000Y-114000000D01*
X153750000Y-109750000D02*
X153200000Y-110300000D01*
X153200000Y-110300000D02*
X153200000Y-112250000D01*
X161500000Y-108250000D02*
X160000000Y-109750000D01*
X160000000Y-109750000D02*
X153750000Y-109750000D01*
%TO.N,Net-(U2-Pad9)*%
X160250000Y-113700000D02*
X160250000Y-111750000D01*
X162000000Y-110000000D02*
X162000000Y-97500000D01*
X160250000Y-111750000D02*
X162000000Y-110000000D01*
%TO.N,/RF_CS*%
X162500000Y-112000000D02*
X162500000Y-116750000D01*
X143246000Y-100746000D02*
X143000000Y-100500000D01*
X143246000Y-109375382D02*
X143246000Y-100746000D01*
X161750000Y-111250000D02*
X162500000Y-112000000D01*
X143055500Y-110055500D02*
X143055500Y-109565882D01*
X162500000Y-116750000D02*
X161550000Y-117700000D01*
X161550000Y-117700000D02*
X160250000Y-117700000D01*
X143055500Y-109565882D02*
X143246000Y-109375382D01*
X143500000Y-110500000D02*
X143055500Y-110055500D01*
%TO.N,/LED1*%
X158000000Y-119250000D02*
X158000000Y-112250000D01*
X158250000Y-119500000D02*
X158000000Y-119250000D01*
%TO.N,/LED2*%
X160500000Y-123500000D02*
X159750000Y-123500000D01*
X159750000Y-123500000D02*
X158250000Y-125000000D01*
X158800000Y-112250000D02*
X158800000Y-115950000D01*
X143600000Y-125000000D02*
X143000000Y-124400000D01*
X158800000Y-115950000D02*
X158750000Y-116000000D01*
X158250000Y-125000000D02*
X143600000Y-125000000D01*
%TD*%
M02*
