%TF.GenerationSoftware,KiCad,Pcbnew,6.0.9-8da3e8f707~117~ubuntu22.04.1*%
%TF.CreationDate,2022-12-02T16:27:46-05:00*%
%TF.ProjectId,watch,77617463-682e-46b6-9963-61645f706362,rev?*%
%TF.SameCoordinates,Original*%
%TF.FileFunction,Copper,L3,Inr*%
%TF.FilePolarity,Positive*%
%FSLAX46Y46*%
G04 Gerber Fmt 4.6, Leading zero omitted, Abs format (unit mm)*
G04 Created by KiCad (PCBNEW 6.0.9-8da3e8f707~117~ubuntu22.04.1) date 2022-12-02 16:27:46*
%MOMM*%
%LPD*%
G01*
G04 APERTURE LIST*
%TA.AperFunction,ComponentPad*%
%ADD10R,1.350000X1.350000*%
%TD*%
%TA.AperFunction,ComponentPad*%
%ADD11O,1.350000X1.350000*%
%TD*%
%TA.AperFunction,ViaPad*%
%ADD12C,0.508000*%
%TD*%
G04 APERTURE END LIST*
D10*
%TO.N,Net-(J3-Pad1)*%
%TO.C,J3*%
X163000000Y-107000000D03*
D11*
%TO.N,GND*%
X163000000Y-105000000D03*
%TD*%
D10*
%TO.N,Net-(C1-Pad1)*%
%TO.C,J1*%
X125500000Y-104000000D03*
D11*
%TO.N,GND*%
X125500000Y-102000000D03*
%TD*%
D12*
%TO.N,Net-(C1-Pad1)*%
X141000000Y-125000000D03*
X140804800Y-105780600D03*
%TO.N,GND*%
X156750000Y-110750000D03*
X122567500Y-118682500D03*
X131750000Y-100750000D03*
X145400000Y-123800000D03*
X163250000Y-101250000D03*
X142000000Y-93250000D03*
X155250000Y-122250000D03*
X155250000Y-116500000D03*
X142000000Y-108000000D03*
X156000000Y-114000000D03*
X126000000Y-99250000D03*
X146500000Y-113000000D03*
X164500000Y-118500000D03*
X165000000Y-99750000D03*
X155000000Y-110750000D03*
X132500000Y-98500000D03*
X136500000Y-99500000D03*
%TO.N,+3.3V*%
X149250000Y-113500000D03*
X156000000Y-115500000D03*
X156000000Y-110444000D03*
X144000000Y-117500000D03*
X161556000Y-98725000D03*
X149500000Y-118750000D03*
X136250000Y-98500000D03*
X145000000Y-112750000D03*
X157750000Y-110500000D03*
X156500000Y-122250000D03*
X158000000Y-122250000D03*
X154925000Y-118825000D03*
X164500000Y-120500000D03*
%TO.N,/eBUSY*%
X163500000Y-115250000D03*
X161250000Y-115250000D03*
%TO.N,/eRST*%
X164500000Y-108500000D03*
X161750000Y-112750000D03*
%TO.N,/eDC*%
X161750000Y-116500000D03*
X164250000Y-110750000D03*
%TO.N,/eCS*%
X164000000Y-114500000D03*
X161250000Y-114500000D03*
%TO.N,/SCK*%
X135750000Y-100500000D03*
X163750000Y-117000000D03*
X158750000Y-123250000D03*
X161000000Y-121000000D03*
X142000000Y-110250000D03*
X142000000Y-123250000D03*
X135500000Y-105475800D03*
%TO.N,/MOSI*%
X163500000Y-118250000D03*
X142750000Y-98500000D03*
X138750000Y-97500000D03*
X143500000Y-109750000D03*
X162000000Y-118500000D03*
X162033758Y-110682483D03*
%TO.N,Net-(R1-Pad2)*%
X157500000Y-119250000D03*
%TO.N,/MISO*%
X142052000Y-109500000D03*
X162500000Y-110250000D03*
X141500000Y-94000000D03*
%TO.N,Net-(D1-Pad2)*%
X147800000Y-122400000D03*
%TO.N,Net-(D2-Pad2)*%
X143000000Y-122400000D03*
%TO.N,/nRESET*%
X142250000Y-117000000D03*
X150250000Y-116250000D03*
X141500000Y-106250000D03*
X132500000Y-106000000D03*
%TO.N,/TXD*%
X140500000Y-115250000D03*
X150500000Y-114500000D03*
%TO.N,/RXD*%
X141692130Y-105057870D03*
X130250000Y-105000000D03*
X142250000Y-115250000D03*
X149418084Y-114918084D03*
%TO.N,Net-(U2-Pad23)*%
X152250000Y-121250000D03*
X140500000Y-122250000D03*
X140750000Y-103500000D03*
%TO.N,/SCL*%
X150250000Y-117500000D03*
X145250000Y-117500000D03*
%TO.N,/SDA*%
X153000000Y-116750000D03*
X145975000Y-119725000D03*
%TO.N,Net-(SW2-Pad1)*%
X129000000Y-104500000D03*
X151000000Y-120750000D03*
X123250000Y-110500000D03*
X142750000Y-120750000D03*
X142750000Y-104500000D03*
%TO.N,Net-(SW3-Pad1)*%
X151500000Y-112000000D03*
X141000000Y-95500000D03*
X142250000Y-111250000D03*
%TO.N,Net-(SW4-Pad1)*%
X161500000Y-108250000D03*
X153500000Y-114000000D03*
%TO.N,Net-(U2-Pad9)*%
X162000000Y-97500000D03*
%TO.N,/RF_CS*%
X143000000Y-100500000D03*
X143500000Y-110500000D03*
X161750000Y-111250000D03*
%TO.N,/LED1*%
X158250000Y-119500000D03*
%TO.N,/LED2*%
X160500000Y-123500000D03*
X158750000Y-116000000D03*
X143000000Y-124400000D03*
%TD*%
%TA.AperFunction,Conductor*%
%TO.N,+3.3V*%
G36*
X141664864Y-92772806D02*
G01*
X141683170Y-92817000D01*
X141666181Y-92858015D01*
X141667042Y-92858776D01*
X141570622Y-92967951D01*
X141568730Y-92971981D01*
X141510611Y-93095769D01*
X141510610Y-93095772D01*
X141508719Y-93099800D01*
X141486309Y-93243724D01*
X141486886Y-93248137D01*
X141486886Y-93248139D01*
X141494262Y-93304541D01*
X141505195Y-93388152D01*
X141506988Y-93392228D01*
X141506989Y-93392230D01*
X141511948Y-93403501D01*
X141512991Y-93451325D01*
X141479912Y-93485879D01*
X141454359Y-93491171D01*
X141434732Y-93491051D01*
X141434731Y-93491051D01*
X141430279Y-93491024D01*
X141290229Y-93531051D01*
X141167042Y-93608776D01*
X141164099Y-93612108D01*
X141164097Y-93612110D01*
X141086904Y-93699515D01*
X141070622Y-93717951D01*
X141068730Y-93721981D01*
X141010611Y-93845769D01*
X141010610Y-93845772D01*
X141008719Y-93849800D01*
X140986309Y-93993724D01*
X140986886Y-93998137D01*
X140986886Y-93998139D01*
X140993944Y-94052115D01*
X141005195Y-94138152D01*
X141006988Y-94142227D01*
X141061988Y-94267221D01*
X141063859Y-94271474D01*
X141157583Y-94382973D01*
X141161288Y-94385439D01*
X141161290Y-94385441D01*
X141254265Y-94447329D01*
X141278834Y-94463684D01*
X141417864Y-94507121D01*
X141422314Y-94507203D01*
X141422317Y-94507203D01*
X141559052Y-94509709D01*
X141559055Y-94509709D01*
X141563498Y-94509790D01*
X141567789Y-94508620D01*
X141567790Y-94508620D01*
X141618770Y-94494721D01*
X141704026Y-94471477D01*
X141707817Y-94469149D01*
X141707820Y-94469148D01*
X141824362Y-94397592D01*
X141824365Y-94397589D01*
X141828154Y-94395263D01*
X141831137Y-94391967D01*
X141831141Y-94391964D01*
X141922914Y-94290574D01*
X141925901Y-94287274D01*
X141989410Y-94156191D01*
X141991760Y-94142227D01*
X142006253Y-94056080D01*
X142013576Y-94012552D01*
X142013729Y-94000000D01*
X141993080Y-93855813D01*
X141989462Y-93847856D01*
X141987834Y-93800049D01*
X142020487Y-93765092D01*
X142047502Y-93759497D01*
X142059052Y-93759709D01*
X142059055Y-93759709D01*
X142063498Y-93759790D01*
X142067789Y-93758620D01*
X142067790Y-93758620D01*
X142118770Y-93744721D01*
X142204026Y-93721477D01*
X142207817Y-93719149D01*
X142207820Y-93719148D01*
X142324362Y-93647592D01*
X142324365Y-93647589D01*
X142328154Y-93645263D01*
X142331137Y-93641967D01*
X142331141Y-93641964D01*
X142422914Y-93540574D01*
X142425901Y-93537274D01*
X142489410Y-93406191D01*
X142491193Y-93395597D01*
X142513176Y-93264927D01*
X142513576Y-93262552D01*
X142513729Y-93250000D01*
X142493080Y-93105813D01*
X142432792Y-92973218D01*
X142337713Y-92862873D01*
X142337470Y-92862716D01*
X142316887Y-92821252D01*
X142332143Y-92775915D01*
X142379242Y-92754500D01*
X143433000Y-92754500D01*
X143477194Y-92772806D01*
X143495500Y-92817000D01*
X143495500Y-100127712D01*
X143477194Y-100171906D01*
X143433000Y-100190212D01*
X143385652Y-100168509D01*
X143355032Y-100132973D01*
X143337713Y-100112873D01*
X143215485Y-100033648D01*
X143075934Y-99991914D01*
X143003106Y-99991469D01*
X142934732Y-99991051D01*
X142934731Y-99991051D01*
X142930279Y-99991024D01*
X142790229Y-100031051D01*
X142667042Y-100108776D01*
X142664099Y-100112108D01*
X142664097Y-100112110D01*
X142595120Y-100190212D01*
X142570622Y-100217951D01*
X142568730Y-100221981D01*
X142510611Y-100345769D01*
X142510610Y-100345772D01*
X142508719Y-100349800D01*
X142486309Y-100493724D01*
X142486886Y-100498137D01*
X142486886Y-100498139D01*
X142494262Y-100554541D01*
X142505195Y-100638152D01*
X142506988Y-100642227D01*
X142555473Y-100752415D01*
X142563859Y-100771474D01*
X142574092Y-100783648D01*
X142643523Y-100866246D01*
X142657583Y-100882973D01*
X142661288Y-100885439D01*
X142661290Y-100885441D01*
X142692463Y-100906191D01*
X142778834Y-100963684D01*
X142917864Y-101007121D01*
X142922314Y-101007203D01*
X142922317Y-101007203D01*
X143059052Y-101009709D01*
X143059055Y-101009709D01*
X143063498Y-101009790D01*
X143067789Y-101008620D01*
X143067790Y-101008620D01*
X143118770Y-100994721D01*
X143204026Y-100971477D01*
X143207817Y-100969149D01*
X143207820Y-100969148D01*
X143324362Y-100897592D01*
X143324365Y-100897589D01*
X143328154Y-100895263D01*
X143386664Y-100830623D01*
X143429892Y-100810142D01*
X143474942Y-100826228D01*
X143495500Y-100872565D01*
X143495500Y-108718778D01*
X143494299Y-108730971D01*
X143490514Y-108750000D01*
X143495500Y-108775067D01*
X143510266Y-108849301D01*
X143513685Y-108854418D01*
X143513686Y-108854420D01*
X143532765Y-108882973D01*
X143566516Y-108933484D01*
X143571633Y-108936903D01*
X143645580Y-108986314D01*
X143645582Y-108986315D01*
X143650699Y-108989734D01*
X143750000Y-109009486D01*
X143769029Y-109005701D01*
X143781222Y-109004500D01*
X160218778Y-109004500D01*
X160230971Y-109005701D01*
X160250000Y-109009486D01*
X160349301Y-108989734D01*
X160354418Y-108986315D01*
X160354420Y-108986314D01*
X160428367Y-108936903D01*
X160433484Y-108933484D01*
X160467235Y-108882973D01*
X160486314Y-108854420D01*
X160486315Y-108854418D01*
X160489734Y-108849301D01*
X160504500Y-108775067D01*
X160509486Y-108750000D01*
X160505701Y-108730971D01*
X160504500Y-108718778D01*
X160504500Y-108243724D01*
X160986309Y-108243724D01*
X160986886Y-108248137D01*
X160986886Y-108248139D01*
X160989405Y-108267400D01*
X161005195Y-108388152D01*
X161006988Y-108392227D01*
X161058718Y-108509790D01*
X161063859Y-108521474D01*
X161157583Y-108632973D01*
X161161288Y-108635439D01*
X161161290Y-108635441D01*
X161192463Y-108656191D01*
X161278834Y-108713684D01*
X161417864Y-108757121D01*
X161422314Y-108757203D01*
X161422317Y-108757203D01*
X161559052Y-108759709D01*
X161559055Y-108759709D01*
X161563498Y-108759790D01*
X161567789Y-108758620D01*
X161567790Y-108758620D01*
X161621553Y-108743962D01*
X161704026Y-108721477D01*
X161707817Y-108719149D01*
X161707820Y-108719148D01*
X161824362Y-108647592D01*
X161824365Y-108647589D01*
X161828154Y-108645263D01*
X161831137Y-108641967D01*
X161831141Y-108641964D01*
X161922914Y-108540574D01*
X161925901Y-108537274D01*
X161947001Y-108493724D01*
X163986309Y-108493724D01*
X163986886Y-108498137D01*
X163986886Y-108498139D01*
X163989405Y-108517400D01*
X164005195Y-108638152D01*
X164006988Y-108642227D01*
X164058718Y-108759790D01*
X164063859Y-108771474D01*
X164157583Y-108882973D01*
X164161288Y-108885439D01*
X164161290Y-108885441D01*
X164225778Y-108928367D01*
X164278834Y-108963684D01*
X164417864Y-109007121D01*
X164422314Y-109007203D01*
X164422317Y-109007203D01*
X164559052Y-109009709D01*
X164559055Y-109009709D01*
X164563498Y-109009790D01*
X164567789Y-109008620D01*
X164567790Y-109008620D01*
X164649605Y-108986314D01*
X164704026Y-108971477D01*
X164707817Y-108969149D01*
X164707820Y-108969148D01*
X164824362Y-108897592D01*
X164824365Y-108897589D01*
X164828154Y-108895263D01*
X164831137Y-108891967D01*
X164831141Y-108891964D01*
X164922914Y-108790574D01*
X164925901Y-108787274D01*
X164989410Y-108656191D01*
X164991760Y-108642227D01*
X164998711Y-108600906D01*
X165013576Y-108512552D01*
X165013729Y-108500000D01*
X164993080Y-108355813D01*
X164944123Y-108248139D01*
X164934636Y-108227273D01*
X164934635Y-108227271D01*
X164932792Y-108223218D01*
X164837713Y-108112873D01*
X164715485Y-108033648D01*
X164575934Y-107991914D01*
X164503106Y-107991469D01*
X164434732Y-107991051D01*
X164434731Y-107991051D01*
X164430279Y-107991024D01*
X164290229Y-108031051D01*
X164167042Y-108108776D01*
X164164099Y-108112108D01*
X164164097Y-108112110D01*
X164073569Y-108214614D01*
X164070622Y-108217951D01*
X164068730Y-108221981D01*
X164010611Y-108345769D01*
X164010610Y-108345772D01*
X164008719Y-108349800D01*
X163986309Y-108493724D01*
X161947001Y-108493724D01*
X161989410Y-108406191D01*
X161991760Y-108392227D01*
X161999575Y-108345769D01*
X162013576Y-108262552D01*
X162013729Y-108250000D01*
X161993080Y-108105813D01*
X161944123Y-107998139D01*
X161934636Y-107977273D01*
X161934635Y-107977271D01*
X161932792Y-107973218D01*
X161837713Y-107862873D01*
X161715485Y-107783648D01*
X161575934Y-107741914D01*
X161503106Y-107741469D01*
X161434732Y-107741051D01*
X161434731Y-107741051D01*
X161430279Y-107741024D01*
X161290229Y-107781051D01*
X161167042Y-107858776D01*
X161164099Y-107862108D01*
X161164097Y-107862110D01*
X161073569Y-107964614D01*
X161070622Y-107967951D01*
X161068730Y-107971981D01*
X161010611Y-108095769D01*
X161010610Y-108095772D01*
X161008719Y-108099800D01*
X160986309Y-108243724D01*
X160504500Y-108243724D01*
X160504500Y-106299933D01*
X162070500Y-106299933D01*
X162070501Y-107700066D01*
X162071100Y-107703075D01*
X162071100Y-107703080D01*
X162078819Y-107741887D01*
X162085266Y-107774301D01*
X162141516Y-107858484D01*
X162146633Y-107861903D01*
X162220580Y-107911314D01*
X162220582Y-107911315D01*
X162225699Y-107914734D01*
X162258753Y-107921309D01*
X162296920Y-107928901D01*
X162296923Y-107928901D01*
X162299933Y-107929500D01*
X163000000Y-107929500D01*
X163700066Y-107929499D01*
X163703075Y-107928900D01*
X163703080Y-107928900D01*
X163768263Y-107915935D01*
X163774301Y-107914734D01*
X163858484Y-107858484D01*
X163906871Y-107786069D01*
X163911314Y-107779420D01*
X163911315Y-107779418D01*
X163914734Y-107774301D01*
X163921353Y-107741024D01*
X163928901Y-107703080D01*
X163928901Y-107703077D01*
X163929500Y-107700067D01*
X163929499Y-106299934D01*
X163927087Y-106287803D01*
X163915935Y-106231737D01*
X163914734Y-106225699D01*
X163858484Y-106141516D01*
X163811650Y-106110222D01*
X163779420Y-106088686D01*
X163779418Y-106088685D01*
X163774301Y-106085266D01*
X163741247Y-106078691D01*
X163703080Y-106071099D01*
X163703077Y-106071099D01*
X163700067Y-106070500D01*
X163696996Y-106070500D01*
X163000001Y-106070501D01*
X162299934Y-106070501D01*
X162296925Y-106071100D01*
X162296920Y-106071100D01*
X162231737Y-106084065D01*
X162225699Y-106085266D01*
X162141516Y-106141516D01*
X162085266Y-106225699D01*
X162084065Y-106231737D01*
X162084065Y-106231738D01*
X162077936Y-106262552D01*
X162070500Y-106299933D01*
X160504500Y-106299933D01*
X160504500Y-105000000D01*
X162065380Y-105000000D01*
X162085804Y-105194318D01*
X162086817Y-105197435D01*
X162086817Y-105197436D01*
X162145169Y-105377028D01*
X162145171Y-105377033D01*
X162146182Y-105380144D01*
X162243877Y-105549356D01*
X162374617Y-105694558D01*
X162532690Y-105809405D01*
X162535676Y-105810734D01*
X162535677Y-105810735D01*
X162663768Y-105867764D01*
X162711187Y-105888876D01*
X162714394Y-105889558D01*
X162714395Y-105889558D01*
X162899096Y-105928818D01*
X162899099Y-105928818D01*
X162902306Y-105929500D01*
X163097694Y-105929500D01*
X163100901Y-105928818D01*
X163100904Y-105928818D01*
X163285605Y-105889558D01*
X163285606Y-105889558D01*
X163288813Y-105888876D01*
X163336232Y-105867764D01*
X163464323Y-105810735D01*
X163464324Y-105810734D01*
X163467310Y-105809405D01*
X163625383Y-105694558D01*
X163756123Y-105549356D01*
X163853818Y-105380144D01*
X163854829Y-105377033D01*
X163854831Y-105377028D01*
X163913183Y-105197436D01*
X163913183Y-105197435D01*
X163914196Y-105194318D01*
X163934620Y-105000000D01*
X163914196Y-104805682D01*
X163905663Y-104779419D01*
X163854831Y-104622972D01*
X163854829Y-104622967D01*
X163853818Y-104619856D01*
X163756123Y-104450644D01*
X163625383Y-104305442D01*
X163467310Y-104190595D01*
X163288813Y-104111124D01*
X163285606Y-104110442D01*
X163285605Y-104110442D01*
X163100904Y-104071182D01*
X163100901Y-104071182D01*
X163097694Y-104070500D01*
X162902306Y-104070500D01*
X162899099Y-104071182D01*
X162899096Y-104071182D01*
X162714395Y-104110442D01*
X162714394Y-104110442D01*
X162711187Y-104111124D01*
X162532690Y-104190595D01*
X162374617Y-104305442D01*
X162243877Y-104450644D01*
X162146182Y-104619856D01*
X162145171Y-104622967D01*
X162145169Y-104622972D01*
X162094337Y-104779419D01*
X162085804Y-104805682D01*
X162065380Y-105000000D01*
X160504500Y-105000000D01*
X160504500Y-101243724D01*
X162736309Y-101243724D01*
X162736886Y-101248137D01*
X162736886Y-101248139D01*
X162744128Y-101303521D01*
X162755195Y-101388152D01*
X162756988Y-101392227D01*
X162783940Y-101453478D01*
X162813859Y-101521474D01*
X162907583Y-101632973D01*
X162911288Y-101635439D01*
X162911290Y-101635441D01*
X163004265Y-101697329D01*
X163028834Y-101713684D01*
X163167864Y-101757121D01*
X163172314Y-101757203D01*
X163172317Y-101757203D01*
X163309052Y-101759709D01*
X163309055Y-101759709D01*
X163313498Y-101759790D01*
X163317789Y-101758620D01*
X163317790Y-101758620D01*
X163368770Y-101744721D01*
X163454026Y-101721477D01*
X163457817Y-101719149D01*
X163457820Y-101719148D01*
X163574362Y-101647592D01*
X163574365Y-101647589D01*
X163578154Y-101645263D01*
X163581137Y-101641967D01*
X163581141Y-101641964D01*
X163672914Y-101540574D01*
X163675901Y-101537274D01*
X163739410Y-101406191D01*
X163741760Y-101392227D01*
X163763176Y-101264927D01*
X163763576Y-101262552D01*
X163763729Y-101250000D01*
X163743080Y-101105813D01*
X163702881Y-101017400D01*
X163684636Y-100977273D01*
X163684635Y-100977271D01*
X163682792Y-100973218D01*
X163587713Y-100862873D01*
X163465485Y-100783648D01*
X163325934Y-100741914D01*
X163253106Y-100741469D01*
X163184732Y-100741051D01*
X163184731Y-100741051D01*
X163180279Y-100741024D01*
X163040229Y-100781051D01*
X162917042Y-100858776D01*
X162914099Y-100862108D01*
X162914097Y-100862110D01*
X162826571Y-100961215D01*
X162820622Y-100967951D01*
X162818730Y-100971981D01*
X162760611Y-101095769D01*
X162760610Y-101095772D01*
X162758719Y-101099800D01*
X162736309Y-101243724D01*
X160504500Y-101243724D01*
X160504500Y-99743724D01*
X164486309Y-99743724D01*
X164486886Y-99748137D01*
X164486886Y-99748139D01*
X164489405Y-99767400D01*
X164505195Y-99888152D01*
X164506988Y-99892227D01*
X164558718Y-100009790D01*
X164563859Y-100021474D01*
X164606022Y-100071633D01*
X164643523Y-100116246D01*
X164657583Y-100132973D01*
X164661288Y-100135439D01*
X164661290Y-100135441D01*
X164710968Y-100168509D01*
X164778834Y-100213684D01*
X164917864Y-100257121D01*
X164922314Y-100257203D01*
X164922317Y-100257203D01*
X165059052Y-100259709D01*
X165059055Y-100259709D01*
X165063498Y-100259790D01*
X165067789Y-100258620D01*
X165067790Y-100258620D01*
X165132330Y-100241024D01*
X165204026Y-100221477D01*
X165207817Y-100219149D01*
X165207820Y-100219148D01*
X165324362Y-100147592D01*
X165324365Y-100147589D01*
X165328154Y-100145263D01*
X165331137Y-100141967D01*
X165331141Y-100141964D01*
X165422914Y-100040574D01*
X165425901Y-100037274D01*
X165489410Y-99906191D01*
X165491760Y-99892227D01*
X165498711Y-99850906D01*
X165513576Y-99762552D01*
X165513729Y-99750000D01*
X165493080Y-99605813D01*
X165444123Y-99498139D01*
X165434636Y-99477273D01*
X165434635Y-99477271D01*
X165432792Y-99473218D01*
X165337713Y-99362873D01*
X165215485Y-99283648D01*
X165075934Y-99241914D01*
X165003107Y-99241469D01*
X164934732Y-99241051D01*
X164934731Y-99241051D01*
X164930279Y-99241024D01*
X164790229Y-99281051D01*
X164667042Y-99358776D01*
X164664099Y-99362108D01*
X164664097Y-99362110D01*
X164573569Y-99464614D01*
X164570622Y-99467951D01*
X164568730Y-99471981D01*
X164510611Y-99595769D01*
X164510610Y-99595772D01*
X164508719Y-99599800D01*
X164486309Y-99743724D01*
X160504500Y-99743724D01*
X160504500Y-97493724D01*
X161486309Y-97493724D01*
X161486886Y-97498137D01*
X161486886Y-97498139D01*
X161494262Y-97554541D01*
X161505195Y-97638152D01*
X161506988Y-97642227D01*
X161558399Y-97759065D01*
X161563859Y-97771474D01*
X161657583Y-97882973D01*
X161661288Y-97885439D01*
X161661290Y-97885441D01*
X161754265Y-97947329D01*
X161778834Y-97963684D01*
X161917864Y-98007121D01*
X161922314Y-98007203D01*
X161922317Y-98007203D01*
X162059052Y-98009709D01*
X162059055Y-98009709D01*
X162063498Y-98009790D01*
X162067789Y-98008620D01*
X162067790Y-98008620D01*
X162132330Y-97991024D01*
X162204026Y-97971477D01*
X162207817Y-97969149D01*
X162207820Y-97969148D01*
X162324362Y-97897592D01*
X162324365Y-97897589D01*
X162328154Y-97895263D01*
X162331137Y-97891967D01*
X162331141Y-97891964D01*
X162422914Y-97790574D01*
X162425901Y-97787274D01*
X162489410Y-97656191D01*
X162491760Y-97642227D01*
X162513176Y-97514927D01*
X162513576Y-97512552D01*
X162513729Y-97500000D01*
X162493080Y-97355813D01*
X162432792Y-97223218D01*
X162337713Y-97112873D01*
X162215485Y-97033648D01*
X162075934Y-96991914D01*
X162003106Y-96991469D01*
X161934732Y-96991051D01*
X161934731Y-96991051D01*
X161930279Y-96991024D01*
X161790229Y-97031051D01*
X161667042Y-97108776D01*
X161664099Y-97112108D01*
X161664097Y-97112110D01*
X161573569Y-97214614D01*
X161570622Y-97217951D01*
X161568730Y-97221981D01*
X161510611Y-97345769D01*
X161510610Y-97345772D01*
X161508719Y-97349800D01*
X161486309Y-97493724D01*
X160504500Y-97493724D01*
X160504500Y-95000000D01*
X163795539Y-95000000D01*
X163815354Y-95251775D01*
X163874312Y-95497351D01*
X163875254Y-95499625D01*
X163970017Y-95728405D01*
X163970021Y-95728412D01*
X163970960Y-95730680D01*
X163972245Y-95732776D01*
X163972246Y-95732779D01*
X163998046Y-95774881D01*
X164102919Y-95946017D01*
X164266939Y-96138061D01*
X164458983Y-96302081D01*
X164674320Y-96434040D01*
X164676588Y-96434979D01*
X164676595Y-96434983D01*
X164881145Y-96519710D01*
X164907649Y-96530688D01*
X165153225Y-96589646D01*
X165209882Y-96594105D01*
X165340725Y-96604403D01*
X165340738Y-96604404D01*
X165341964Y-96604500D01*
X165468036Y-96604500D01*
X165469262Y-96604404D01*
X165469275Y-96604403D01*
X165600118Y-96594105D01*
X165656775Y-96589646D01*
X165902351Y-96530688D01*
X165928855Y-96519710D01*
X166133405Y-96434983D01*
X166133412Y-96434979D01*
X166135680Y-96434040D01*
X166351017Y-96302081D01*
X166543061Y-96138061D01*
X166707081Y-95946017D01*
X166811954Y-95774881D01*
X166837754Y-95732779D01*
X166837755Y-95732776D01*
X166839040Y-95730680D01*
X166839979Y-95728412D01*
X166839983Y-95728405D01*
X166934746Y-95499625D01*
X166935688Y-95497351D01*
X166994646Y-95251775D01*
X167014461Y-95000000D01*
X166994646Y-94748225D01*
X166935688Y-94502649D01*
X166919548Y-94463684D01*
X166839983Y-94271595D01*
X166839979Y-94271588D01*
X166839040Y-94269320D01*
X166772171Y-94160199D01*
X166708366Y-94056080D01*
X166707081Y-94053983D01*
X166543061Y-93861939D01*
X166351017Y-93697919D01*
X166268891Y-93647592D01*
X166137779Y-93567246D01*
X166137776Y-93567245D01*
X166135680Y-93565960D01*
X166133412Y-93565021D01*
X166133405Y-93565017D01*
X165904625Y-93470254D01*
X165904626Y-93470254D01*
X165902351Y-93469312D01*
X165656775Y-93410354D01*
X165600118Y-93405895D01*
X165469275Y-93395597D01*
X165469262Y-93395596D01*
X165468036Y-93395500D01*
X165341964Y-93395500D01*
X165340738Y-93395596D01*
X165340725Y-93395597D01*
X165209882Y-93405895D01*
X165153225Y-93410354D01*
X164907649Y-93469312D01*
X164905374Y-93470254D01*
X164905375Y-93470254D01*
X164676595Y-93565017D01*
X164676588Y-93565021D01*
X164674320Y-93565960D01*
X164672224Y-93567245D01*
X164672221Y-93567246D01*
X164541109Y-93647592D01*
X164458983Y-93697919D01*
X164266939Y-93861939D01*
X164102919Y-94053983D01*
X164101634Y-94056080D01*
X164037830Y-94160199D01*
X163970960Y-94269320D01*
X163970021Y-94271588D01*
X163970017Y-94271595D01*
X163890452Y-94463684D01*
X163874312Y-94502649D01*
X163815354Y-94748225D01*
X163795539Y-95000000D01*
X160504500Y-95000000D01*
X160504500Y-92817000D01*
X160522806Y-92772806D01*
X160567000Y-92754500D01*
X167683000Y-92754500D01*
X167727194Y-92772806D01*
X167745500Y-92817000D01*
X167745500Y-97683000D01*
X167727194Y-97727194D01*
X167683000Y-97745500D01*
X166281222Y-97745500D01*
X166269029Y-97744299D01*
X166256038Y-97741715D01*
X166250000Y-97740514D01*
X166150699Y-97760266D01*
X166145582Y-97763685D01*
X166145580Y-97763686D01*
X166140022Y-97767400D01*
X166066516Y-97816516D01*
X166063097Y-97821633D01*
X166016103Y-97891964D01*
X166010266Y-97900699D01*
X165996188Y-97971477D01*
X165990514Y-98000000D01*
X165991715Y-98006038D01*
X165994299Y-98019029D01*
X165995500Y-98031222D01*
X165995500Y-103218778D01*
X165994299Y-103230971D01*
X165990514Y-103250000D01*
X165995500Y-103275067D01*
X166010266Y-103349301D01*
X166066516Y-103433484D01*
X166071633Y-103436903D01*
X166145580Y-103486314D01*
X166145582Y-103486315D01*
X166150699Y-103489734D01*
X166250000Y-103509486D01*
X166269029Y-103505701D01*
X166281222Y-103504500D01*
X167683000Y-103504500D01*
X167727194Y-103522806D01*
X167745500Y-103567000D01*
X167745500Y-125183000D01*
X167727194Y-125227194D01*
X167683000Y-125245500D01*
X141545797Y-125245500D01*
X141501603Y-125227194D01*
X141483297Y-125183000D01*
X141486256Y-125163997D01*
X141487468Y-125160198D01*
X141489410Y-125156191D01*
X141513576Y-125012552D01*
X141513729Y-125000000D01*
X141493080Y-124855813D01*
X141432792Y-124723218D01*
X141337713Y-124612873D01*
X141215485Y-124533648D01*
X141075934Y-124491914D01*
X141003107Y-124491469D01*
X140934732Y-124491051D01*
X140934731Y-124491051D01*
X140930279Y-124491024D01*
X140790229Y-124531051D01*
X140667042Y-124608776D01*
X140664099Y-124612108D01*
X140664097Y-124612110D01*
X140573569Y-124714614D01*
X140570622Y-124717951D01*
X140568730Y-124721981D01*
X140510611Y-124845769D01*
X140510610Y-124845772D01*
X140508719Y-124849800D01*
X140486309Y-124993724D01*
X140486886Y-124998137D01*
X140486886Y-124998139D01*
X140494262Y-125054541D01*
X140505195Y-125138152D01*
X140513853Y-125157829D01*
X140514897Y-125205652D01*
X140481819Y-125240207D01*
X140456646Y-125245500D01*
X140317000Y-125245500D01*
X140272806Y-125227194D01*
X140254500Y-125183000D01*
X140254500Y-124393724D01*
X142486309Y-124393724D01*
X142486886Y-124398137D01*
X142486886Y-124398139D01*
X142491413Y-124432754D01*
X142505195Y-124538152D01*
X142506988Y-124542227D01*
X142539558Y-124616246D01*
X142563859Y-124671474D01*
X142657583Y-124782973D01*
X142661288Y-124785439D01*
X142661290Y-124785441D01*
X142751921Y-124845769D01*
X142778834Y-124863684D01*
X142917864Y-124907121D01*
X142922314Y-124907203D01*
X142922317Y-124907203D01*
X143059052Y-124909709D01*
X143059055Y-124909709D01*
X143063498Y-124909790D01*
X143067789Y-124908620D01*
X143067790Y-124908620D01*
X143118770Y-124894721D01*
X143204026Y-124871477D01*
X143207817Y-124869149D01*
X143207820Y-124869148D01*
X143324362Y-124797592D01*
X143324365Y-124797589D01*
X143328154Y-124795263D01*
X143331137Y-124791967D01*
X143331141Y-124791964D01*
X143422914Y-124690574D01*
X143425901Y-124687274D01*
X143489410Y-124556191D01*
X143491760Y-124542227D01*
X143513176Y-124414927D01*
X143513576Y-124412552D01*
X143513729Y-124400000D01*
X143493080Y-124255813D01*
X143439541Y-124138061D01*
X143434636Y-124127273D01*
X143434635Y-124127271D01*
X143432792Y-124123218D01*
X143337713Y-124012873D01*
X143215485Y-123933648D01*
X143075934Y-123891914D01*
X143003106Y-123891469D01*
X142934732Y-123891051D01*
X142934731Y-123891051D01*
X142930279Y-123891024D01*
X142790229Y-123931051D01*
X142667042Y-124008776D01*
X142664099Y-124012108D01*
X142664097Y-124012110D01*
X142573569Y-124114614D01*
X142570622Y-124117951D01*
X142568730Y-124121981D01*
X142510611Y-124245769D01*
X142510610Y-124245772D01*
X142508719Y-124249800D01*
X142486309Y-124393724D01*
X140254500Y-124393724D01*
X140254500Y-123793724D01*
X144886309Y-123793724D01*
X144886886Y-123798137D01*
X144886886Y-123798139D01*
X144894262Y-123854541D01*
X144905195Y-123938152D01*
X144906988Y-123942227D01*
X144939558Y-124016246D01*
X144963859Y-124071474D01*
X145057583Y-124182973D01*
X145061288Y-124185439D01*
X145061290Y-124185441D01*
X145151921Y-124245769D01*
X145178834Y-124263684D01*
X145317864Y-124307121D01*
X145322314Y-124307203D01*
X145322317Y-124307203D01*
X145459052Y-124309709D01*
X145459055Y-124309709D01*
X145463498Y-124309790D01*
X145467789Y-124308620D01*
X145467790Y-124308620D01*
X145518770Y-124294721D01*
X145604026Y-124271477D01*
X145607817Y-124269149D01*
X145607820Y-124269148D01*
X145724362Y-124197592D01*
X145724365Y-124197589D01*
X145728154Y-124195263D01*
X145731137Y-124191967D01*
X145731141Y-124191964D01*
X145822914Y-124090574D01*
X145825901Y-124087274D01*
X145889410Y-123956191D01*
X145890808Y-123947885D01*
X145913176Y-123814927D01*
X145913576Y-123812552D01*
X145913729Y-123800000D01*
X145893080Y-123655813D01*
X145862936Y-123589515D01*
X145834636Y-123527273D01*
X145834635Y-123527271D01*
X145832792Y-123523218D01*
X145737713Y-123412873D01*
X145615485Y-123333648D01*
X145475934Y-123291914D01*
X145403107Y-123291469D01*
X145334732Y-123291051D01*
X145334731Y-123291051D01*
X145330279Y-123291024D01*
X145190229Y-123331051D01*
X145067042Y-123408776D01*
X145064099Y-123412108D01*
X145064097Y-123412110D01*
X144975390Y-123512552D01*
X144970622Y-123517951D01*
X144968730Y-123521981D01*
X144910611Y-123645769D01*
X144910610Y-123645772D01*
X144908719Y-123649800D01*
X144886309Y-123793724D01*
X140254500Y-123793724D01*
X140254500Y-123243724D01*
X141486309Y-123243724D01*
X141486886Y-123248137D01*
X141486886Y-123248139D01*
X141492654Y-123292248D01*
X141505195Y-123388152D01*
X141506988Y-123392227D01*
X141555473Y-123502415D01*
X141563859Y-123521474D01*
X141657583Y-123632973D01*
X141661288Y-123635439D01*
X141661290Y-123635441D01*
X141754265Y-123697329D01*
X141778834Y-123713684D01*
X141917864Y-123757121D01*
X141922314Y-123757203D01*
X141922317Y-123757203D01*
X142059052Y-123759709D01*
X142059055Y-123759709D01*
X142063498Y-123759790D01*
X142067789Y-123758620D01*
X142067790Y-123758620D01*
X142170270Y-123730680D01*
X142204026Y-123721477D01*
X142207817Y-123719149D01*
X142207820Y-123719148D01*
X142324362Y-123647592D01*
X142324365Y-123647589D01*
X142328154Y-123645263D01*
X142331137Y-123641967D01*
X142331141Y-123641964D01*
X142422914Y-123540574D01*
X142425901Y-123537274D01*
X142489410Y-123406191D01*
X142491760Y-123392227D01*
X142508636Y-123291914D01*
X142513576Y-123262552D01*
X142513729Y-123250000D01*
X142512830Y-123243724D01*
X158236309Y-123243724D01*
X158236886Y-123248137D01*
X158236886Y-123248139D01*
X158242654Y-123292248D01*
X158255195Y-123388152D01*
X158256988Y-123392227D01*
X158305473Y-123502415D01*
X158313859Y-123521474D01*
X158407583Y-123632973D01*
X158411288Y-123635439D01*
X158411290Y-123635441D01*
X158504265Y-123697329D01*
X158528834Y-123713684D01*
X158667864Y-123757121D01*
X158672314Y-123757203D01*
X158672317Y-123757203D01*
X158809052Y-123759709D01*
X158809055Y-123759709D01*
X158813498Y-123759790D01*
X158817789Y-123758620D01*
X158817790Y-123758620D01*
X158920270Y-123730680D01*
X158954026Y-123721477D01*
X158957817Y-123719149D01*
X158957820Y-123719148D01*
X159074362Y-123647592D01*
X159074365Y-123647589D01*
X159078154Y-123645263D01*
X159081137Y-123641967D01*
X159081141Y-123641964D01*
X159172914Y-123540574D01*
X159175901Y-123537274D01*
X159197001Y-123493724D01*
X159986309Y-123493724D01*
X159986886Y-123498137D01*
X159986886Y-123498139D01*
X159989405Y-123517400D01*
X160005195Y-123638152D01*
X160006988Y-123642227D01*
X160058718Y-123759790D01*
X160063859Y-123771474D01*
X160157583Y-123882973D01*
X160161288Y-123885439D01*
X160161290Y-123885441D01*
X160234300Y-123934040D01*
X160278834Y-123963684D01*
X160417864Y-124007121D01*
X160422314Y-124007203D01*
X160422317Y-124007203D01*
X160559052Y-124009709D01*
X160559055Y-124009709D01*
X160563498Y-124009790D01*
X160567789Y-124008620D01*
X160567790Y-124008620D01*
X160618770Y-123994721D01*
X160704026Y-123971477D01*
X160707817Y-123969149D01*
X160707820Y-123969148D01*
X160824362Y-123897592D01*
X160824365Y-123897589D01*
X160828154Y-123895263D01*
X160831137Y-123891967D01*
X160831141Y-123891964D01*
X160922914Y-123790574D01*
X160925901Y-123787274D01*
X160989410Y-123656191D01*
X160991164Y-123645769D01*
X160998711Y-123600906D01*
X161013576Y-123512552D01*
X161013729Y-123500000D01*
X160993080Y-123355813D01*
X160944123Y-123248139D01*
X160934636Y-123227273D01*
X160934635Y-123227271D01*
X160932792Y-123223218D01*
X160837713Y-123112873D01*
X160715485Y-123033648D01*
X160602972Y-123000000D01*
X163795539Y-123000000D01*
X163815354Y-123251775D01*
X163874312Y-123497351D01*
X163884304Y-123521474D01*
X163970017Y-123728405D01*
X163970021Y-123728412D01*
X163970960Y-123730680D01*
X163972245Y-123732776D01*
X163972246Y-123732779D01*
X164014715Y-123802081D01*
X164102919Y-123946017D01*
X164266939Y-124138061D01*
X164458983Y-124302081D01*
X164461080Y-124303366D01*
X164639255Y-124412552D01*
X164674320Y-124434040D01*
X164676588Y-124434979D01*
X164676595Y-124434983D01*
X164881145Y-124519710D01*
X164907649Y-124530688D01*
X165153225Y-124589646D01*
X165209882Y-124594105D01*
X165340725Y-124604403D01*
X165340738Y-124604404D01*
X165341964Y-124604500D01*
X165468036Y-124604500D01*
X165469262Y-124604404D01*
X165469275Y-124604403D01*
X165600118Y-124594105D01*
X165656775Y-124589646D01*
X165902351Y-124530688D01*
X165928855Y-124519710D01*
X166133405Y-124434983D01*
X166133412Y-124434979D01*
X166135680Y-124434040D01*
X166170746Y-124412552D01*
X166348920Y-124303366D01*
X166351017Y-124302081D01*
X166543061Y-124138061D01*
X166707081Y-123946017D01*
X166795285Y-123802081D01*
X166837754Y-123732779D01*
X166837755Y-123732776D01*
X166839040Y-123730680D01*
X166839979Y-123728412D01*
X166839983Y-123728405D01*
X166925696Y-123521474D01*
X166935688Y-123497351D01*
X166994646Y-123251775D01*
X167014461Y-123000000D01*
X166994646Y-122748225D01*
X166935688Y-122502649D01*
X166924710Y-122476145D01*
X166839983Y-122271595D01*
X166839979Y-122271588D01*
X166839040Y-122269320D01*
X166829775Y-122254200D01*
X166708366Y-122056080D01*
X166707081Y-122053983D01*
X166543061Y-121861939D01*
X166351017Y-121697919D01*
X166268891Y-121647592D01*
X166137779Y-121567246D01*
X166137776Y-121567245D01*
X166135680Y-121565960D01*
X166133412Y-121565021D01*
X166133405Y-121565017D01*
X165904625Y-121470254D01*
X165904626Y-121470254D01*
X165902351Y-121469312D01*
X165656775Y-121410354D01*
X165600118Y-121405895D01*
X165469275Y-121395597D01*
X165469262Y-121395596D01*
X165468036Y-121395500D01*
X165341964Y-121395500D01*
X165340738Y-121395596D01*
X165340725Y-121395597D01*
X165209882Y-121405895D01*
X165153225Y-121410354D01*
X164907649Y-121469312D01*
X164905374Y-121470254D01*
X164905375Y-121470254D01*
X164676595Y-121565017D01*
X164676588Y-121565021D01*
X164674320Y-121565960D01*
X164672224Y-121567245D01*
X164672221Y-121567246D01*
X164541109Y-121647592D01*
X164458983Y-121697919D01*
X164266939Y-121861939D01*
X164102919Y-122053983D01*
X164101634Y-122056080D01*
X163980226Y-122254200D01*
X163970960Y-122269320D01*
X163970021Y-122271588D01*
X163970017Y-122271595D01*
X163885290Y-122476145D01*
X163874312Y-122502649D01*
X163815354Y-122748225D01*
X163795539Y-123000000D01*
X160602972Y-123000000D01*
X160575934Y-122991914D01*
X160503107Y-122991469D01*
X160434732Y-122991051D01*
X160434731Y-122991051D01*
X160430279Y-122991024D01*
X160290229Y-123031051D01*
X160167042Y-123108776D01*
X160164099Y-123112108D01*
X160164097Y-123112110D01*
X160073569Y-123214614D01*
X160070622Y-123217951D01*
X160068730Y-123221981D01*
X160010611Y-123345769D01*
X160010610Y-123345772D01*
X160008719Y-123349800D01*
X159986309Y-123493724D01*
X159197001Y-123493724D01*
X159239410Y-123406191D01*
X159241760Y-123392227D01*
X159258636Y-123291914D01*
X159263576Y-123262552D01*
X159263729Y-123250000D01*
X159243080Y-123105813D01*
X159194799Y-122999625D01*
X159184636Y-122977273D01*
X159184635Y-122977271D01*
X159182792Y-122973218D01*
X159087713Y-122862873D01*
X158965485Y-122783648D01*
X158825934Y-122741914D01*
X158753106Y-122741469D01*
X158684732Y-122741051D01*
X158684731Y-122741051D01*
X158680279Y-122741024D01*
X158540229Y-122781051D01*
X158417042Y-122858776D01*
X158414099Y-122862108D01*
X158414097Y-122862110D01*
X158371988Y-122909790D01*
X158320622Y-122967951D01*
X158318730Y-122971981D01*
X158260611Y-123095769D01*
X158260610Y-123095772D01*
X158258719Y-123099800D01*
X158236309Y-123243724D01*
X142512830Y-123243724D01*
X142493080Y-123105813D01*
X142444799Y-122999625D01*
X142434636Y-122977273D01*
X142434635Y-122977271D01*
X142432792Y-122973218D01*
X142337713Y-122862873D01*
X142215485Y-122783648D01*
X142075934Y-122741914D01*
X142003106Y-122741469D01*
X141934732Y-122741051D01*
X141934731Y-122741051D01*
X141930279Y-122741024D01*
X141790229Y-122781051D01*
X141667042Y-122858776D01*
X141664099Y-122862108D01*
X141664097Y-122862110D01*
X141621988Y-122909790D01*
X141570622Y-122967951D01*
X141568730Y-122971981D01*
X141510611Y-123095769D01*
X141510610Y-123095772D01*
X141508719Y-123099800D01*
X141486309Y-123243724D01*
X140254500Y-123243724D01*
X140254500Y-122791087D01*
X140272806Y-122746893D01*
X140317000Y-122728587D01*
X140335637Y-122731431D01*
X140417864Y-122757121D01*
X140422314Y-122757203D01*
X140422317Y-122757203D01*
X140559052Y-122759709D01*
X140559055Y-122759709D01*
X140563498Y-122759790D01*
X140567789Y-122758620D01*
X140567790Y-122758620D01*
X140632330Y-122741024D01*
X140704026Y-122721477D01*
X140707817Y-122719149D01*
X140707820Y-122719148D01*
X140824362Y-122647592D01*
X140824365Y-122647589D01*
X140828154Y-122645263D01*
X140831137Y-122641967D01*
X140831141Y-122641964D01*
X140922914Y-122540574D01*
X140925901Y-122537274D01*
X140989410Y-122406191D01*
X140990854Y-122397612D01*
X140991508Y-122393724D01*
X142486309Y-122393724D01*
X142486886Y-122398137D01*
X142486886Y-122398139D01*
X142494262Y-122454541D01*
X142505195Y-122538152D01*
X142506988Y-122542227D01*
X142553351Y-122647592D01*
X142563859Y-122671474D01*
X142566723Y-122674881D01*
X142631359Y-122751775D01*
X142657583Y-122782973D01*
X142661288Y-122785439D01*
X142661290Y-122785441D01*
X142754265Y-122847329D01*
X142778834Y-122863684D01*
X142917864Y-122907121D01*
X142922314Y-122907203D01*
X142922317Y-122907203D01*
X143059052Y-122909709D01*
X143059055Y-122909709D01*
X143063498Y-122909790D01*
X143067789Y-122908620D01*
X143067790Y-122908620D01*
X143118770Y-122894721D01*
X143204026Y-122871477D01*
X143207817Y-122869149D01*
X143207820Y-122869148D01*
X143324362Y-122797592D01*
X143324365Y-122797589D01*
X143328154Y-122795263D01*
X143331137Y-122791967D01*
X143331141Y-122791964D01*
X143422914Y-122690574D01*
X143425901Y-122687274D01*
X143489410Y-122556191D01*
X143491760Y-122542227D01*
X143513176Y-122414927D01*
X143513576Y-122412552D01*
X143513729Y-122400000D01*
X143512830Y-122393724D01*
X147286309Y-122393724D01*
X147286886Y-122398137D01*
X147286886Y-122398139D01*
X147294262Y-122454541D01*
X147305195Y-122538152D01*
X147306988Y-122542227D01*
X147353351Y-122647592D01*
X147363859Y-122671474D01*
X147366723Y-122674881D01*
X147431359Y-122751775D01*
X147457583Y-122782973D01*
X147461288Y-122785439D01*
X147461290Y-122785441D01*
X147554265Y-122847329D01*
X147578834Y-122863684D01*
X147717864Y-122907121D01*
X147722314Y-122907203D01*
X147722317Y-122907203D01*
X147859052Y-122909709D01*
X147859055Y-122909709D01*
X147863498Y-122909790D01*
X147867789Y-122908620D01*
X147867790Y-122908620D01*
X147918770Y-122894721D01*
X148004026Y-122871477D01*
X148007817Y-122869149D01*
X148007820Y-122869148D01*
X148124362Y-122797592D01*
X148124365Y-122797589D01*
X148128154Y-122795263D01*
X148131137Y-122791967D01*
X148131141Y-122791964D01*
X148222914Y-122690574D01*
X148225901Y-122687274D01*
X148289410Y-122556191D01*
X148291760Y-122542227D01*
X148313176Y-122414927D01*
X148313576Y-122412552D01*
X148313729Y-122400000D01*
X148293080Y-122255813D01*
X148287583Y-122243724D01*
X154736309Y-122243724D01*
X154736886Y-122248137D01*
X154736886Y-122248139D01*
X154744262Y-122304541D01*
X154755195Y-122388152D01*
X154756988Y-122392227D01*
X154805576Y-122502649D01*
X154813859Y-122521474D01*
X154907583Y-122632973D01*
X154911288Y-122635439D01*
X154911290Y-122635441D01*
X154970541Y-122674881D01*
X155028834Y-122713684D01*
X155167864Y-122757121D01*
X155172314Y-122757203D01*
X155172317Y-122757203D01*
X155309052Y-122759709D01*
X155309055Y-122759709D01*
X155313498Y-122759790D01*
X155317789Y-122758620D01*
X155317790Y-122758620D01*
X155382330Y-122741024D01*
X155454026Y-122721477D01*
X155457817Y-122719149D01*
X155457820Y-122719148D01*
X155574362Y-122647592D01*
X155574365Y-122647589D01*
X155578154Y-122645263D01*
X155581137Y-122641967D01*
X155581141Y-122641964D01*
X155672914Y-122540574D01*
X155675901Y-122537274D01*
X155739410Y-122406191D01*
X155740854Y-122397612D01*
X155748711Y-122350906D01*
X155763576Y-122262552D01*
X155763729Y-122250000D01*
X155743080Y-122105813D01*
X155699721Y-122010451D01*
X155684636Y-121977273D01*
X155684635Y-121977271D01*
X155682792Y-121973218D01*
X155587713Y-121862873D01*
X155465485Y-121783648D01*
X155325934Y-121741914D01*
X155253107Y-121741469D01*
X155184732Y-121741051D01*
X155184731Y-121741051D01*
X155180279Y-121741024D01*
X155040229Y-121781051D01*
X154917042Y-121858776D01*
X154914099Y-121862108D01*
X154914097Y-121862110D01*
X154850917Y-121933648D01*
X154820622Y-121967951D01*
X154818730Y-121971981D01*
X154760611Y-122095769D01*
X154760610Y-122095772D01*
X154758719Y-122099800D01*
X154736309Y-122243724D01*
X148287583Y-122243724D01*
X148232792Y-122123218D01*
X148137713Y-122012873D01*
X148015485Y-121933648D01*
X147875934Y-121891914D01*
X147803107Y-121891469D01*
X147734732Y-121891051D01*
X147734731Y-121891051D01*
X147730279Y-121891024D01*
X147590229Y-121931051D01*
X147467042Y-122008776D01*
X147464099Y-122012108D01*
X147464097Y-122012110D01*
X147390212Y-122095769D01*
X147370622Y-122117951D01*
X147368730Y-122121981D01*
X147310611Y-122245769D01*
X147310610Y-122245772D01*
X147308719Y-122249800D01*
X147286309Y-122393724D01*
X143512830Y-122393724D01*
X143493080Y-122255813D01*
X143432792Y-122123218D01*
X143337713Y-122012873D01*
X143215485Y-121933648D01*
X143075934Y-121891914D01*
X143003107Y-121891469D01*
X142934732Y-121891051D01*
X142934731Y-121891051D01*
X142930279Y-121891024D01*
X142790229Y-121931051D01*
X142667042Y-122008776D01*
X142664099Y-122012108D01*
X142664097Y-122012110D01*
X142590212Y-122095769D01*
X142570622Y-122117951D01*
X142568730Y-122121981D01*
X142510611Y-122245769D01*
X142510610Y-122245772D01*
X142508719Y-122249800D01*
X142486309Y-122393724D01*
X140991508Y-122393724D01*
X140998711Y-122350906D01*
X141013576Y-122262552D01*
X141013729Y-122250000D01*
X140993080Y-122105813D01*
X140949721Y-122010451D01*
X140934636Y-121977273D01*
X140934635Y-121977271D01*
X140932792Y-121973218D01*
X140837713Y-121862873D01*
X140715485Y-121783648D01*
X140575934Y-121741914D01*
X140503107Y-121741469D01*
X140434732Y-121741051D01*
X140434731Y-121741051D01*
X140430279Y-121741024D01*
X140334175Y-121768491D01*
X140286652Y-121763034D01*
X140256906Y-121725572D01*
X140254500Y-121708397D01*
X140254500Y-120743724D01*
X142236309Y-120743724D01*
X142236886Y-120748137D01*
X142236886Y-120748139D01*
X142241030Y-120779828D01*
X142255195Y-120888152D01*
X142256988Y-120892227D01*
X142305473Y-121002415D01*
X142313859Y-121021474D01*
X142407583Y-121132973D01*
X142411288Y-121135439D01*
X142411290Y-121135441D01*
X142442463Y-121156191D01*
X142528834Y-121213684D01*
X142667864Y-121257121D01*
X142672314Y-121257203D01*
X142672317Y-121257203D01*
X142809052Y-121259709D01*
X142809055Y-121259709D01*
X142813498Y-121259790D01*
X142817789Y-121258620D01*
X142817790Y-121258620D01*
X142888554Y-121239327D01*
X142954026Y-121221477D01*
X142957817Y-121219149D01*
X142957820Y-121219148D01*
X143074362Y-121147592D01*
X143074365Y-121147589D01*
X143078154Y-121145263D01*
X143081137Y-121141967D01*
X143081141Y-121141964D01*
X143172914Y-121040574D01*
X143175901Y-121037274D01*
X143239410Y-120906191D01*
X143241193Y-120895597D01*
X143259619Y-120786069D01*
X143263576Y-120762552D01*
X143263729Y-120750000D01*
X143262830Y-120743724D01*
X150486309Y-120743724D01*
X150486886Y-120748137D01*
X150486886Y-120748139D01*
X150491030Y-120779828D01*
X150505195Y-120888152D01*
X150506988Y-120892227D01*
X150555473Y-121002415D01*
X150563859Y-121021474D01*
X150657583Y-121132973D01*
X150661288Y-121135439D01*
X150661290Y-121135441D01*
X150692463Y-121156191D01*
X150778834Y-121213684D01*
X150917864Y-121257121D01*
X150922314Y-121257203D01*
X150922317Y-121257203D01*
X151059052Y-121259709D01*
X151059055Y-121259709D01*
X151063498Y-121259790D01*
X151067789Y-121258620D01*
X151067790Y-121258620D01*
X151122426Y-121243724D01*
X151736309Y-121243724D01*
X151736886Y-121248137D01*
X151736886Y-121248139D01*
X151739405Y-121267400D01*
X151755195Y-121388152D01*
X151756988Y-121392227D01*
X151808718Y-121509790D01*
X151813859Y-121521474D01*
X151907583Y-121632973D01*
X151911288Y-121635439D01*
X151911290Y-121635441D01*
X152003220Y-121696634D01*
X152028834Y-121713684D01*
X152167864Y-121757121D01*
X152172314Y-121757203D01*
X152172317Y-121757203D01*
X152309052Y-121759709D01*
X152309055Y-121759709D01*
X152313498Y-121759790D01*
X152317789Y-121758620D01*
X152317790Y-121758620D01*
X152382330Y-121741024D01*
X152454026Y-121721477D01*
X152457817Y-121719149D01*
X152457820Y-121719148D01*
X152574362Y-121647592D01*
X152574365Y-121647589D01*
X152578154Y-121645263D01*
X152581137Y-121641967D01*
X152581141Y-121641964D01*
X152672914Y-121540574D01*
X152675901Y-121537274D01*
X152739410Y-121406191D01*
X152741193Y-121395597D01*
X152748711Y-121350906D01*
X152763576Y-121262552D01*
X152763729Y-121250000D01*
X152743080Y-121105813D01*
X152694123Y-120998139D01*
X152692116Y-120993724D01*
X160486309Y-120993724D01*
X160486886Y-120998137D01*
X160486886Y-120998139D01*
X160489405Y-121017400D01*
X160505195Y-121138152D01*
X160506988Y-121142227D01*
X160558718Y-121259790D01*
X160563859Y-121271474D01*
X160657583Y-121382973D01*
X160661288Y-121385439D01*
X160661290Y-121385441D01*
X160692463Y-121406191D01*
X160778834Y-121463684D01*
X160917864Y-121507121D01*
X160922314Y-121507203D01*
X160922317Y-121507203D01*
X161059052Y-121509709D01*
X161059055Y-121509709D01*
X161063498Y-121509790D01*
X161067789Y-121508620D01*
X161067790Y-121508620D01*
X161118770Y-121494721D01*
X161204026Y-121471477D01*
X161207817Y-121469149D01*
X161207820Y-121469148D01*
X161324362Y-121397592D01*
X161324365Y-121397589D01*
X161328154Y-121395263D01*
X161331137Y-121391967D01*
X161331141Y-121391964D01*
X161422914Y-121290574D01*
X161425901Y-121287274D01*
X161489410Y-121156191D01*
X161491760Y-121142227D01*
X161504374Y-121067246D01*
X161513576Y-121012552D01*
X161513729Y-121000000D01*
X161493080Y-120855813D01*
X161444123Y-120748139D01*
X161434636Y-120727273D01*
X161434635Y-120727271D01*
X161432792Y-120723218D01*
X161337713Y-120612873D01*
X161215485Y-120533648D01*
X161075934Y-120491914D01*
X161003106Y-120491469D01*
X160934732Y-120491051D01*
X160934731Y-120491051D01*
X160930279Y-120491024D01*
X160790229Y-120531051D01*
X160667042Y-120608776D01*
X160664099Y-120612108D01*
X160664097Y-120612110D01*
X160573569Y-120714614D01*
X160570622Y-120717951D01*
X160568730Y-120721981D01*
X160510611Y-120845769D01*
X160510610Y-120845772D01*
X160508719Y-120849800D01*
X160486309Y-120993724D01*
X152692116Y-120993724D01*
X152684636Y-120977273D01*
X152684635Y-120977271D01*
X152682792Y-120973218D01*
X152587713Y-120862873D01*
X152465485Y-120783648D01*
X152325934Y-120741914D01*
X152253106Y-120741469D01*
X152184732Y-120741051D01*
X152184731Y-120741051D01*
X152180279Y-120741024D01*
X152040229Y-120781051D01*
X151917042Y-120858776D01*
X151914099Y-120862108D01*
X151914097Y-120862110D01*
X151871490Y-120910354D01*
X151820622Y-120967951D01*
X151818730Y-120971981D01*
X151760611Y-121095769D01*
X151760610Y-121095772D01*
X151758719Y-121099800D01*
X151736309Y-121243724D01*
X151122426Y-121243724D01*
X151138554Y-121239327D01*
X151204026Y-121221477D01*
X151207817Y-121219149D01*
X151207820Y-121219148D01*
X151324362Y-121147592D01*
X151324365Y-121147589D01*
X151328154Y-121145263D01*
X151331137Y-121141967D01*
X151331141Y-121141964D01*
X151422914Y-121040574D01*
X151425901Y-121037274D01*
X151489410Y-120906191D01*
X151491193Y-120895597D01*
X151509619Y-120786069D01*
X151513576Y-120762552D01*
X151513729Y-120750000D01*
X151493080Y-120605813D01*
X151441293Y-120491914D01*
X151434636Y-120477273D01*
X151434635Y-120477271D01*
X151432792Y-120473218D01*
X151337713Y-120362873D01*
X151215485Y-120283648D01*
X151075934Y-120241914D01*
X151003107Y-120241469D01*
X150934732Y-120241051D01*
X150934731Y-120241051D01*
X150930279Y-120241024D01*
X150790229Y-120281051D01*
X150667042Y-120358776D01*
X150664099Y-120362108D01*
X150664097Y-120362110D01*
X150573569Y-120464614D01*
X150570622Y-120467951D01*
X150568730Y-120471981D01*
X150510611Y-120595769D01*
X150510610Y-120595772D01*
X150508719Y-120599800D01*
X150486309Y-120743724D01*
X143262830Y-120743724D01*
X143243080Y-120605813D01*
X143191293Y-120491914D01*
X143184636Y-120477273D01*
X143184635Y-120477271D01*
X143182792Y-120473218D01*
X143087713Y-120362873D01*
X142965485Y-120283648D01*
X142825934Y-120241914D01*
X142753107Y-120241469D01*
X142684732Y-120241051D01*
X142684731Y-120241051D01*
X142680279Y-120241024D01*
X142540229Y-120281051D01*
X142417042Y-120358776D01*
X142414099Y-120362108D01*
X142414097Y-120362110D01*
X142323569Y-120464614D01*
X142320622Y-120467951D01*
X142318730Y-120471981D01*
X142260611Y-120595769D01*
X142260610Y-120595772D01*
X142258719Y-120599800D01*
X142236309Y-120743724D01*
X140254500Y-120743724D01*
X140254500Y-119718724D01*
X145461309Y-119718724D01*
X145461886Y-119723137D01*
X145461886Y-119723139D01*
X145464692Y-119744596D01*
X145480195Y-119863152D01*
X145481988Y-119867227D01*
X145490003Y-119885441D01*
X145538859Y-119996474D01*
X145632583Y-120107973D01*
X145636288Y-120110439D01*
X145636290Y-120110441D01*
X145729265Y-120172329D01*
X145753834Y-120188684D01*
X145892864Y-120232121D01*
X145897314Y-120232203D01*
X145897317Y-120232203D01*
X146034052Y-120234709D01*
X146034055Y-120234709D01*
X146038498Y-120234790D01*
X146042789Y-120233620D01*
X146042790Y-120233620D01*
X146093770Y-120219721D01*
X146179026Y-120196477D01*
X146182817Y-120194149D01*
X146182820Y-120194148D01*
X146299362Y-120122592D01*
X146299365Y-120122589D01*
X146303154Y-120120263D01*
X146306137Y-120116967D01*
X146306141Y-120116964D01*
X146397914Y-120015574D01*
X146400901Y-120012274D01*
X146464410Y-119881191D01*
X146466760Y-119867227D01*
X146473711Y-119825906D01*
X146488576Y-119737552D01*
X146488729Y-119725000D01*
X146468080Y-119580813D01*
X146407792Y-119448218D01*
X146312713Y-119337873D01*
X146190485Y-119258648D01*
X146140582Y-119243724D01*
X156986309Y-119243724D01*
X156986886Y-119248137D01*
X156986886Y-119248139D01*
X156988577Y-119261069D01*
X157005195Y-119388152D01*
X157006988Y-119392227D01*
X157055473Y-119502415D01*
X157063859Y-119521474D01*
X157157583Y-119632973D01*
X157161288Y-119635439D01*
X157161290Y-119635441D01*
X157192463Y-119656191D01*
X157278834Y-119713684D01*
X157417864Y-119757121D01*
X157422314Y-119757203D01*
X157422317Y-119757203D01*
X157559052Y-119759709D01*
X157559055Y-119759709D01*
X157563498Y-119759790D01*
X157567789Y-119758620D01*
X157567790Y-119758620D01*
X157636353Y-119739927D01*
X157704026Y-119721477D01*
X157707818Y-119719149D01*
X157707822Y-119719147D01*
X157712125Y-119716505D01*
X157759365Y-119708983D01*
X157798088Y-119737068D01*
X157802032Y-119744596D01*
X157813859Y-119771474D01*
X157907583Y-119882973D01*
X157911288Y-119885439D01*
X157911290Y-119885441D01*
X158004265Y-119947329D01*
X158028834Y-119963684D01*
X158167864Y-120007121D01*
X158172314Y-120007203D01*
X158172317Y-120007203D01*
X158309052Y-120009709D01*
X158309055Y-120009709D01*
X158313498Y-120009790D01*
X158317789Y-120008620D01*
X158317790Y-120008620D01*
X158377283Y-119992400D01*
X158454026Y-119971477D01*
X158457817Y-119969149D01*
X158457820Y-119969148D01*
X158574362Y-119897592D01*
X158574365Y-119897589D01*
X158578154Y-119895263D01*
X158581137Y-119891967D01*
X158581141Y-119891964D01*
X158672914Y-119790574D01*
X158675901Y-119787274D01*
X158739410Y-119656191D01*
X158743890Y-119629566D01*
X158753103Y-119574800D01*
X158763576Y-119512552D01*
X158763729Y-119500000D01*
X158743080Y-119355813D01*
X158698322Y-119257374D01*
X158684636Y-119227273D01*
X158684635Y-119227271D01*
X158682792Y-119223218D01*
X158587713Y-119112873D01*
X158465485Y-119033648D01*
X158325934Y-118991914D01*
X158253106Y-118991469D01*
X158184732Y-118991051D01*
X158184731Y-118991051D01*
X158180279Y-118991024D01*
X158040229Y-119031051D01*
X158036462Y-119033428D01*
X158032399Y-119035245D01*
X158031685Y-119033648D01*
X157990627Y-119040706D01*
X157951561Y-119013100D01*
X157947522Y-119005615D01*
X157934636Y-118977273D01*
X157934635Y-118977272D01*
X157932792Y-118973218D01*
X157929825Y-118969774D01*
X157912700Y-118949900D01*
X157837713Y-118862873D01*
X157715485Y-118783648D01*
X157575934Y-118741914D01*
X157503106Y-118741469D01*
X157434732Y-118741051D01*
X157434731Y-118741051D01*
X157430279Y-118741024D01*
X157290229Y-118781051D01*
X157167042Y-118858776D01*
X157164099Y-118862108D01*
X157164097Y-118862110D01*
X157132761Y-118897592D01*
X157070622Y-118967951D01*
X157068730Y-118971981D01*
X157010611Y-119095769D01*
X157010610Y-119095772D01*
X157008719Y-119099800D01*
X156986309Y-119243724D01*
X146140582Y-119243724D01*
X146050934Y-119216914D01*
X145978106Y-119216469D01*
X145909732Y-119216051D01*
X145909731Y-119216051D01*
X145905279Y-119216024D01*
X145765229Y-119256051D01*
X145642042Y-119333776D01*
X145639099Y-119337108D01*
X145639097Y-119337110D01*
X145590420Y-119392227D01*
X145545622Y-119442951D01*
X145543730Y-119446981D01*
X145485611Y-119570769D01*
X145485610Y-119570772D01*
X145483719Y-119574800D01*
X145461309Y-119718724D01*
X140254500Y-119718724D01*
X140254500Y-118493724D01*
X161486309Y-118493724D01*
X161486886Y-118498137D01*
X161486886Y-118498139D01*
X161489405Y-118517400D01*
X161505195Y-118638152D01*
X161506988Y-118642227D01*
X161558718Y-118759790D01*
X161563859Y-118771474D01*
X161574092Y-118783648D01*
X161643523Y-118866246D01*
X161657583Y-118882973D01*
X161661288Y-118885439D01*
X161661290Y-118885441D01*
X161754265Y-118947329D01*
X161778834Y-118963684D01*
X161917864Y-119007121D01*
X161922314Y-119007203D01*
X161922317Y-119007203D01*
X162059052Y-119009709D01*
X162059055Y-119009709D01*
X162063498Y-119009790D01*
X162067789Y-119008620D01*
X162067790Y-119008620D01*
X162132330Y-118991024D01*
X162204026Y-118971477D01*
X162207817Y-118969149D01*
X162207820Y-118969148D01*
X162324362Y-118897592D01*
X162324365Y-118897589D01*
X162328154Y-118895263D01*
X162331137Y-118891967D01*
X162331141Y-118891964D01*
X162422914Y-118790574D01*
X162425901Y-118787274D01*
X162489410Y-118656191D01*
X162491760Y-118642227D01*
X162504020Y-118569350D01*
X162513576Y-118512552D01*
X162513729Y-118500000D01*
X162493080Y-118355813D01*
X162442116Y-118243724D01*
X162986309Y-118243724D01*
X162986886Y-118248137D01*
X162986886Y-118248139D01*
X162988771Y-118262552D01*
X163005195Y-118388152D01*
X163006988Y-118392227D01*
X163055473Y-118502415D01*
X163063859Y-118521474D01*
X163157583Y-118632973D01*
X163161288Y-118635439D01*
X163161290Y-118635441D01*
X163192463Y-118656191D01*
X163278834Y-118713684D01*
X163417864Y-118757121D01*
X163422314Y-118757203D01*
X163422317Y-118757203D01*
X163559052Y-118759709D01*
X163559055Y-118759709D01*
X163563498Y-118759790D01*
X163567789Y-118758620D01*
X163567790Y-118758620D01*
X163632330Y-118741024D01*
X163704026Y-118721477D01*
X163707817Y-118719149D01*
X163707820Y-118719148D01*
X163824362Y-118647592D01*
X163824365Y-118647589D01*
X163828154Y-118645263D01*
X163831137Y-118641967D01*
X163831141Y-118641964D01*
X163892889Y-118573745D01*
X163936118Y-118553264D01*
X163981168Y-118569350D01*
X164001198Y-118607584D01*
X164004617Y-118633735D01*
X164004618Y-118633738D01*
X164005195Y-118638152D01*
X164006988Y-118642227D01*
X164058718Y-118759790D01*
X164063859Y-118771474D01*
X164074092Y-118783648D01*
X164143523Y-118866246D01*
X164157583Y-118882973D01*
X164161288Y-118885439D01*
X164161290Y-118885441D01*
X164254265Y-118947329D01*
X164278834Y-118963684D01*
X164417864Y-119007121D01*
X164422314Y-119007203D01*
X164422317Y-119007203D01*
X164559052Y-119009709D01*
X164559055Y-119009709D01*
X164563498Y-119009790D01*
X164567789Y-119008620D01*
X164567790Y-119008620D01*
X164632330Y-118991024D01*
X164704026Y-118971477D01*
X164707817Y-118969149D01*
X164707820Y-118969148D01*
X164824362Y-118897592D01*
X164824365Y-118897589D01*
X164828154Y-118895263D01*
X164831137Y-118891967D01*
X164831141Y-118891964D01*
X164922914Y-118790574D01*
X164925901Y-118787274D01*
X164989410Y-118656191D01*
X164991760Y-118642227D01*
X165004020Y-118569350D01*
X165013576Y-118512552D01*
X165013729Y-118500000D01*
X164993080Y-118355813D01*
X164942116Y-118243724D01*
X164934636Y-118227273D01*
X164934635Y-118227271D01*
X164932792Y-118223218D01*
X164837713Y-118112873D01*
X164715485Y-118033648D01*
X164575934Y-117991914D01*
X164503107Y-117991469D01*
X164434732Y-117991051D01*
X164434731Y-117991051D01*
X164430279Y-117991024D01*
X164290229Y-118031051D01*
X164167042Y-118108776D01*
X164164099Y-118112108D01*
X164164097Y-118112110D01*
X164107257Y-118176469D01*
X164064281Y-118197476D01*
X164019038Y-118181942D01*
X163998542Y-118143955D01*
X163993712Y-118110222D01*
X163993711Y-118110218D01*
X163993080Y-118105813D01*
X163958531Y-118029828D01*
X163934636Y-117977273D01*
X163934635Y-117977271D01*
X163932792Y-117973218D01*
X163837713Y-117862873D01*
X163715485Y-117783648D01*
X163575934Y-117741914D01*
X163503106Y-117741469D01*
X163434732Y-117741051D01*
X163434731Y-117741051D01*
X163430279Y-117741024D01*
X163290229Y-117781051D01*
X163167042Y-117858776D01*
X163164099Y-117862108D01*
X163164097Y-117862110D01*
X163132761Y-117897592D01*
X163070622Y-117967951D01*
X163068730Y-117971981D01*
X163010611Y-118095769D01*
X163010610Y-118095772D01*
X163008719Y-118099800D01*
X162986309Y-118243724D01*
X162442116Y-118243724D01*
X162434636Y-118227273D01*
X162434635Y-118227271D01*
X162432792Y-118223218D01*
X162337713Y-118112873D01*
X162215485Y-118033648D01*
X162075934Y-117991914D01*
X162003107Y-117991469D01*
X161934732Y-117991051D01*
X161934731Y-117991051D01*
X161930279Y-117991024D01*
X161790229Y-118031051D01*
X161667042Y-118108776D01*
X161664099Y-118112108D01*
X161664097Y-118112110D01*
X161602424Y-118181942D01*
X161570622Y-118217951D01*
X161568730Y-118221981D01*
X161510611Y-118345769D01*
X161510610Y-118345772D01*
X161508719Y-118349800D01*
X161486309Y-118493724D01*
X140254500Y-118493724D01*
X140254500Y-116993724D01*
X141736309Y-116993724D01*
X141736886Y-116998137D01*
X141736886Y-116998139D01*
X141741030Y-117029828D01*
X141755195Y-117138152D01*
X141756988Y-117142227D01*
X141808718Y-117259790D01*
X141813859Y-117271474D01*
X141907583Y-117382973D01*
X141911288Y-117385439D01*
X141911290Y-117385441D01*
X142004265Y-117447329D01*
X142028834Y-117463684D01*
X142167864Y-117507121D01*
X142172314Y-117507203D01*
X142172317Y-117507203D01*
X142309052Y-117509709D01*
X142309055Y-117509709D01*
X142313498Y-117509790D01*
X142317789Y-117508620D01*
X142317790Y-117508620D01*
X142372426Y-117493724D01*
X144736309Y-117493724D01*
X144736886Y-117498137D01*
X144736886Y-117498139D01*
X144744262Y-117554541D01*
X144755195Y-117638152D01*
X144756988Y-117642227D01*
X144801414Y-117743190D01*
X144813859Y-117771474D01*
X144824092Y-117783648D01*
X144893523Y-117866246D01*
X144907583Y-117882973D01*
X144911288Y-117885439D01*
X144911290Y-117885441D01*
X145004265Y-117947329D01*
X145028834Y-117963684D01*
X145167864Y-118007121D01*
X145172314Y-118007203D01*
X145172317Y-118007203D01*
X145309052Y-118009709D01*
X145309055Y-118009709D01*
X145313498Y-118009790D01*
X145317789Y-118008620D01*
X145317790Y-118008620D01*
X145382330Y-117991024D01*
X145454026Y-117971477D01*
X145457817Y-117969149D01*
X145457820Y-117969148D01*
X145574362Y-117897592D01*
X145574365Y-117897589D01*
X145578154Y-117895263D01*
X145581137Y-117891967D01*
X145581141Y-117891964D01*
X145672914Y-117790574D01*
X145675901Y-117787274D01*
X145739410Y-117656191D01*
X145741760Y-117642227D01*
X145763176Y-117514927D01*
X145763576Y-117512552D01*
X145763729Y-117500000D01*
X145762830Y-117493724D01*
X149736309Y-117493724D01*
X149736886Y-117498137D01*
X149736886Y-117498139D01*
X149744262Y-117554541D01*
X149755195Y-117638152D01*
X149756988Y-117642227D01*
X149801414Y-117743190D01*
X149813859Y-117771474D01*
X149824092Y-117783648D01*
X149893523Y-117866246D01*
X149907583Y-117882973D01*
X149911288Y-117885439D01*
X149911290Y-117885441D01*
X150004265Y-117947329D01*
X150028834Y-117963684D01*
X150167864Y-118007121D01*
X150172314Y-118007203D01*
X150172317Y-118007203D01*
X150309052Y-118009709D01*
X150309055Y-118009709D01*
X150313498Y-118009790D01*
X150317789Y-118008620D01*
X150317790Y-118008620D01*
X150382330Y-117991024D01*
X150454026Y-117971477D01*
X150457817Y-117969149D01*
X150457820Y-117969148D01*
X150574362Y-117897592D01*
X150574365Y-117897589D01*
X150578154Y-117895263D01*
X150581137Y-117891967D01*
X150581141Y-117891964D01*
X150672914Y-117790574D01*
X150675901Y-117787274D01*
X150739410Y-117656191D01*
X150741760Y-117642227D01*
X150763176Y-117514927D01*
X150763576Y-117512552D01*
X150763729Y-117500000D01*
X150743080Y-117355813D01*
X150702881Y-117267400D01*
X150684636Y-117227273D01*
X150684635Y-117227271D01*
X150682792Y-117223218D01*
X150587713Y-117112873D01*
X150465485Y-117033648D01*
X150325934Y-116991914D01*
X150253106Y-116991469D01*
X150184732Y-116991051D01*
X150184731Y-116991051D01*
X150180279Y-116991024D01*
X150040229Y-117031051D01*
X149917042Y-117108776D01*
X149914099Y-117112108D01*
X149914097Y-117112110D01*
X149826571Y-117211215D01*
X149820622Y-117217951D01*
X149818730Y-117221981D01*
X149760611Y-117345769D01*
X149760610Y-117345772D01*
X149758719Y-117349800D01*
X149736309Y-117493724D01*
X145762830Y-117493724D01*
X145743080Y-117355813D01*
X145702881Y-117267400D01*
X145684636Y-117227273D01*
X145684635Y-117227271D01*
X145682792Y-117223218D01*
X145587713Y-117112873D01*
X145465485Y-117033648D01*
X145325934Y-116991914D01*
X145253106Y-116991469D01*
X145184732Y-116991051D01*
X145184731Y-116991051D01*
X145180279Y-116991024D01*
X145040229Y-117031051D01*
X144917042Y-117108776D01*
X144914099Y-117112108D01*
X144914097Y-117112110D01*
X144826571Y-117211215D01*
X144820622Y-117217951D01*
X144818730Y-117221981D01*
X144760611Y-117345769D01*
X144760610Y-117345772D01*
X144758719Y-117349800D01*
X144736309Y-117493724D01*
X142372426Y-117493724D01*
X142388554Y-117489327D01*
X142454026Y-117471477D01*
X142457817Y-117469149D01*
X142457820Y-117469148D01*
X142574362Y-117397592D01*
X142574365Y-117397589D01*
X142578154Y-117395263D01*
X142581137Y-117391967D01*
X142581141Y-117391964D01*
X142672914Y-117290574D01*
X142675901Y-117287274D01*
X142739410Y-117156191D01*
X142741760Y-117142227D01*
X142749997Y-117093262D01*
X142763576Y-117012552D01*
X142763729Y-117000000D01*
X142743080Y-116855813D01*
X142699580Y-116760141D01*
X142684636Y-116727273D01*
X142684635Y-116727271D01*
X142682792Y-116723218D01*
X142587713Y-116612873D01*
X142465485Y-116533648D01*
X142325934Y-116491914D01*
X142253107Y-116491469D01*
X142184732Y-116491051D01*
X142184731Y-116491051D01*
X142180279Y-116491024D01*
X142040229Y-116531051D01*
X141917042Y-116608776D01*
X141914099Y-116612108D01*
X141914097Y-116612110D01*
X141826571Y-116711215D01*
X141820622Y-116717951D01*
X141818730Y-116721981D01*
X141760611Y-116845769D01*
X141760610Y-116845772D01*
X141758719Y-116849800D01*
X141736309Y-116993724D01*
X140254500Y-116993724D01*
X140254500Y-116243724D01*
X149736309Y-116243724D01*
X149736886Y-116248137D01*
X149736886Y-116248139D01*
X149739405Y-116267400D01*
X149755195Y-116388152D01*
X149756988Y-116392227D01*
X149808718Y-116509790D01*
X149813859Y-116521474D01*
X149824092Y-116533648D01*
X149893523Y-116616246D01*
X149907583Y-116632973D01*
X149911288Y-116635439D01*
X149911290Y-116635441D01*
X149942463Y-116656191D01*
X150028834Y-116713684D01*
X150167864Y-116757121D01*
X150172314Y-116757203D01*
X150172317Y-116757203D01*
X150309052Y-116759709D01*
X150309055Y-116759709D01*
X150313498Y-116759790D01*
X150317789Y-116758620D01*
X150317790Y-116758620D01*
X150372426Y-116743724D01*
X152486309Y-116743724D01*
X152486886Y-116748137D01*
X152486886Y-116748139D01*
X152489405Y-116767400D01*
X152505195Y-116888152D01*
X152506988Y-116892227D01*
X152558718Y-117009790D01*
X152563859Y-117021474D01*
X152574092Y-117033648D01*
X152643523Y-117116246D01*
X152657583Y-117132973D01*
X152661288Y-117135439D01*
X152661290Y-117135441D01*
X152692463Y-117156191D01*
X152778834Y-117213684D01*
X152917864Y-117257121D01*
X152922314Y-117257203D01*
X152922317Y-117257203D01*
X153059052Y-117259709D01*
X153059055Y-117259709D01*
X153063498Y-117259790D01*
X153067789Y-117258620D01*
X153067790Y-117258620D01*
X153149605Y-117236314D01*
X153204026Y-117221477D01*
X153207817Y-117219149D01*
X153207820Y-117219148D01*
X153324362Y-117147592D01*
X153324365Y-117147589D01*
X153328154Y-117145263D01*
X153331137Y-117141967D01*
X153331141Y-117141964D01*
X153422914Y-117040574D01*
X153425901Y-117037274D01*
X153489410Y-116906191D01*
X153491760Y-116892227D01*
X153504497Y-116816516D01*
X153513576Y-116762552D01*
X153513729Y-116750000D01*
X153493080Y-116605813D01*
X153449580Y-116510141D01*
X153442116Y-116493724D01*
X154736309Y-116493724D01*
X154736886Y-116498137D01*
X154736886Y-116498139D01*
X154739405Y-116517400D01*
X154755195Y-116638152D01*
X154756988Y-116642227D01*
X154808718Y-116759790D01*
X154813859Y-116771474D01*
X154907583Y-116882973D01*
X154911288Y-116885439D01*
X154911290Y-116885441D01*
X154942463Y-116906191D01*
X155028834Y-116963684D01*
X155167864Y-117007121D01*
X155172314Y-117007203D01*
X155172317Y-117007203D01*
X155309052Y-117009709D01*
X155309055Y-117009709D01*
X155313498Y-117009790D01*
X155317789Y-117008620D01*
X155317790Y-117008620D01*
X155388554Y-116989327D01*
X155454026Y-116971477D01*
X155457817Y-116969149D01*
X155457820Y-116969148D01*
X155574362Y-116897592D01*
X155574365Y-116897589D01*
X155578154Y-116895263D01*
X155581137Y-116891967D01*
X155581141Y-116891964D01*
X155672914Y-116790574D01*
X155675901Y-116787274D01*
X155739410Y-116656191D01*
X155741760Y-116642227D01*
X155749575Y-116595769D01*
X155763576Y-116512552D01*
X155763729Y-116500000D01*
X155743080Y-116355813D01*
X155694123Y-116248139D01*
X155684636Y-116227273D01*
X155684635Y-116227271D01*
X155682792Y-116223218D01*
X155587713Y-116112873D01*
X155465485Y-116033648D01*
X155331986Y-115993724D01*
X158236309Y-115993724D01*
X158236886Y-115998137D01*
X158236886Y-115998139D01*
X158241030Y-116029828D01*
X158255195Y-116138152D01*
X158256988Y-116142227D01*
X158305473Y-116252415D01*
X158313859Y-116271474D01*
X158324092Y-116283648D01*
X158393523Y-116366246D01*
X158407583Y-116382973D01*
X158411288Y-116385439D01*
X158411290Y-116385441D01*
X158442463Y-116406191D01*
X158528834Y-116463684D01*
X158667864Y-116507121D01*
X158672314Y-116507203D01*
X158672317Y-116507203D01*
X158809052Y-116509709D01*
X158809055Y-116509709D01*
X158813498Y-116509790D01*
X158817789Y-116508620D01*
X158817790Y-116508620D01*
X158872426Y-116493724D01*
X161236309Y-116493724D01*
X161236886Y-116498137D01*
X161236886Y-116498139D01*
X161239405Y-116517400D01*
X161255195Y-116638152D01*
X161256988Y-116642227D01*
X161308718Y-116759790D01*
X161313859Y-116771474D01*
X161407583Y-116882973D01*
X161411288Y-116885439D01*
X161411290Y-116885441D01*
X161442463Y-116906191D01*
X161528834Y-116963684D01*
X161667864Y-117007121D01*
X161672314Y-117007203D01*
X161672317Y-117007203D01*
X161809052Y-117009709D01*
X161809055Y-117009709D01*
X161813498Y-117009790D01*
X161817789Y-117008620D01*
X161817790Y-117008620D01*
X161872426Y-116993724D01*
X163236309Y-116993724D01*
X163236886Y-116998137D01*
X163236886Y-116998139D01*
X163241030Y-117029828D01*
X163255195Y-117138152D01*
X163256988Y-117142227D01*
X163308718Y-117259790D01*
X163313859Y-117271474D01*
X163407583Y-117382973D01*
X163411288Y-117385439D01*
X163411290Y-117385441D01*
X163504265Y-117447329D01*
X163528834Y-117463684D01*
X163667864Y-117507121D01*
X163672314Y-117507203D01*
X163672317Y-117507203D01*
X163809052Y-117509709D01*
X163809055Y-117509709D01*
X163813498Y-117509790D01*
X163817789Y-117508620D01*
X163817790Y-117508620D01*
X163888554Y-117489327D01*
X163954026Y-117471477D01*
X163957817Y-117469149D01*
X163957820Y-117469148D01*
X164074362Y-117397592D01*
X164074365Y-117397589D01*
X164078154Y-117395263D01*
X164081137Y-117391967D01*
X164081141Y-117391964D01*
X164172914Y-117290574D01*
X164175901Y-117287274D01*
X164239410Y-117156191D01*
X164241760Y-117142227D01*
X164249997Y-117093262D01*
X164263576Y-117012552D01*
X164263729Y-117000000D01*
X164243080Y-116855813D01*
X164199580Y-116760141D01*
X164184636Y-116727273D01*
X164184635Y-116727271D01*
X164182792Y-116723218D01*
X164087713Y-116612873D01*
X163965485Y-116533648D01*
X163825934Y-116491914D01*
X163753107Y-116491469D01*
X163684732Y-116491051D01*
X163684731Y-116491051D01*
X163680279Y-116491024D01*
X163540229Y-116531051D01*
X163417042Y-116608776D01*
X163414099Y-116612108D01*
X163414097Y-116612110D01*
X163326571Y-116711215D01*
X163320622Y-116717951D01*
X163318730Y-116721981D01*
X163260611Y-116845769D01*
X163260610Y-116845772D01*
X163258719Y-116849800D01*
X163236309Y-116993724D01*
X161872426Y-116993724D01*
X161888554Y-116989327D01*
X161954026Y-116971477D01*
X161957817Y-116969149D01*
X161957820Y-116969148D01*
X162074362Y-116897592D01*
X162074365Y-116897589D01*
X162078154Y-116895263D01*
X162081137Y-116891967D01*
X162081141Y-116891964D01*
X162172914Y-116790574D01*
X162175901Y-116787274D01*
X162239410Y-116656191D01*
X162241760Y-116642227D01*
X162249575Y-116595769D01*
X162263576Y-116512552D01*
X162263729Y-116500000D01*
X162243080Y-116355813D01*
X162194123Y-116248139D01*
X162184636Y-116227273D01*
X162184635Y-116227271D01*
X162182792Y-116223218D01*
X162087713Y-116112873D01*
X161965485Y-116033648D01*
X161825934Y-115991914D01*
X161753107Y-115991469D01*
X161684732Y-115991051D01*
X161684731Y-115991051D01*
X161680279Y-115991024D01*
X161540229Y-116031051D01*
X161417042Y-116108776D01*
X161414099Y-116112108D01*
X161414097Y-116112110D01*
X161323569Y-116214614D01*
X161320622Y-116217951D01*
X161318730Y-116221981D01*
X161260611Y-116345769D01*
X161260610Y-116345772D01*
X161258719Y-116349800D01*
X161236309Y-116493724D01*
X158872426Y-116493724D01*
X158888554Y-116489327D01*
X158954026Y-116471477D01*
X158957817Y-116469149D01*
X158957820Y-116469148D01*
X159074362Y-116397592D01*
X159074365Y-116397589D01*
X159078154Y-116395263D01*
X159081137Y-116391967D01*
X159081141Y-116391964D01*
X159172914Y-116290574D01*
X159175901Y-116287274D01*
X159239410Y-116156191D01*
X159241760Y-116142227D01*
X159259619Y-116036069D01*
X159263576Y-116012552D01*
X159263729Y-116000000D01*
X159243080Y-115855813D01*
X159208531Y-115779828D01*
X159184636Y-115727273D01*
X159184635Y-115727271D01*
X159182792Y-115723218D01*
X159087713Y-115612873D01*
X158965485Y-115533648D01*
X158825934Y-115491914D01*
X158753106Y-115491469D01*
X158684732Y-115491051D01*
X158684731Y-115491051D01*
X158680279Y-115491024D01*
X158540229Y-115531051D01*
X158417042Y-115608776D01*
X158414099Y-115612108D01*
X158414097Y-115612110D01*
X158382761Y-115647592D01*
X158320622Y-115717951D01*
X158318730Y-115721981D01*
X158260611Y-115845769D01*
X158260610Y-115845772D01*
X158258719Y-115849800D01*
X158236309Y-115993724D01*
X155331986Y-115993724D01*
X155325934Y-115991914D01*
X155253107Y-115991469D01*
X155184732Y-115991051D01*
X155184731Y-115991051D01*
X155180279Y-115991024D01*
X155040229Y-116031051D01*
X154917042Y-116108776D01*
X154914099Y-116112108D01*
X154914097Y-116112110D01*
X154823569Y-116214614D01*
X154820622Y-116217951D01*
X154818730Y-116221981D01*
X154760611Y-116345769D01*
X154760610Y-116345772D01*
X154758719Y-116349800D01*
X154736309Y-116493724D01*
X153442116Y-116493724D01*
X153434636Y-116477273D01*
X153434635Y-116477271D01*
X153432792Y-116473218D01*
X153337713Y-116362873D01*
X153215485Y-116283648D01*
X153075934Y-116241914D01*
X153003107Y-116241469D01*
X152934732Y-116241051D01*
X152934731Y-116241051D01*
X152930279Y-116241024D01*
X152790229Y-116281051D01*
X152667042Y-116358776D01*
X152664099Y-116362108D01*
X152664097Y-116362110D01*
X152576571Y-116461215D01*
X152570622Y-116467951D01*
X152568730Y-116471981D01*
X152510611Y-116595769D01*
X152510610Y-116595772D01*
X152508719Y-116599800D01*
X152486309Y-116743724D01*
X150372426Y-116743724D01*
X150388554Y-116739327D01*
X150454026Y-116721477D01*
X150457817Y-116719149D01*
X150457820Y-116719148D01*
X150574362Y-116647592D01*
X150574365Y-116647589D01*
X150578154Y-116645263D01*
X150581137Y-116641967D01*
X150581141Y-116641964D01*
X150672914Y-116540574D01*
X150675901Y-116537274D01*
X150739410Y-116406191D01*
X150741760Y-116392227D01*
X150749575Y-116345769D01*
X150763576Y-116262552D01*
X150763729Y-116250000D01*
X150743080Y-116105813D01*
X150694123Y-115998139D01*
X150684636Y-115977273D01*
X150684635Y-115977271D01*
X150682792Y-115973218D01*
X150587713Y-115862873D01*
X150465485Y-115783648D01*
X150325934Y-115741914D01*
X150253107Y-115741469D01*
X150184732Y-115741051D01*
X150184731Y-115741051D01*
X150180279Y-115741024D01*
X150040229Y-115781051D01*
X149917042Y-115858776D01*
X149914099Y-115862108D01*
X149914097Y-115862110D01*
X149823569Y-115964614D01*
X149820622Y-115967951D01*
X149818730Y-115971981D01*
X149760611Y-116095769D01*
X149760610Y-116095772D01*
X149758719Y-116099800D01*
X149736309Y-116243724D01*
X140254500Y-116243724D01*
X140254500Y-115791087D01*
X140272806Y-115746893D01*
X140317000Y-115728587D01*
X140335637Y-115731431D01*
X140417864Y-115757121D01*
X140422314Y-115757203D01*
X140422317Y-115757203D01*
X140559052Y-115759709D01*
X140559055Y-115759709D01*
X140563498Y-115759790D01*
X140567789Y-115758620D01*
X140567790Y-115758620D01*
X140632330Y-115741024D01*
X140704026Y-115721477D01*
X140707817Y-115719149D01*
X140707820Y-115719148D01*
X140824362Y-115647592D01*
X140824365Y-115647589D01*
X140828154Y-115645263D01*
X140831137Y-115641967D01*
X140831141Y-115641964D01*
X140922914Y-115540574D01*
X140925901Y-115537274D01*
X140989410Y-115406191D01*
X140991760Y-115392227D01*
X141005585Y-115310048D01*
X141013576Y-115262552D01*
X141013729Y-115250000D01*
X141012830Y-115243724D01*
X141736309Y-115243724D01*
X141736886Y-115248137D01*
X141736886Y-115248139D01*
X141743361Y-115297650D01*
X141755195Y-115388152D01*
X141756988Y-115392227D01*
X141801414Y-115493190D01*
X141813859Y-115521474D01*
X141824092Y-115533648D01*
X141893523Y-115616246D01*
X141907583Y-115632973D01*
X141911288Y-115635439D01*
X141911290Y-115635441D01*
X142004265Y-115697329D01*
X142028834Y-115713684D01*
X142167864Y-115757121D01*
X142172314Y-115757203D01*
X142172317Y-115757203D01*
X142309052Y-115759709D01*
X142309055Y-115759709D01*
X142313498Y-115759790D01*
X142317789Y-115758620D01*
X142317790Y-115758620D01*
X142382330Y-115741024D01*
X142454026Y-115721477D01*
X142457817Y-115719149D01*
X142457820Y-115719148D01*
X142574362Y-115647592D01*
X142574365Y-115647589D01*
X142578154Y-115645263D01*
X142581137Y-115641967D01*
X142581141Y-115641964D01*
X142672914Y-115540574D01*
X142675901Y-115537274D01*
X142739410Y-115406191D01*
X142741760Y-115392227D01*
X142755585Y-115310048D01*
X142763576Y-115262552D01*
X142763729Y-115250000D01*
X142743080Y-115105813D01*
X142701831Y-115015092D01*
X142684636Y-114977273D01*
X142684635Y-114977271D01*
X142682792Y-114973218D01*
X142629878Y-114911808D01*
X148904393Y-114911808D01*
X148904970Y-114916221D01*
X148904970Y-114916223D01*
X148911298Y-114964614D01*
X148923279Y-115056236D01*
X148981943Y-115189558D01*
X149075667Y-115301057D01*
X149079372Y-115303523D01*
X149079374Y-115303525D01*
X149172349Y-115365413D01*
X149196918Y-115381768D01*
X149335948Y-115425205D01*
X149340398Y-115425287D01*
X149340401Y-115425287D01*
X149477136Y-115427793D01*
X149477139Y-115427793D01*
X149481582Y-115427874D01*
X149485873Y-115426704D01*
X149485874Y-115426704D01*
X149561113Y-115406191D01*
X149622110Y-115389561D01*
X149625901Y-115387233D01*
X149625904Y-115387232D01*
X149742446Y-115315676D01*
X149742449Y-115315673D01*
X149746238Y-115313347D01*
X149749221Y-115310051D01*
X149749225Y-115310048D01*
X149809258Y-115243724D01*
X160736309Y-115243724D01*
X160736886Y-115248137D01*
X160736886Y-115248139D01*
X160743361Y-115297650D01*
X160755195Y-115388152D01*
X160756988Y-115392227D01*
X160801414Y-115493190D01*
X160813859Y-115521474D01*
X160824092Y-115533648D01*
X160893523Y-115616246D01*
X160907583Y-115632973D01*
X160911288Y-115635439D01*
X160911290Y-115635441D01*
X161004265Y-115697329D01*
X161028834Y-115713684D01*
X161167864Y-115757121D01*
X161172314Y-115757203D01*
X161172317Y-115757203D01*
X161309052Y-115759709D01*
X161309055Y-115759709D01*
X161313498Y-115759790D01*
X161317789Y-115758620D01*
X161317790Y-115758620D01*
X161382330Y-115741024D01*
X161454026Y-115721477D01*
X161457817Y-115719149D01*
X161457820Y-115719148D01*
X161574362Y-115647592D01*
X161574365Y-115647589D01*
X161578154Y-115645263D01*
X161581137Y-115641967D01*
X161581141Y-115641964D01*
X161672914Y-115540574D01*
X161675901Y-115537274D01*
X161739410Y-115406191D01*
X161741760Y-115392227D01*
X161755585Y-115310048D01*
X161763576Y-115262552D01*
X161763729Y-115250000D01*
X161762830Y-115243724D01*
X162986309Y-115243724D01*
X162986886Y-115248137D01*
X162986886Y-115248139D01*
X162993361Y-115297650D01*
X163005195Y-115388152D01*
X163006988Y-115392227D01*
X163051414Y-115493190D01*
X163063859Y-115521474D01*
X163074092Y-115533648D01*
X163143523Y-115616246D01*
X163157583Y-115632973D01*
X163161288Y-115635439D01*
X163161290Y-115635441D01*
X163254265Y-115697329D01*
X163278834Y-115713684D01*
X163417864Y-115757121D01*
X163422314Y-115757203D01*
X163422317Y-115757203D01*
X163559052Y-115759709D01*
X163559055Y-115759709D01*
X163563498Y-115759790D01*
X163567789Y-115758620D01*
X163567790Y-115758620D01*
X163632330Y-115741024D01*
X163704026Y-115721477D01*
X163707817Y-115719149D01*
X163707820Y-115719148D01*
X163824362Y-115647592D01*
X163824365Y-115647589D01*
X163828154Y-115645263D01*
X163831137Y-115641967D01*
X163831141Y-115641964D01*
X163922914Y-115540574D01*
X163925901Y-115537274D01*
X163989410Y-115406191D01*
X163991760Y-115392227D01*
X164005585Y-115310048D01*
X164013576Y-115262552D01*
X164013729Y-115250000D01*
X163993080Y-115105813D01*
X163989462Y-115097856D01*
X163987834Y-115050049D01*
X164020487Y-115015092D01*
X164047502Y-115009497D01*
X164059052Y-115009709D01*
X164059055Y-115009709D01*
X164063498Y-115009790D01*
X164067789Y-115008620D01*
X164067790Y-115008620D01*
X164118770Y-114994721D01*
X164204026Y-114971477D01*
X164207817Y-114969149D01*
X164207820Y-114969148D01*
X164324362Y-114897592D01*
X164324365Y-114897589D01*
X164328154Y-114895263D01*
X164331137Y-114891967D01*
X164331141Y-114891964D01*
X164422914Y-114790574D01*
X164425901Y-114787274D01*
X164489410Y-114656191D01*
X164491760Y-114642227D01*
X164509912Y-114534330D01*
X164513576Y-114512552D01*
X164513729Y-114500000D01*
X164493080Y-114355813D01*
X164432792Y-114223218D01*
X164337713Y-114112873D01*
X164215485Y-114033648D01*
X164075934Y-113991914D01*
X164003106Y-113991469D01*
X163934732Y-113991051D01*
X163934731Y-113991051D01*
X163930279Y-113991024D01*
X163790229Y-114031051D01*
X163667042Y-114108776D01*
X163664099Y-114112108D01*
X163664097Y-114112110D01*
X163573569Y-114214614D01*
X163570622Y-114217951D01*
X163568730Y-114221981D01*
X163510611Y-114345769D01*
X163510610Y-114345772D01*
X163508719Y-114349800D01*
X163486309Y-114493724D01*
X163486886Y-114498137D01*
X163486886Y-114498139D01*
X163490642Y-114526860D01*
X163505195Y-114638152D01*
X163506988Y-114642227D01*
X163506989Y-114642230D01*
X163511948Y-114653501D01*
X163512991Y-114701325D01*
X163479912Y-114735879D01*
X163454359Y-114741171D01*
X163434732Y-114741051D01*
X163434731Y-114741051D01*
X163430279Y-114741024D01*
X163290229Y-114781051D01*
X163167042Y-114858776D01*
X163164099Y-114862108D01*
X163164097Y-114862110D01*
X163114663Y-114918084D01*
X163070622Y-114967951D01*
X163068730Y-114971981D01*
X163010611Y-115095769D01*
X163010610Y-115095772D01*
X163008719Y-115099800D01*
X162986309Y-115243724D01*
X161762830Y-115243724D01*
X161743080Y-115105813D01*
X161701831Y-115015092D01*
X161684636Y-114977273D01*
X161684635Y-114977271D01*
X161682792Y-114973218D01*
X161633380Y-114915872D01*
X161618400Y-114870443D01*
X161634391Y-114833133D01*
X161672914Y-114790574D01*
X161675901Y-114787274D01*
X161739410Y-114656191D01*
X161741760Y-114642227D01*
X161759912Y-114534330D01*
X161763576Y-114512552D01*
X161763729Y-114500000D01*
X161743080Y-114355813D01*
X161682792Y-114223218D01*
X161587713Y-114112873D01*
X161465485Y-114033648D01*
X161325934Y-113991914D01*
X161253106Y-113991469D01*
X161184732Y-113991051D01*
X161184731Y-113991051D01*
X161180279Y-113991024D01*
X161040229Y-114031051D01*
X160917042Y-114108776D01*
X160914099Y-114112108D01*
X160914097Y-114112110D01*
X160823569Y-114214614D01*
X160820622Y-114217951D01*
X160818730Y-114221981D01*
X160760611Y-114345769D01*
X160760610Y-114345772D01*
X160758719Y-114349800D01*
X160736309Y-114493724D01*
X160736886Y-114498137D01*
X160736886Y-114498139D01*
X160740642Y-114526860D01*
X160755195Y-114638152D01*
X160756988Y-114642227D01*
X160810506Y-114763853D01*
X160813859Y-114771474D01*
X160826128Y-114786069D01*
X160867123Y-114834839D01*
X160881547Y-114880448D01*
X160866126Y-114916427D01*
X160820622Y-114967951D01*
X160818730Y-114971981D01*
X160760611Y-115095769D01*
X160760610Y-115095772D01*
X160758719Y-115099800D01*
X160736309Y-115243724D01*
X149809258Y-115243724D01*
X149840998Y-115208658D01*
X149843985Y-115205358D01*
X149907494Y-115074275D01*
X149909844Y-115060311D01*
X149925064Y-114969843D01*
X149931660Y-114930636D01*
X149931813Y-114918084D01*
X149911164Y-114773897D01*
X149850876Y-114641302D01*
X149755797Y-114530957D01*
X149698354Y-114493724D01*
X149986309Y-114493724D01*
X149986886Y-114498137D01*
X149986886Y-114498139D01*
X149990642Y-114526860D01*
X150005195Y-114638152D01*
X150006988Y-114642227D01*
X150060506Y-114763853D01*
X150063859Y-114771474D01*
X150110721Y-114827223D01*
X150151775Y-114876063D01*
X150157583Y-114882973D01*
X150161288Y-114885439D01*
X150161290Y-114885441D01*
X150213958Y-114920499D01*
X150278834Y-114963684D01*
X150417864Y-115007121D01*
X150422314Y-115007203D01*
X150422317Y-115007203D01*
X150559052Y-115009709D01*
X150559055Y-115009709D01*
X150563498Y-115009790D01*
X150567789Y-115008620D01*
X150567790Y-115008620D01*
X150618770Y-114994721D01*
X150704026Y-114971477D01*
X150707817Y-114969149D01*
X150707820Y-114969148D01*
X150824362Y-114897592D01*
X150824365Y-114897589D01*
X150828154Y-114895263D01*
X150831137Y-114891967D01*
X150831141Y-114891964D01*
X150922914Y-114790574D01*
X150925901Y-114787274D01*
X150989410Y-114656191D01*
X150991760Y-114642227D01*
X151009912Y-114534330D01*
X151013576Y-114512552D01*
X151013729Y-114500000D01*
X150993080Y-114355813D01*
X150932792Y-114223218D01*
X150837713Y-114112873D01*
X150715485Y-114033648D01*
X150581986Y-113993724D01*
X152986309Y-113993724D01*
X152986886Y-113998137D01*
X152986886Y-113998139D01*
X152991030Y-114029828D01*
X153005195Y-114138152D01*
X153006988Y-114142227D01*
X153042626Y-114223218D01*
X153063859Y-114271474D01*
X153157583Y-114382973D01*
X153161288Y-114385439D01*
X153161290Y-114385441D01*
X153198182Y-114409998D01*
X153278834Y-114463684D01*
X153417864Y-114507121D01*
X153422314Y-114507203D01*
X153422317Y-114507203D01*
X153559052Y-114509709D01*
X153559055Y-114509709D01*
X153563498Y-114509790D01*
X153567789Y-114508620D01*
X153567790Y-114508620D01*
X153638554Y-114489327D01*
X153704026Y-114471477D01*
X153707817Y-114469149D01*
X153707820Y-114469148D01*
X153824362Y-114397592D01*
X153824365Y-114397589D01*
X153828154Y-114395263D01*
X153831137Y-114391967D01*
X153831141Y-114391964D01*
X153922914Y-114290574D01*
X153925901Y-114287274D01*
X153989410Y-114156191D01*
X153991760Y-114142227D01*
X154009619Y-114036069D01*
X154013576Y-114012552D01*
X154013729Y-114000000D01*
X154012830Y-113993724D01*
X155486309Y-113993724D01*
X155486886Y-113998137D01*
X155486886Y-113998139D01*
X155491030Y-114029828D01*
X155505195Y-114138152D01*
X155506988Y-114142227D01*
X155542626Y-114223218D01*
X155563859Y-114271474D01*
X155657583Y-114382973D01*
X155661288Y-114385439D01*
X155661290Y-114385441D01*
X155698182Y-114409998D01*
X155778834Y-114463684D01*
X155917864Y-114507121D01*
X155922314Y-114507203D01*
X155922317Y-114507203D01*
X156059052Y-114509709D01*
X156059055Y-114509709D01*
X156063498Y-114509790D01*
X156067789Y-114508620D01*
X156067790Y-114508620D01*
X156138554Y-114489327D01*
X156204026Y-114471477D01*
X156207817Y-114469149D01*
X156207820Y-114469148D01*
X156324362Y-114397592D01*
X156324365Y-114397589D01*
X156328154Y-114395263D01*
X156331137Y-114391967D01*
X156331141Y-114391964D01*
X156422914Y-114290574D01*
X156425901Y-114287274D01*
X156489410Y-114156191D01*
X156491760Y-114142227D01*
X156509619Y-114036069D01*
X156513576Y-114012552D01*
X156513729Y-114000000D01*
X156493080Y-113855813D01*
X156432792Y-113723218D01*
X156337713Y-113612873D01*
X156215485Y-113533648D01*
X156075934Y-113491914D01*
X156003106Y-113491469D01*
X155934732Y-113491051D01*
X155934731Y-113491051D01*
X155930279Y-113491024D01*
X155790229Y-113531051D01*
X155667042Y-113608776D01*
X155664099Y-113612108D01*
X155664097Y-113612110D01*
X155573569Y-113714614D01*
X155570622Y-113717951D01*
X155568730Y-113721981D01*
X155510611Y-113845769D01*
X155510610Y-113845772D01*
X155508719Y-113849800D01*
X155486309Y-113993724D01*
X154012830Y-113993724D01*
X153993080Y-113855813D01*
X153932792Y-113723218D01*
X153837713Y-113612873D01*
X153715485Y-113533648D01*
X153575934Y-113491914D01*
X153503106Y-113491469D01*
X153434732Y-113491051D01*
X153434731Y-113491051D01*
X153430279Y-113491024D01*
X153290229Y-113531051D01*
X153167042Y-113608776D01*
X153164099Y-113612108D01*
X153164097Y-113612110D01*
X153073569Y-113714614D01*
X153070622Y-113717951D01*
X153068730Y-113721981D01*
X153010611Y-113845769D01*
X153010610Y-113845772D01*
X153008719Y-113849800D01*
X152986309Y-113993724D01*
X150581986Y-113993724D01*
X150575934Y-113991914D01*
X150503106Y-113991469D01*
X150434732Y-113991051D01*
X150434731Y-113991051D01*
X150430279Y-113991024D01*
X150290229Y-114031051D01*
X150167042Y-114108776D01*
X150164099Y-114112108D01*
X150164097Y-114112110D01*
X150073569Y-114214614D01*
X150070622Y-114217951D01*
X150068730Y-114221981D01*
X150010611Y-114345769D01*
X150010610Y-114345772D01*
X150008719Y-114349800D01*
X149986309Y-114493724D01*
X149698354Y-114493724D01*
X149633569Y-114451732D01*
X149494018Y-114409998D01*
X149421190Y-114409553D01*
X149352816Y-114409135D01*
X149352815Y-114409135D01*
X149348363Y-114409108D01*
X149208313Y-114449135D01*
X149085126Y-114526860D01*
X149082183Y-114530192D01*
X149082181Y-114530194D01*
X148991653Y-114632698D01*
X148988706Y-114636035D01*
X148984329Y-114645357D01*
X148928695Y-114763853D01*
X148928694Y-114763856D01*
X148926803Y-114767884D01*
X148904393Y-114911808D01*
X142629878Y-114911808D01*
X142587713Y-114862873D01*
X142465485Y-114783648D01*
X142325934Y-114741914D01*
X142253107Y-114741469D01*
X142184732Y-114741051D01*
X142184731Y-114741051D01*
X142180279Y-114741024D01*
X142040229Y-114781051D01*
X141917042Y-114858776D01*
X141914099Y-114862108D01*
X141914097Y-114862110D01*
X141864663Y-114918084D01*
X141820622Y-114967951D01*
X141818730Y-114971981D01*
X141760611Y-115095769D01*
X141760610Y-115095772D01*
X141758719Y-115099800D01*
X141736309Y-115243724D01*
X141012830Y-115243724D01*
X140993080Y-115105813D01*
X140951831Y-115015092D01*
X140934636Y-114977273D01*
X140934635Y-114977271D01*
X140932792Y-114973218D01*
X140837713Y-114862873D01*
X140715485Y-114783648D01*
X140575934Y-114741914D01*
X140503107Y-114741469D01*
X140434732Y-114741051D01*
X140434731Y-114741051D01*
X140430279Y-114741024D01*
X140334175Y-114768491D01*
X140286652Y-114763034D01*
X140256906Y-114725572D01*
X140254500Y-114708397D01*
X140254500Y-112993724D01*
X145986309Y-112993724D01*
X145986886Y-112998137D01*
X145986886Y-112998139D01*
X145989405Y-113017400D01*
X146005195Y-113138152D01*
X146006988Y-113142227D01*
X146058718Y-113259790D01*
X146063859Y-113271474D01*
X146157583Y-113382973D01*
X146161288Y-113385439D01*
X146161290Y-113385441D01*
X146254265Y-113447329D01*
X146278834Y-113463684D01*
X146417864Y-113507121D01*
X146422314Y-113507203D01*
X146422317Y-113507203D01*
X146559052Y-113509709D01*
X146559055Y-113509709D01*
X146563498Y-113509790D01*
X146567789Y-113508620D01*
X146567790Y-113508620D01*
X146632330Y-113491024D01*
X146704026Y-113471477D01*
X146707817Y-113469149D01*
X146707820Y-113469148D01*
X146824362Y-113397592D01*
X146824365Y-113397589D01*
X146828154Y-113395263D01*
X146831137Y-113391967D01*
X146831141Y-113391964D01*
X146922914Y-113290574D01*
X146925901Y-113287274D01*
X146989410Y-113156191D01*
X146991760Y-113142227D01*
X146998711Y-113100906D01*
X147013576Y-113012552D01*
X147013729Y-113000000D01*
X146993080Y-112855813D01*
X146944123Y-112748139D01*
X146942116Y-112743724D01*
X161236309Y-112743724D01*
X161236886Y-112748137D01*
X161236886Y-112748139D01*
X161244262Y-112804541D01*
X161255195Y-112888152D01*
X161256988Y-112892227D01*
X161305473Y-113002415D01*
X161313859Y-113021474D01*
X161407583Y-113132973D01*
X161411288Y-113135439D01*
X161411290Y-113135441D01*
X161442463Y-113156191D01*
X161528834Y-113213684D01*
X161667864Y-113257121D01*
X161672314Y-113257203D01*
X161672317Y-113257203D01*
X161809052Y-113259709D01*
X161809055Y-113259709D01*
X161813498Y-113259790D01*
X161817789Y-113258620D01*
X161817790Y-113258620D01*
X161868770Y-113244721D01*
X161954026Y-113221477D01*
X161957817Y-113219149D01*
X161957820Y-113219148D01*
X162074362Y-113147592D01*
X162074365Y-113147589D01*
X162078154Y-113145263D01*
X162081137Y-113141967D01*
X162081141Y-113141964D01*
X162172914Y-113040574D01*
X162175901Y-113037274D01*
X162239410Y-112906191D01*
X162241760Y-112892227D01*
X162263176Y-112764927D01*
X162263576Y-112762552D01*
X162263729Y-112750000D01*
X162243080Y-112605813D01*
X162208531Y-112529828D01*
X162184636Y-112477273D01*
X162184635Y-112477271D01*
X162182792Y-112473218D01*
X162087713Y-112362873D01*
X161965485Y-112283648D01*
X161825934Y-112241914D01*
X161753107Y-112241469D01*
X161684732Y-112241051D01*
X161684731Y-112241051D01*
X161680279Y-112241024D01*
X161540229Y-112281051D01*
X161417042Y-112358776D01*
X161414099Y-112362108D01*
X161414097Y-112362110D01*
X161382761Y-112397592D01*
X161320622Y-112467951D01*
X161318730Y-112471981D01*
X161260611Y-112595769D01*
X161260610Y-112595772D01*
X161258719Y-112599800D01*
X161236309Y-112743724D01*
X146942116Y-112743724D01*
X146934636Y-112727273D01*
X146934635Y-112727271D01*
X146932792Y-112723218D01*
X146837713Y-112612873D01*
X146715485Y-112533648D01*
X146575934Y-112491914D01*
X146503106Y-112491469D01*
X146434732Y-112491051D01*
X146434731Y-112491051D01*
X146430279Y-112491024D01*
X146290229Y-112531051D01*
X146167042Y-112608776D01*
X146164099Y-112612108D01*
X146164097Y-112612110D01*
X146073569Y-112714614D01*
X146070622Y-112717951D01*
X146068730Y-112721981D01*
X146010611Y-112845769D01*
X146010610Y-112845772D01*
X146008719Y-112849800D01*
X145986309Y-112993724D01*
X140254500Y-112993724D01*
X140254500Y-111993724D01*
X150986309Y-111993724D01*
X150986886Y-111998137D01*
X150986886Y-111998139D01*
X150994262Y-112054541D01*
X151005195Y-112138152D01*
X151006988Y-112142227D01*
X151051414Y-112243190D01*
X151063859Y-112271474D01*
X151074092Y-112283648D01*
X151143523Y-112366246D01*
X151157583Y-112382973D01*
X151161288Y-112385439D01*
X151161290Y-112385441D01*
X151254265Y-112447329D01*
X151278834Y-112463684D01*
X151417864Y-112507121D01*
X151422314Y-112507203D01*
X151422317Y-112507203D01*
X151559052Y-112509709D01*
X151559055Y-112509709D01*
X151563498Y-112509790D01*
X151567789Y-112508620D01*
X151567790Y-112508620D01*
X151632330Y-112491024D01*
X151704026Y-112471477D01*
X151707817Y-112469149D01*
X151707820Y-112469148D01*
X151824362Y-112397592D01*
X151824365Y-112397589D01*
X151828154Y-112395263D01*
X151831137Y-112391967D01*
X151831141Y-112391964D01*
X151922914Y-112290574D01*
X151925901Y-112287274D01*
X151989410Y-112156191D01*
X151991760Y-112142227D01*
X152013176Y-112014927D01*
X152013576Y-112012552D01*
X152013729Y-112000000D01*
X151993080Y-111855813D01*
X151953621Y-111769029D01*
X151934636Y-111727273D01*
X151934635Y-111727271D01*
X151932792Y-111723218D01*
X151837713Y-111612873D01*
X151715485Y-111533648D01*
X151575934Y-111491914D01*
X151503106Y-111491469D01*
X151434732Y-111491051D01*
X151434731Y-111491051D01*
X151430279Y-111491024D01*
X151290229Y-111531051D01*
X151167042Y-111608776D01*
X151164099Y-111612108D01*
X151164097Y-111612110D01*
X151132761Y-111647592D01*
X151070622Y-111717951D01*
X151068730Y-111721981D01*
X151010611Y-111845769D01*
X151010610Y-111845772D01*
X151008719Y-111849800D01*
X150986309Y-111993724D01*
X140254500Y-111993724D01*
X140254500Y-110243724D01*
X141486309Y-110243724D01*
X141486886Y-110248137D01*
X141486886Y-110248139D01*
X141491030Y-110279828D01*
X141505195Y-110388152D01*
X141506988Y-110392227D01*
X141555473Y-110502415D01*
X141563859Y-110521474D01*
X141657583Y-110632973D01*
X141661288Y-110635439D01*
X141661290Y-110635441D01*
X141722533Y-110676207D01*
X141778834Y-110713684D01*
X141847744Y-110735213D01*
X141897167Y-110750655D01*
X141933892Y-110781307D01*
X141938185Y-110828949D01*
X141919479Y-110857238D01*
X141917042Y-110858776D01*
X141914097Y-110862110D01*
X141914094Y-110862113D01*
X141826571Y-110961215D01*
X141820622Y-110967951D01*
X141818730Y-110971981D01*
X141760611Y-111095769D01*
X141760610Y-111095772D01*
X141758719Y-111099800D01*
X141736309Y-111243724D01*
X141736886Y-111248137D01*
X141736886Y-111248139D01*
X141744262Y-111304541D01*
X141755195Y-111388152D01*
X141756988Y-111392227D01*
X141808399Y-111509065D01*
X141813859Y-111521474D01*
X141856022Y-111571633D01*
X141893523Y-111616246D01*
X141907583Y-111632973D01*
X141911288Y-111635439D01*
X141911290Y-111635441D01*
X142004265Y-111697329D01*
X142028834Y-111713684D01*
X142167864Y-111757121D01*
X142172314Y-111757203D01*
X142172317Y-111757203D01*
X142309052Y-111759709D01*
X142309055Y-111759709D01*
X142313498Y-111759790D01*
X142317789Y-111758620D01*
X142317790Y-111758620D01*
X142371553Y-111743962D01*
X142454026Y-111721477D01*
X142457817Y-111719149D01*
X142457820Y-111719148D01*
X142574362Y-111647592D01*
X142574365Y-111647589D01*
X142578154Y-111645263D01*
X142581137Y-111641967D01*
X142581141Y-111641964D01*
X142672914Y-111540574D01*
X142675901Y-111537274D01*
X142739410Y-111406191D01*
X142741760Y-111392227D01*
X142763176Y-111264927D01*
X142763576Y-111262552D01*
X142763729Y-111250000D01*
X142743080Y-111105813D01*
X142702881Y-111017400D01*
X142684636Y-110977273D01*
X142684635Y-110977271D01*
X142682792Y-110973218D01*
X142587713Y-110862873D01*
X142465485Y-110783648D01*
X142424778Y-110771474D01*
X142353046Y-110750022D01*
X142315949Y-110719821D01*
X142311073Y-110672235D01*
X142328626Y-110645690D01*
X142328154Y-110645263D01*
X142330955Y-110642169D01*
X142330956Y-110642167D01*
X142425901Y-110537274D01*
X142447001Y-110493724D01*
X142986309Y-110493724D01*
X142986886Y-110498137D01*
X142986886Y-110498139D01*
X142989405Y-110517400D01*
X143005195Y-110638152D01*
X143006988Y-110642227D01*
X143061623Y-110766392D01*
X143063859Y-110771474D01*
X143073772Y-110783267D01*
X143143523Y-110866246D01*
X143157583Y-110882973D01*
X143161288Y-110885439D01*
X143161290Y-110885441D01*
X143192463Y-110906191D01*
X143278834Y-110963684D01*
X143417864Y-111007121D01*
X143422314Y-111007203D01*
X143422317Y-111007203D01*
X143559052Y-111009709D01*
X143559055Y-111009709D01*
X143563498Y-111009790D01*
X143567789Y-111008620D01*
X143567790Y-111008620D01*
X143618770Y-110994721D01*
X143704026Y-110971477D01*
X143707817Y-110969149D01*
X143707820Y-110969148D01*
X143824362Y-110897592D01*
X143824365Y-110897589D01*
X143828154Y-110895263D01*
X143831137Y-110891967D01*
X143831141Y-110891964D01*
X143922914Y-110790574D01*
X143925901Y-110787274D01*
X143947001Y-110743724D01*
X154486309Y-110743724D01*
X154486886Y-110748137D01*
X154486886Y-110748139D01*
X154491363Y-110782373D01*
X154505195Y-110888152D01*
X154506988Y-110892227D01*
X154558718Y-111009790D01*
X154563859Y-111021474D01*
X154657583Y-111132973D01*
X154661288Y-111135439D01*
X154661290Y-111135441D01*
X154739830Y-111187721D01*
X154778834Y-111213684D01*
X154917864Y-111257121D01*
X154922314Y-111257203D01*
X154922317Y-111257203D01*
X155059052Y-111259709D01*
X155059055Y-111259709D01*
X155063498Y-111259790D01*
X155067789Y-111258620D01*
X155067790Y-111258620D01*
X155138554Y-111239327D01*
X155204026Y-111221477D01*
X155207817Y-111219149D01*
X155207820Y-111219148D01*
X155324362Y-111147592D01*
X155324365Y-111147589D01*
X155328154Y-111145263D01*
X155331137Y-111141967D01*
X155331141Y-111141964D01*
X155422914Y-111040574D01*
X155425901Y-111037274D01*
X155489410Y-110906191D01*
X155491760Y-110892227D01*
X155502405Y-110828949D01*
X155513576Y-110762552D01*
X155513729Y-110750000D01*
X155512830Y-110743724D01*
X156236309Y-110743724D01*
X156236886Y-110748137D01*
X156236886Y-110748139D01*
X156241363Y-110782373D01*
X156255195Y-110888152D01*
X156256988Y-110892227D01*
X156308718Y-111009790D01*
X156313859Y-111021474D01*
X156407583Y-111132973D01*
X156411288Y-111135439D01*
X156411290Y-111135441D01*
X156489830Y-111187721D01*
X156528834Y-111213684D01*
X156667864Y-111257121D01*
X156672314Y-111257203D01*
X156672317Y-111257203D01*
X156809052Y-111259709D01*
X156809055Y-111259709D01*
X156813498Y-111259790D01*
X156817789Y-111258620D01*
X156817790Y-111258620D01*
X156872426Y-111243724D01*
X161236309Y-111243724D01*
X161236886Y-111248137D01*
X161236886Y-111248139D01*
X161244262Y-111304541D01*
X161255195Y-111388152D01*
X161256988Y-111392227D01*
X161308399Y-111509065D01*
X161313859Y-111521474D01*
X161356022Y-111571633D01*
X161393523Y-111616246D01*
X161407583Y-111632973D01*
X161411288Y-111635439D01*
X161411290Y-111635441D01*
X161504265Y-111697329D01*
X161528834Y-111713684D01*
X161667864Y-111757121D01*
X161672314Y-111757203D01*
X161672317Y-111757203D01*
X161809052Y-111759709D01*
X161809055Y-111759709D01*
X161813498Y-111759790D01*
X161817789Y-111758620D01*
X161817790Y-111758620D01*
X161871553Y-111743962D01*
X161954026Y-111721477D01*
X161957817Y-111719149D01*
X161957820Y-111719148D01*
X162074362Y-111647592D01*
X162074365Y-111647589D01*
X162078154Y-111645263D01*
X162081137Y-111641967D01*
X162081141Y-111641964D01*
X162172914Y-111540574D01*
X162175901Y-111537274D01*
X162239410Y-111406191D01*
X162241760Y-111392227D01*
X162263176Y-111264927D01*
X162263576Y-111262552D01*
X162263729Y-111250000D01*
X162254810Y-111187721D01*
X162266666Y-111141378D01*
X162283976Y-111125600D01*
X162358115Y-111080079D01*
X162358123Y-111080073D01*
X162361912Y-111077746D01*
X162395559Y-111040574D01*
X162456672Y-110973057D01*
X162459659Y-110969757D01*
X162511812Y-110862113D01*
X162521226Y-110842683D01*
X162521227Y-110842681D01*
X162523168Y-110838674D01*
X162528508Y-110806937D01*
X162553893Y-110766392D01*
X162573702Y-110757008D01*
X162599326Y-110750022D01*
X162622426Y-110743724D01*
X163736309Y-110743724D01*
X163736886Y-110748137D01*
X163736886Y-110748139D01*
X163741363Y-110782373D01*
X163755195Y-110888152D01*
X163756988Y-110892227D01*
X163808718Y-111009790D01*
X163813859Y-111021474D01*
X163907583Y-111132973D01*
X163911288Y-111135439D01*
X163911290Y-111135441D01*
X163989830Y-111187721D01*
X164028834Y-111213684D01*
X164167864Y-111257121D01*
X164172314Y-111257203D01*
X164172317Y-111257203D01*
X164309052Y-111259709D01*
X164309055Y-111259709D01*
X164313498Y-111259790D01*
X164317789Y-111258620D01*
X164317790Y-111258620D01*
X164388554Y-111239327D01*
X164454026Y-111221477D01*
X164457817Y-111219149D01*
X164457820Y-111219148D01*
X164574362Y-111147592D01*
X164574365Y-111147589D01*
X164578154Y-111145263D01*
X164581137Y-111141967D01*
X164581141Y-111141964D01*
X164672914Y-111040574D01*
X164675901Y-111037274D01*
X164739410Y-110906191D01*
X164741760Y-110892227D01*
X164752405Y-110828949D01*
X164763576Y-110762552D01*
X164763729Y-110750000D01*
X164743080Y-110605813D01*
X164694123Y-110498139D01*
X164684636Y-110477273D01*
X164684635Y-110477271D01*
X164682792Y-110473218D01*
X164587713Y-110362873D01*
X164465485Y-110283648D01*
X164325934Y-110241914D01*
X164253107Y-110241469D01*
X164184732Y-110241051D01*
X164184731Y-110241051D01*
X164180279Y-110241024D01*
X164040229Y-110281051D01*
X163917042Y-110358776D01*
X163914099Y-110362108D01*
X163914097Y-110362110D01*
X163823569Y-110464614D01*
X163820622Y-110467951D01*
X163818730Y-110471981D01*
X163760611Y-110595769D01*
X163760610Y-110595772D01*
X163758719Y-110599800D01*
X163736309Y-110743724D01*
X162622426Y-110743724D01*
X162704026Y-110721477D01*
X162707817Y-110719149D01*
X162707820Y-110719148D01*
X162824362Y-110647592D01*
X162824365Y-110647589D01*
X162828154Y-110645263D01*
X162831137Y-110641967D01*
X162831141Y-110641964D01*
X162922914Y-110540574D01*
X162925901Y-110537274D01*
X162989410Y-110406191D01*
X162991760Y-110392227D01*
X163008746Y-110291259D01*
X163013576Y-110262552D01*
X163013729Y-110250000D01*
X162993080Y-110105813D01*
X162941293Y-109991914D01*
X162934636Y-109977273D01*
X162934635Y-109977271D01*
X162932792Y-109973218D01*
X162837713Y-109862873D01*
X162715485Y-109783648D01*
X162575934Y-109741914D01*
X162503106Y-109741469D01*
X162434732Y-109741051D01*
X162434731Y-109741051D01*
X162430279Y-109741024D01*
X162290229Y-109781051D01*
X162167042Y-109858776D01*
X162164099Y-109862108D01*
X162164097Y-109862110D01*
X162090623Y-109945304D01*
X162070622Y-109967951D01*
X162068730Y-109971981D01*
X162010611Y-110095769D01*
X162010610Y-110095772D01*
X162008719Y-110099800D01*
X162008034Y-110104199D01*
X162004938Y-110124082D01*
X161980050Y-110164933D01*
X161960358Y-110174558D01*
X161823987Y-110213534D01*
X161700800Y-110291259D01*
X161697857Y-110294591D01*
X161697855Y-110294593D01*
X161634574Y-110366246D01*
X161604380Y-110400434D01*
X161602488Y-110404464D01*
X161544369Y-110528252D01*
X161544368Y-110528255D01*
X161542477Y-110532283D01*
X161520067Y-110676207D01*
X161520644Y-110680620D01*
X161520644Y-110680621D01*
X161529086Y-110745178D01*
X161516665Y-110791373D01*
X161500465Y-110806140D01*
X161464315Y-110828949D01*
X161417042Y-110858776D01*
X161414099Y-110862108D01*
X161414097Y-110862110D01*
X161326571Y-110961215D01*
X161320622Y-110967951D01*
X161318730Y-110971981D01*
X161260611Y-111095769D01*
X161260610Y-111095772D01*
X161258719Y-111099800D01*
X161236309Y-111243724D01*
X156872426Y-111243724D01*
X156888554Y-111239327D01*
X156954026Y-111221477D01*
X156957817Y-111219149D01*
X156957820Y-111219148D01*
X157074362Y-111147592D01*
X157074365Y-111147589D01*
X157078154Y-111145263D01*
X157081137Y-111141967D01*
X157081141Y-111141964D01*
X157172914Y-111040574D01*
X157175901Y-111037274D01*
X157239410Y-110906191D01*
X157241760Y-110892227D01*
X157252405Y-110828949D01*
X157263576Y-110762552D01*
X157263729Y-110750000D01*
X157243080Y-110605813D01*
X157194123Y-110498139D01*
X157184636Y-110477273D01*
X157184635Y-110477271D01*
X157182792Y-110473218D01*
X157087713Y-110362873D01*
X156965485Y-110283648D01*
X156825934Y-110241914D01*
X156753107Y-110241469D01*
X156684732Y-110241051D01*
X156684731Y-110241051D01*
X156680279Y-110241024D01*
X156540229Y-110281051D01*
X156417042Y-110358776D01*
X156414099Y-110362108D01*
X156414097Y-110362110D01*
X156323569Y-110464614D01*
X156320622Y-110467951D01*
X156318730Y-110471981D01*
X156260611Y-110595769D01*
X156260610Y-110595772D01*
X156258719Y-110599800D01*
X156236309Y-110743724D01*
X155512830Y-110743724D01*
X155493080Y-110605813D01*
X155444123Y-110498139D01*
X155434636Y-110477273D01*
X155434635Y-110477271D01*
X155432792Y-110473218D01*
X155337713Y-110362873D01*
X155215485Y-110283648D01*
X155075934Y-110241914D01*
X155003107Y-110241469D01*
X154934732Y-110241051D01*
X154934731Y-110241051D01*
X154930279Y-110241024D01*
X154790229Y-110281051D01*
X154667042Y-110358776D01*
X154664099Y-110362108D01*
X154664097Y-110362110D01*
X154573569Y-110464614D01*
X154570622Y-110467951D01*
X154568730Y-110471981D01*
X154510611Y-110595769D01*
X154510610Y-110595772D01*
X154508719Y-110599800D01*
X154486309Y-110743724D01*
X143947001Y-110743724D01*
X143989410Y-110656191D01*
X143991760Y-110642227D01*
X143999575Y-110595769D01*
X144013576Y-110512552D01*
X144013729Y-110500000D01*
X143993080Y-110355813D01*
X143944123Y-110248139D01*
X143934636Y-110227273D01*
X143934635Y-110227271D01*
X143932792Y-110223218D01*
X143890865Y-110174559D01*
X143883380Y-110165872D01*
X143868400Y-110120443D01*
X143884391Y-110083133D01*
X143922914Y-110040574D01*
X143925901Y-110037274D01*
X143989410Y-109906191D01*
X143991760Y-109892227D01*
X143998927Y-109849623D01*
X144013576Y-109762552D01*
X144013729Y-109750000D01*
X143993080Y-109605813D01*
X143944123Y-109498139D01*
X143934636Y-109477273D01*
X143934635Y-109477271D01*
X143932792Y-109473218D01*
X143837713Y-109362873D01*
X143715485Y-109283648D01*
X143575934Y-109241914D01*
X143503107Y-109241469D01*
X143434732Y-109241051D01*
X143434731Y-109241051D01*
X143430279Y-109241024D01*
X143290229Y-109281051D01*
X143167042Y-109358776D01*
X143164099Y-109362108D01*
X143164097Y-109362110D01*
X143073569Y-109464614D01*
X143070622Y-109467951D01*
X143068730Y-109471981D01*
X143010611Y-109595769D01*
X143010610Y-109595772D01*
X143008719Y-109599800D01*
X142986309Y-109743724D01*
X142986886Y-109748137D01*
X142986886Y-109748139D01*
X142989405Y-109767400D01*
X143005195Y-109888152D01*
X143006988Y-109892227D01*
X143051414Y-109993190D01*
X143063859Y-110021474D01*
X143076128Y-110036069D01*
X143117123Y-110084839D01*
X143131547Y-110130448D01*
X143116126Y-110166427D01*
X143070622Y-110217951D01*
X143068730Y-110221981D01*
X143010611Y-110345769D01*
X143010610Y-110345772D01*
X143008719Y-110349800D01*
X142986309Y-110493724D01*
X142447001Y-110493724D01*
X142489410Y-110406191D01*
X142491760Y-110392227D01*
X142508746Y-110291259D01*
X142513576Y-110262552D01*
X142513729Y-110250000D01*
X142493080Y-110105813D01*
X142441293Y-109991914D01*
X142434636Y-109977273D01*
X142434635Y-109977271D01*
X142432792Y-109973218D01*
X142408740Y-109945304D01*
X142393760Y-109899875D01*
X142409751Y-109862565D01*
X142474914Y-109790574D01*
X142477901Y-109787274D01*
X142541410Y-109656191D01*
X142543760Y-109642227D01*
X142565176Y-109514927D01*
X142565576Y-109512552D01*
X142565729Y-109500000D01*
X142545080Y-109355813D01*
X142493293Y-109241914D01*
X142486636Y-109227273D01*
X142486635Y-109227271D01*
X142484792Y-109223218D01*
X142389713Y-109112873D01*
X142267485Y-109033648D01*
X142127934Y-108991914D01*
X142055106Y-108991469D01*
X141986732Y-108991051D01*
X141986731Y-108991051D01*
X141982279Y-108991024D01*
X141842229Y-109031051D01*
X141719042Y-109108776D01*
X141716099Y-109112108D01*
X141716097Y-109112110D01*
X141625569Y-109214614D01*
X141622622Y-109217951D01*
X141620730Y-109221981D01*
X141562611Y-109345769D01*
X141562610Y-109345772D01*
X141560719Y-109349800D01*
X141538309Y-109493724D01*
X141538886Y-109498137D01*
X141538886Y-109498139D01*
X141546262Y-109554541D01*
X141557195Y-109638152D01*
X141558988Y-109642227D01*
X141607473Y-109752415D01*
X141615859Y-109771474D01*
X141643765Y-109804673D01*
X141658189Y-109850281D01*
X141642768Y-109886261D01*
X141625167Y-109906191D01*
X141570622Y-109967951D01*
X141568730Y-109971981D01*
X141510611Y-110095769D01*
X141510610Y-110095772D01*
X141508719Y-110099800D01*
X141486309Y-110243724D01*
X140254500Y-110243724D01*
X140254500Y-107993724D01*
X141486309Y-107993724D01*
X141486886Y-107998137D01*
X141486886Y-107998139D01*
X141491030Y-108029828D01*
X141505195Y-108138152D01*
X141506988Y-108142227D01*
X141555473Y-108252415D01*
X141563859Y-108271474D01*
X141657583Y-108382973D01*
X141661288Y-108385439D01*
X141661290Y-108385441D01*
X141692463Y-108406191D01*
X141778834Y-108463684D01*
X141917864Y-108507121D01*
X141922314Y-108507203D01*
X141922317Y-108507203D01*
X142059052Y-108509709D01*
X142059055Y-108509709D01*
X142063498Y-108509790D01*
X142067789Y-108508620D01*
X142067790Y-108508620D01*
X142138554Y-108489327D01*
X142204026Y-108471477D01*
X142207817Y-108469149D01*
X142207820Y-108469148D01*
X142324362Y-108397592D01*
X142324365Y-108397589D01*
X142328154Y-108395263D01*
X142331137Y-108391967D01*
X142331141Y-108391964D01*
X142422914Y-108290574D01*
X142425901Y-108287274D01*
X142489410Y-108156191D01*
X142491760Y-108142227D01*
X142509619Y-108036069D01*
X142513576Y-108012552D01*
X142513729Y-108000000D01*
X142493080Y-107855813D01*
X142441293Y-107741914D01*
X142434636Y-107727273D01*
X142434635Y-107727271D01*
X142432792Y-107723218D01*
X142337713Y-107612873D01*
X142215485Y-107533648D01*
X142075934Y-107491914D01*
X142003107Y-107491469D01*
X141934732Y-107491051D01*
X141934731Y-107491051D01*
X141930279Y-107491024D01*
X141790229Y-107531051D01*
X141667042Y-107608776D01*
X141664099Y-107612108D01*
X141664097Y-107612110D01*
X141573569Y-107714614D01*
X141570622Y-107717951D01*
X141568730Y-107721981D01*
X141510611Y-107845769D01*
X141510610Y-107845772D01*
X141508719Y-107849800D01*
X141486309Y-107993724D01*
X140254500Y-107993724D01*
X140254500Y-106531222D01*
X140255701Y-106519029D01*
X140258285Y-106506038D01*
X140259486Y-106500000D01*
X140253813Y-106471477D01*
X140239734Y-106400699D01*
X140234074Y-106392227D01*
X140186903Y-106321633D01*
X140183484Y-106316516D01*
X140132723Y-106282598D01*
X140104420Y-106263686D01*
X140104418Y-106263685D01*
X140099301Y-106260266D01*
X140000000Y-106240514D01*
X139993962Y-106241715D01*
X139980971Y-106244299D01*
X139968778Y-106245500D01*
X133045797Y-106245500D01*
X133001603Y-106227194D01*
X132983297Y-106183000D01*
X132986256Y-106163997D01*
X132987468Y-106160198D01*
X132989410Y-106156191D01*
X133013576Y-106012552D01*
X133013729Y-106000000D01*
X132993080Y-105855813D01*
X132945279Y-105750681D01*
X132934636Y-105727273D01*
X132934635Y-105727271D01*
X132932792Y-105723218D01*
X132837713Y-105612873D01*
X132715485Y-105533648D01*
X132575934Y-105491914D01*
X132503107Y-105491469D01*
X132434732Y-105491051D01*
X132434731Y-105491051D01*
X132430279Y-105491024D01*
X132290229Y-105531051D01*
X132167042Y-105608776D01*
X132164099Y-105612108D01*
X132164097Y-105612110D01*
X132093427Y-105692129D01*
X132070622Y-105717951D01*
X132068730Y-105721981D01*
X132010611Y-105845769D01*
X132010610Y-105845772D01*
X132008719Y-105849800D01*
X131986309Y-105993724D01*
X131986886Y-105998137D01*
X131986886Y-105998139D01*
X131993406Y-106048000D01*
X132005195Y-106138152D01*
X132013853Y-106157829D01*
X132014897Y-106205652D01*
X131981819Y-106240207D01*
X131956646Y-106245500D01*
X125031222Y-106245500D01*
X125019029Y-106244299D01*
X125006038Y-106241715D01*
X125000000Y-106240514D01*
X124900699Y-106260266D01*
X124895582Y-106263685D01*
X124895580Y-106263686D01*
X124867277Y-106282598D01*
X124816516Y-106316516D01*
X124813097Y-106321633D01*
X124765927Y-106392227D01*
X124760266Y-106400699D01*
X124746188Y-106471477D01*
X124740514Y-106500000D01*
X124741715Y-106506038D01*
X124744299Y-106519029D01*
X124745500Y-106531222D01*
X124745500Y-125183000D01*
X124727194Y-125227194D01*
X124683000Y-125245500D01*
X120317000Y-125245500D01*
X120272806Y-125227194D01*
X120254500Y-125183000D01*
X120254500Y-122500000D01*
X120795539Y-122500000D01*
X120815354Y-122751775D01*
X120874312Y-122997351D01*
X120875254Y-122999625D01*
X120970017Y-123228405D01*
X120970021Y-123228412D01*
X120970960Y-123230680D01*
X120972245Y-123232776D01*
X120972246Y-123232779D01*
X121034059Y-123333648D01*
X121102919Y-123446017D01*
X121266939Y-123638061D01*
X121458983Y-123802081D01*
X121461080Y-123803366D01*
X121667447Y-123929828D01*
X121674320Y-123934040D01*
X121676588Y-123934979D01*
X121676595Y-123934983D01*
X121862798Y-124012110D01*
X121907649Y-124030688D01*
X122153225Y-124089646D01*
X122209882Y-124094105D01*
X122340725Y-124104403D01*
X122340738Y-124104404D01*
X122341964Y-124104500D01*
X122468036Y-124104500D01*
X122469262Y-124104404D01*
X122469275Y-124104403D01*
X122600118Y-124094105D01*
X122656775Y-124089646D01*
X122902351Y-124030688D01*
X122947202Y-124012110D01*
X123133405Y-123934983D01*
X123133412Y-123934979D01*
X123135680Y-123934040D01*
X123142554Y-123929828D01*
X123348920Y-123803366D01*
X123351017Y-123802081D01*
X123543061Y-123638061D01*
X123707081Y-123446017D01*
X123775941Y-123333648D01*
X123837754Y-123232779D01*
X123837755Y-123232776D01*
X123839040Y-123230680D01*
X123839979Y-123228412D01*
X123839983Y-123228405D01*
X123934746Y-122999625D01*
X123935688Y-122997351D01*
X123994646Y-122751775D01*
X124014461Y-122500000D01*
X123994646Y-122248225D01*
X123935688Y-122002649D01*
X123890349Y-121893190D01*
X123839983Y-121771595D01*
X123839979Y-121771588D01*
X123839040Y-121769320D01*
X123833151Y-121759709D01*
X123708366Y-121556080D01*
X123707081Y-121553983D01*
X123543061Y-121361939D01*
X123351017Y-121197919D01*
X123268891Y-121147592D01*
X123137779Y-121067246D01*
X123137776Y-121067245D01*
X123135680Y-121065960D01*
X123133412Y-121065021D01*
X123133405Y-121065017D01*
X122911781Y-120973218D01*
X122902351Y-120969312D01*
X122656775Y-120910354D01*
X122600118Y-120905895D01*
X122469275Y-120895597D01*
X122469262Y-120895596D01*
X122468036Y-120895500D01*
X122341964Y-120895500D01*
X122340738Y-120895596D01*
X122340725Y-120895597D01*
X122209882Y-120905895D01*
X122153225Y-120910354D01*
X121907649Y-120969312D01*
X121898219Y-120973218D01*
X121676595Y-121065017D01*
X121676588Y-121065021D01*
X121674320Y-121065960D01*
X121672224Y-121067245D01*
X121672221Y-121067246D01*
X121541109Y-121147592D01*
X121458983Y-121197919D01*
X121266939Y-121361939D01*
X121102919Y-121553983D01*
X121101634Y-121556080D01*
X120976850Y-121759709D01*
X120970960Y-121769320D01*
X120970021Y-121771588D01*
X120970017Y-121771595D01*
X120919651Y-121893190D01*
X120874312Y-122002649D01*
X120815354Y-122248225D01*
X120795539Y-122500000D01*
X120254500Y-122500000D01*
X120254500Y-118676224D01*
X122053809Y-118676224D01*
X122054386Y-118680637D01*
X122054386Y-118680639D01*
X122058707Y-118713684D01*
X122072695Y-118820652D01*
X122074488Y-118824727D01*
X122104074Y-118891964D01*
X122131359Y-118953974D01*
X122134223Y-118957381D01*
X122200367Y-119036069D01*
X122225083Y-119065473D01*
X122228788Y-119067939D01*
X122228790Y-119067941D01*
X122321765Y-119129829D01*
X122346334Y-119146184D01*
X122485364Y-119189621D01*
X122489814Y-119189703D01*
X122489817Y-119189703D01*
X122626552Y-119192209D01*
X122626555Y-119192209D01*
X122630998Y-119192290D01*
X122635289Y-119191120D01*
X122635290Y-119191120D01*
X122686270Y-119177221D01*
X122771526Y-119153977D01*
X122775317Y-119151649D01*
X122775320Y-119151648D01*
X122891862Y-119080092D01*
X122891865Y-119080089D01*
X122895654Y-119077763D01*
X122898637Y-119074467D01*
X122898641Y-119074464D01*
X122990414Y-118973074D01*
X122993401Y-118969774D01*
X123056910Y-118838691D01*
X123059260Y-118824727D01*
X123072977Y-118743190D01*
X123081076Y-118695052D01*
X123081229Y-118682500D01*
X123060580Y-118538313D01*
X123000292Y-118405718D01*
X122905213Y-118295373D01*
X122782985Y-118216148D01*
X122643434Y-118174414D01*
X122570607Y-118173969D01*
X122502232Y-118173551D01*
X122502231Y-118173551D01*
X122497779Y-118173524D01*
X122357729Y-118213551D01*
X122234542Y-118291276D01*
X122231599Y-118294608D01*
X122231597Y-118294610D01*
X122186415Y-118345769D01*
X122138122Y-118400451D01*
X122136230Y-118404481D01*
X122078111Y-118528269D01*
X122078110Y-118528272D01*
X122076219Y-118532300D01*
X122053809Y-118676224D01*
X120254500Y-118676224D01*
X120254500Y-117317000D01*
X120272806Y-117272806D01*
X120317000Y-117254500D01*
X121718778Y-117254500D01*
X121730971Y-117255701D01*
X121750000Y-117259486D01*
X121849301Y-117239734D01*
X121854418Y-117236315D01*
X121854420Y-117236314D01*
X121928367Y-117186903D01*
X121933484Y-117183484D01*
X121959023Y-117145263D01*
X121986314Y-117104420D01*
X121986315Y-117104418D01*
X121989734Y-117099301D01*
X122004500Y-117025067D01*
X122009486Y-117000000D01*
X122005701Y-116980971D01*
X122004500Y-116968778D01*
X122004500Y-111781222D01*
X122005701Y-111769029D01*
X122008285Y-111756038D01*
X122009486Y-111750000D01*
X122003813Y-111721477D01*
X121989734Y-111650699D01*
X121983898Y-111641964D01*
X121936903Y-111571633D01*
X121933484Y-111566516D01*
X121889721Y-111537274D01*
X121854420Y-111513686D01*
X121854418Y-111513685D01*
X121849301Y-111510266D01*
X121763453Y-111493190D01*
X121756038Y-111491715D01*
X121750000Y-111490514D01*
X121743962Y-111491715D01*
X121730971Y-111494299D01*
X121718778Y-111495500D01*
X120317000Y-111495500D01*
X120272806Y-111477194D01*
X120254500Y-111433000D01*
X120254500Y-110493724D01*
X122736309Y-110493724D01*
X122736886Y-110498137D01*
X122736886Y-110498139D01*
X122739405Y-110517400D01*
X122755195Y-110638152D01*
X122756988Y-110642227D01*
X122811623Y-110766392D01*
X122813859Y-110771474D01*
X122823772Y-110783267D01*
X122893523Y-110866246D01*
X122907583Y-110882973D01*
X122911288Y-110885439D01*
X122911290Y-110885441D01*
X122942463Y-110906191D01*
X123028834Y-110963684D01*
X123167864Y-111007121D01*
X123172314Y-111007203D01*
X123172317Y-111007203D01*
X123309052Y-111009709D01*
X123309055Y-111009709D01*
X123313498Y-111009790D01*
X123317789Y-111008620D01*
X123317790Y-111008620D01*
X123368770Y-110994721D01*
X123454026Y-110971477D01*
X123457817Y-110969149D01*
X123457820Y-110969148D01*
X123574362Y-110897592D01*
X123574365Y-110897589D01*
X123578154Y-110895263D01*
X123581137Y-110891967D01*
X123581141Y-110891964D01*
X123672914Y-110790574D01*
X123675901Y-110787274D01*
X123739410Y-110656191D01*
X123741760Y-110642227D01*
X123749575Y-110595769D01*
X123763576Y-110512552D01*
X123763729Y-110500000D01*
X123743080Y-110355813D01*
X123694123Y-110248139D01*
X123684636Y-110227273D01*
X123684635Y-110227271D01*
X123682792Y-110223218D01*
X123587713Y-110112873D01*
X123465485Y-110033648D01*
X123325934Y-109991914D01*
X123253106Y-109991469D01*
X123184732Y-109991051D01*
X123184731Y-109991051D01*
X123180279Y-109991024D01*
X123040229Y-110031051D01*
X122917042Y-110108776D01*
X122914099Y-110112108D01*
X122914097Y-110112110D01*
X122859694Y-110173710D01*
X122820622Y-110217951D01*
X122818730Y-110221981D01*
X122760611Y-110345769D01*
X122760610Y-110345772D01*
X122758719Y-110349800D01*
X122736309Y-110493724D01*
X120254500Y-110493724D01*
X120254500Y-105817000D01*
X120272806Y-105772806D01*
X120317000Y-105754500D01*
X121718778Y-105754500D01*
X121730971Y-105755701D01*
X121750000Y-105759486D01*
X121811395Y-105747274D01*
X121849301Y-105739734D01*
X121854418Y-105736315D01*
X121854420Y-105736314D01*
X121928367Y-105686903D01*
X121933484Y-105683484D01*
X121978412Y-105616246D01*
X121986314Y-105604420D01*
X121986315Y-105604418D01*
X121989734Y-105599301D01*
X122009486Y-105500000D01*
X122005701Y-105480971D01*
X122004500Y-105468778D01*
X122004500Y-103299933D01*
X124570500Y-103299933D01*
X124570501Y-104700066D01*
X124571100Y-104703075D01*
X124571100Y-104703080D01*
X124575912Y-104727273D01*
X124585266Y-104774301D01*
X124641516Y-104858484D01*
X124646633Y-104861903D01*
X124720580Y-104911314D01*
X124720582Y-104911315D01*
X124725699Y-104914734D01*
X124758753Y-104921309D01*
X124796920Y-104928901D01*
X124796923Y-104928901D01*
X124799933Y-104929500D01*
X125500000Y-104929500D01*
X126200066Y-104929499D01*
X126203075Y-104928900D01*
X126203080Y-104928900D01*
X126268263Y-104915935D01*
X126274301Y-104914734D01*
X126358484Y-104858484D01*
X126414734Y-104774301D01*
X126421309Y-104741247D01*
X126428901Y-104703080D01*
X126428901Y-104703077D01*
X126429500Y-104700067D01*
X126429500Y-104493724D01*
X128486309Y-104493724D01*
X128486886Y-104498137D01*
X128486886Y-104498139D01*
X128491030Y-104529828D01*
X128505195Y-104638152D01*
X128506988Y-104642227D01*
X128542626Y-104723218D01*
X128563859Y-104771474D01*
X128657583Y-104882973D01*
X128661288Y-104885439D01*
X128661290Y-104885441D01*
X128726578Y-104928900D01*
X128778834Y-104963684D01*
X128917864Y-105007121D01*
X128922314Y-105007203D01*
X128922317Y-105007203D01*
X129059052Y-105009709D01*
X129059055Y-105009709D01*
X129063498Y-105009790D01*
X129067789Y-105008620D01*
X129067790Y-105008620D01*
X129122426Y-104993724D01*
X129736309Y-104993724D01*
X129736886Y-104998137D01*
X129736886Y-104998139D01*
X129743301Y-105047197D01*
X129755195Y-105138152D01*
X129756988Y-105142227D01*
X129779660Y-105193751D01*
X129813859Y-105271474D01*
X129907583Y-105382973D01*
X129911288Y-105385439D01*
X129911290Y-105385441D01*
X129989402Y-105437436D01*
X130028834Y-105463684D01*
X130167864Y-105507121D01*
X130172314Y-105507203D01*
X130172317Y-105507203D01*
X130309052Y-105509709D01*
X130309055Y-105509709D01*
X130313498Y-105509790D01*
X130317789Y-105508620D01*
X130317790Y-105508620D01*
X130392130Y-105488352D01*
X130454026Y-105471477D01*
X130457206Y-105469524D01*
X134986309Y-105469524D01*
X134986886Y-105473937D01*
X134986886Y-105473939D01*
X134991084Y-105506038D01*
X135005195Y-105613952D01*
X135006988Y-105618027D01*
X135061501Y-105741914D01*
X135063859Y-105747274D01*
X135157583Y-105858773D01*
X135161288Y-105861239D01*
X135161290Y-105861241D01*
X135247689Y-105918752D01*
X135278834Y-105939484D01*
X135417864Y-105982921D01*
X135422314Y-105983003D01*
X135422317Y-105983003D01*
X135559052Y-105985509D01*
X135559055Y-105985509D01*
X135563498Y-105985590D01*
X135567789Y-105984420D01*
X135567790Y-105984420D01*
X135621256Y-105969843D01*
X135704026Y-105947277D01*
X135707817Y-105944949D01*
X135707820Y-105944948D01*
X135824362Y-105873392D01*
X135824365Y-105873389D01*
X135828154Y-105871063D01*
X135831137Y-105867767D01*
X135831141Y-105867764D01*
X135915718Y-105774324D01*
X140291109Y-105774324D01*
X140291686Y-105778737D01*
X140291686Y-105778739D01*
X140292328Y-105783648D01*
X140309995Y-105918752D01*
X140311788Y-105922827D01*
X140352314Y-106014927D01*
X140368659Y-106052074D01*
X140371523Y-106055481D01*
X140448144Y-106146633D01*
X140462383Y-106163573D01*
X140466088Y-106166039D01*
X140466090Y-106166041D01*
X140548024Y-106220580D01*
X140583634Y-106244284D01*
X140722664Y-106287721D01*
X140727114Y-106287803D01*
X140727117Y-106287803D01*
X140863852Y-106290309D01*
X140863855Y-106290309D01*
X140868298Y-106290390D01*
X140872589Y-106289220D01*
X140872590Y-106289220D01*
X140896878Y-106282598D01*
X140919017Y-106276562D01*
X140966469Y-106282598D01*
X140995755Y-106320421D01*
X140997428Y-106328757D01*
X141005195Y-106388152D01*
X141006988Y-106392227D01*
X141051754Y-106493963D01*
X141063859Y-106521474D01*
X141157583Y-106632973D01*
X141161288Y-106635439D01*
X141161290Y-106635441D01*
X141254265Y-106697329D01*
X141278834Y-106713684D01*
X141417864Y-106757121D01*
X141422314Y-106757203D01*
X141422317Y-106757203D01*
X141559052Y-106759709D01*
X141559055Y-106759709D01*
X141563498Y-106759790D01*
X141567789Y-106758620D01*
X141567790Y-106758620D01*
X141618770Y-106744721D01*
X141704026Y-106721477D01*
X141707817Y-106719149D01*
X141707820Y-106719148D01*
X141824362Y-106647592D01*
X141824365Y-106647589D01*
X141828154Y-106645263D01*
X141831137Y-106641967D01*
X141831141Y-106641964D01*
X141922914Y-106540574D01*
X141925901Y-106537274D01*
X141989410Y-106406191D01*
X141991760Y-106392227D01*
X141998711Y-106350906D01*
X142013576Y-106262552D01*
X142013729Y-106250000D01*
X141993080Y-106105813D01*
X141944123Y-105998139D01*
X141934636Y-105977273D01*
X141934635Y-105977271D01*
X141932792Y-105973218D01*
X141837713Y-105862873D01*
X141715485Y-105783648D01*
X141575934Y-105741914D01*
X141503106Y-105741469D01*
X141434732Y-105741051D01*
X141434731Y-105741051D01*
X141430279Y-105741024D01*
X141386365Y-105753575D01*
X141338842Y-105748118D01*
X141309096Y-105710656D01*
X141307321Y-105702341D01*
X141306207Y-105694558D01*
X141297880Y-105636413D01*
X141264802Y-105563662D01*
X141239436Y-105507873D01*
X141239435Y-105507871D01*
X141237592Y-105503818D01*
X141142513Y-105393473D01*
X141020285Y-105314248D01*
X140880734Y-105272514D01*
X140807907Y-105272069D01*
X140739532Y-105271651D01*
X140739531Y-105271651D01*
X140735079Y-105271624D01*
X140595029Y-105311651D01*
X140471842Y-105389376D01*
X140468899Y-105392708D01*
X140468897Y-105392710D01*
X140380157Y-105493190D01*
X140375422Y-105498551D01*
X140373530Y-105502581D01*
X140315411Y-105626369D01*
X140315410Y-105626372D01*
X140313519Y-105630400D01*
X140291109Y-105774324D01*
X135915718Y-105774324D01*
X135922914Y-105766374D01*
X135925901Y-105763074D01*
X135989410Y-105631991D01*
X135991760Y-105618027D01*
X136000906Y-105563662D01*
X136013576Y-105488352D01*
X136013729Y-105475800D01*
X135993080Y-105331613D01*
X135932792Y-105199018D01*
X135837713Y-105088673D01*
X135780508Y-105051594D01*
X141178439Y-105051594D01*
X141179016Y-105056007D01*
X141179016Y-105056009D01*
X141183729Y-105092046D01*
X141197325Y-105196022D01*
X141199118Y-105200097D01*
X141250412Y-105316669D01*
X141255989Y-105329344D01*
X141349713Y-105440843D01*
X141353418Y-105443309D01*
X141353420Y-105443311D01*
X141417463Y-105485941D01*
X141470964Y-105521554D01*
X141609994Y-105564991D01*
X141614444Y-105565073D01*
X141614447Y-105565073D01*
X141751182Y-105567579D01*
X141751185Y-105567579D01*
X141755628Y-105567660D01*
X141759919Y-105566490D01*
X141759920Y-105566490D01*
X141880380Y-105533648D01*
X141896156Y-105529347D01*
X141899947Y-105527019D01*
X141899950Y-105527018D01*
X142016492Y-105455462D01*
X142016495Y-105455459D01*
X142020284Y-105453133D01*
X142023267Y-105449837D01*
X142023271Y-105449834D01*
X142115044Y-105348444D01*
X142118031Y-105345144D01*
X142181540Y-105214061D01*
X142183890Y-105200097D01*
X142202635Y-105088673D01*
X142205706Y-105070422D01*
X142205859Y-105057870D01*
X142185210Y-104913683D01*
X142137586Y-104808940D01*
X142126766Y-104785143D01*
X142126765Y-104785141D01*
X142124922Y-104781088D01*
X142029843Y-104670743D01*
X141907615Y-104591518D01*
X141768064Y-104549784D01*
X141695236Y-104549339D01*
X141626862Y-104548921D01*
X141626861Y-104548921D01*
X141622409Y-104548894D01*
X141482359Y-104588921D01*
X141359172Y-104666646D01*
X141356229Y-104669978D01*
X141356227Y-104669980D01*
X141316808Y-104714614D01*
X141262752Y-104775821D01*
X141253352Y-104795842D01*
X141202741Y-104903639D01*
X141202740Y-104903642D01*
X141200849Y-104907670D01*
X141178439Y-105051594D01*
X135780508Y-105051594D01*
X135715485Y-105009448D01*
X135575934Y-104967714D01*
X135503106Y-104967269D01*
X135434732Y-104966851D01*
X135434731Y-104966851D01*
X135430279Y-104966824D01*
X135290229Y-105006851D01*
X135167042Y-105084576D01*
X135164099Y-105087908D01*
X135164097Y-105087910D01*
X135123625Y-105133736D01*
X135070622Y-105193751D01*
X135068730Y-105197781D01*
X135010611Y-105321569D01*
X135010610Y-105321572D01*
X135008719Y-105325600D01*
X134986309Y-105469524D01*
X130457206Y-105469524D01*
X130457817Y-105469149D01*
X130457820Y-105469148D01*
X130574362Y-105397592D01*
X130574365Y-105397589D01*
X130578154Y-105395263D01*
X130581137Y-105391967D01*
X130581141Y-105391964D01*
X130672914Y-105290574D01*
X130675901Y-105287274D01*
X130739410Y-105156191D01*
X130741760Y-105142227D01*
X130753840Y-105070422D01*
X130763576Y-105012552D01*
X130763660Y-105005628D01*
X130763700Y-105002415D01*
X130763700Y-105002409D01*
X130763729Y-105000000D01*
X130743080Y-104855813D01*
X130682792Y-104723218D01*
X130587713Y-104612873D01*
X130465485Y-104533648D01*
X130331986Y-104493724D01*
X142236309Y-104493724D01*
X142236886Y-104498137D01*
X142236886Y-104498139D01*
X142241030Y-104529828D01*
X142255195Y-104638152D01*
X142256988Y-104642227D01*
X142292626Y-104723218D01*
X142313859Y-104771474D01*
X142407583Y-104882973D01*
X142411288Y-104885439D01*
X142411290Y-104885441D01*
X142476578Y-104928900D01*
X142528834Y-104963684D01*
X142667864Y-105007121D01*
X142672314Y-105007203D01*
X142672317Y-105007203D01*
X142809052Y-105009709D01*
X142809055Y-105009709D01*
X142813498Y-105009790D01*
X142817789Y-105008620D01*
X142817790Y-105008620D01*
X142888554Y-104989327D01*
X142954026Y-104971477D01*
X142957817Y-104969149D01*
X142957820Y-104969148D01*
X143074362Y-104897592D01*
X143074365Y-104897589D01*
X143078154Y-104895263D01*
X143081137Y-104891967D01*
X143081141Y-104891964D01*
X143172914Y-104790574D01*
X143175901Y-104787274D01*
X143239410Y-104656191D01*
X143241760Y-104642227D01*
X143257312Y-104549784D01*
X143263576Y-104512552D01*
X143263729Y-104500000D01*
X143243080Y-104355813D01*
X143182792Y-104223218D01*
X143087713Y-104112873D01*
X142965485Y-104033648D01*
X142825934Y-103991914D01*
X142753107Y-103991469D01*
X142684732Y-103991051D01*
X142684731Y-103991051D01*
X142680279Y-103991024D01*
X142540229Y-104031051D01*
X142417042Y-104108776D01*
X142414099Y-104112108D01*
X142414097Y-104112110D01*
X142323569Y-104214614D01*
X142320622Y-104217951D01*
X142318730Y-104221981D01*
X142260611Y-104345769D01*
X142260610Y-104345772D01*
X142258719Y-104349800D01*
X142236309Y-104493724D01*
X130331986Y-104493724D01*
X130325934Y-104491914D01*
X130253106Y-104491469D01*
X130184732Y-104491051D01*
X130184731Y-104491051D01*
X130180279Y-104491024D01*
X130040229Y-104531051D01*
X129917042Y-104608776D01*
X129914099Y-104612108D01*
X129914097Y-104612110D01*
X129823569Y-104714614D01*
X129820622Y-104717951D01*
X129818730Y-104721981D01*
X129760611Y-104845769D01*
X129760610Y-104845772D01*
X129758719Y-104849800D01*
X129736309Y-104993724D01*
X129122426Y-104993724D01*
X129138554Y-104989327D01*
X129204026Y-104971477D01*
X129207817Y-104969149D01*
X129207820Y-104969148D01*
X129324362Y-104897592D01*
X129324365Y-104897589D01*
X129328154Y-104895263D01*
X129331137Y-104891967D01*
X129331141Y-104891964D01*
X129422914Y-104790574D01*
X129425901Y-104787274D01*
X129489410Y-104656191D01*
X129491760Y-104642227D01*
X129507312Y-104549784D01*
X129513576Y-104512552D01*
X129513729Y-104500000D01*
X129493080Y-104355813D01*
X129432792Y-104223218D01*
X129337713Y-104112873D01*
X129215485Y-104033648D01*
X129075934Y-103991914D01*
X129003107Y-103991469D01*
X128934732Y-103991051D01*
X128934731Y-103991051D01*
X128930279Y-103991024D01*
X128790229Y-104031051D01*
X128667042Y-104108776D01*
X128664099Y-104112108D01*
X128664097Y-104112110D01*
X128573569Y-104214614D01*
X128570622Y-104217951D01*
X128568730Y-104221981D01*
X128510611Y-104345769D01*
X128510610Y-104345772D01*
X128508719Y-104349800D01*
X128486309Y-104493724D01*
X126429500Y-104493724D01*
X126429499Y-103493724D01*
X140236309Y-103493724D01*
X140236886Y-103498137D01*
X140236886Y-103498139D01*
X140240112Y-103522806D01*
X140255195Y-103638152D01*
X140313859Y-103771474D01*
X140407583Y-103882973D01*
X140411288Y-103885439D01*
X140411290Y-103885441D01*
X140504265Y-103947329D01*
X140528834Y-103963684D01*
X140667864Y-104007121D01*
X140672314Y-104007203D01*
X140672317Y-104007203D01*
X140809052Y-104009709D01*
X140809055Y-104009709D01*
X140813498Y-104009790D01*
X140817789Y-104008620D01*
X140817790Y-104008620D01*
X140882330Y-103991024D01*
X140954026Y-103971477D01*
X140957817Y-103969149D01*
X140957820Y-103969148D01*
X141074362Y-103897592D01*
X141074365Y-103897589D01*
X141078154Y-103895263D01*
X141081137Y-103891967D01*
X141081141Y-103891964D01*
X141172914Y-103790574D01*
X141175901Y-103787274D01*
X141239410Y-103656191D01*
X141241760Y-103642227D01*
X141248711Y-103600906D01*
X141263576Y-103512552D01*
X141263729Y-103500000D01*
X141243080Y-103355813D01*
X141186666Y-103231738D01*
X141184636Y-103227273D01*
X141184635Y-103227271D01*
X141182792Y-103223218D01*
X141087713Y-103112873D01*
X140965485Y-103033648D01*
X140825934Y-102991914D01*
X140753107Y-102991469D01*
X140684732Y-102991051D01*
X140684731Y-102991051D01*
X140680279Y-102991024D01*
X140540229Y-103031051D01*
X140417042Y-103108776D01*
X140414099Y-103112108D01*
X140414097Y-103112110D01*
X140380017Y-103150699D01*
X140320622Y-103217951D01*
X140314149Y-103231738D01*
X140260611Y-103345769D01*
X140260610Y-103345772D01*
X140258719Y-103349800D01*
X140236309Y-103493724D01*
X126429499Y-103493724D01*
X126429499Y-103299934D01*
X126420769Y-103256038D01*
X126415935Y-103231737D01*
X126414734Y-103225699D01*
X126358484Y-103141516D01*
X126320665Y-103116246D01*
X126279420Y-103088686D01*
X126279418Y-103088685D01*
X126274301Y-103085266D01*
X126241247Y-103078691D01*
X126203080Y-103071099D01*
X126203077Y-103071099D01*
X126200067Y-103070500D01*
X126196996Y-103070500D01*
X125500001Y-103070501D01*
X124799934Y-103070501D01*
X124796925Y-103071100D01*
X124796920Y-103071100D01*
X124731737Y-103084065D01*
X124725699Y-103085266D01*
X124641516Y-103141516D01*
X124638097Y-103146633D01*
X124589179Y-103219843D01*
X124585266Y-103225699D01*
X124570500Y-103299933D01*
X122004500Y-103299933D01*
X122004500Y-102000000D01*
X124565380Y-102000000D01*
X124585804Y-102194318D01*
X124586817Y-102197435D01*
X124586817Y-102197436D01*
X124645169Y-102377028D01*
X124645171Y-102377033D01*
X124646182Y-102380144D01*
X124743877Y-102549356D01*
X124874617Y-102694558D01*
X125032690Y-102809405D01*
X125211187Y-102888876D01*
X125214394Y-102889558D01*
X125214395Y-102889558D01*
X125399096Y-102928818D01*
X125399099Y-102928818D01*
X125402306Y-102929500D01*
X125597694Y-102929500D01*
X125600901Y-102928818D01*
X125600904Y-102928818D01*
X125785605Y-102889558D01*
X125785606Y-102889558D01*
X125788813Y-102888876D01*
X125967310Y-102809405D01*
X126125383Y-102694558D01*
X126256123Y-102549356D01*
X126353818Y-102380144D01*
X126354829Y-102377033D01*
X126354831Y-102377028D01*
X126413183Y-102197436D01*
X126413183Y-102197435D01*
X126414196Y-102194318D01*
X126434620Y-102000000D01*
X126414196Y-101805682D01*
X126398905Y-101758620D01*
X126354831Y-101622972D01*
X126354829Y-101622967D01*
X126353818Y-101619856D01*
X126256123Y-101450644D01*
X126125383Y-101305442D01*
X125967310Y-101190595D01*
X125870723Y-101147592D01*
X125791807Y-101112457D01*
X125788813Y-101111124D01*
X125785606Y-101110442D01*
X125785605Y-101110442D01*
X125600904Y-101071182D01*
X125600901Y-101071182D01*
X125597694Y-101070500D01*
X125402306Y-101070500D01*
X125399099Y-101071182D01*
X125399096Y-101071182D01*
X125214395Y-101110442D01*
X125214394Y-101110442D01*
X125211187Y-101111124D01*
X125208193Y-101112457D01*
X125129278Y-101147592D01*
X125032690Y-101190595D01*
X124874617Y-101305442D01*
X124743877Y-101450644D01*
X124646182Y-101619856D01*
X124645171Y-101622967D01*
X124645169Y-101622972D01*
X124601095Y-101758620D01*
X124585804Y-101805682D01*
X124565380Y-102000000D01*
X122004500Y-102000000D01*
X122004500Y-100743724D01*
X131236309Y-100743724D01*
X131236886Y-100748137D01*
X131236886Y-100748139D01*
X131239405Y-100767400D01*
X131255195Y-100888152D01*
X131256988Y-100892227D01*
X131308718Y-101009790D01*
X131313859Y-101021474D01*
X131407583Y-101132973D01*
X131411288Y-101135439D01*
X131411290Y-101135441D01*
X131492150Y-101189265D01*
X131528834Y-101213684D01*
X131667864Y-101257121D01*
X131672314Y-101257203D01*
X131672317Y-101257203D01*
X131809052Y-101259709D01*
X131809055Y-101259709D01*
X131813498Y-101259790D01*
X131817789Y-101258620D01*
X131817790Y-101258620D01*
X131888554Y-101239327D01*
X131954026Y-101221477D01*
X131957817Y-101219149D01*
X131957820Y-101219148D01*
X132074362Y-101147592D01*
X132074365Y-101147589D01*
X132078154Y-101145263D01*
X132081137Y-101141967D01*
X132081141Y-101141964D01*
X132172914Y-101040574D01*
X132175901Y-101037274D01*
X132239410Y-100906191D01*
X132241760Y-100892227D01*
X132255569Y-100810142D01*
X132263576Y-100762552D01*
X132263729Y-100750000D01*
X132243080Y-100605813D01*
X132194123Y-100498139D01*
X132192116Y-100493724D01*
X135236309Y-100493724D01*
X135236886Y-100498137D01*
X135236886Y-100498139D01*
X135244262Y-100554541D01*
X135255195Y-100638152D01*
X135256988Y-100642227D01*
X135305473Y-100752415D01*
X135313859Y-100771474D01*
X135324092Y-100783648D01*
X135393523Y-100866246D01*
X135407583Y-100882973D01*
X135411288Y-100885439D01*
X135411290Y-100885441D01*
X135442463Y-100906191D01*
X135528834Y-100963684D01*
X135667864Y-101007121D01*
X135672314Y-101007203D01*
X135672317Y-101007203D01*
X135809052Y-101009709D01*
X135809055Y-101009709D01*
X135813498Y-101009790D01*
X135817789Y-101008620D01*
X135817790Y-101008620D01*
X135868770Y-100994721D01*
X135954026Y-100971477D01*
X135957817Y-100969149D01*
X135957820Y-100969148D01*
X136074362Y-100897592D01*
X136074365Y-100897589D01*
X136078154Y-100895263D01*
X136081137Y-100891967D01*
X136081141Y-100891964D01*
X136172914Y-100790574D01*
X136175901Y-100787274D01*
X136239410Y-100656191D01*
X136241760Y-100642227D01*
X136263176Y-100514927D01*
X136263576Y-100512552D01*
X136263729Y-100500000D01*
X136243080Y-100355813D01*
X136203621Y-100269029D01*
X136184636Y-100227273D01*
X136184635Y-100227271D01*
X136182792Y-100223218D01*
X136087713Y-100112873D01*
X135965485Y-100033648D01*
X135825934Y-99991914D01*
X135753106Y-99991469D01*
X135684732Y-99991051D01*
X135684731Y-99991051D01*
X135680279Y-99991024D01*
X135540229Y-100031051D01*
X135417042Y-100108776D01*
X135414099Y-100112108D01*
X135414097Y-100112110D01*
X135345120Y-100190212D01*
X135320622Y-100217951D01*
X135318730Y-100221981D01*
X135260611Y-100345769D01*
X135260610Y-100345772D01*
X135258719Y-100349800D01*
X135236309Y-100493724D01*
X132192116Y-100493724D01*
X132184636Y-100477273D01*
X132184635Y-100477271D01*
X132182792Y-100473218D01*
X132087713Y-100362873D01*
X131965485Y-100283648D01*
X131825934Y-100241914D01*
X131753106Y-100241469D01*
X131684732Y-100241051D01*
X131684731Y-100241051D01*
X131680279Y-100241024D01*
X131540229Y-100281051D01*
X131417042Y-100358776D01*
X131414099Y-100362108D01*
X131414097Y-100362110D01*
X131404735Y-100372711D01*
X131320622Y-100467951D01*
X131318730Y-100471981D01*
X131260611Y-100595769D01*
X131260610Y-100595772D01*
X131258719Y-100599800D01*
X131236309Y-100743724D01*
X122004500Y-100743724D01*
X122004500Y-100281222D01*
X122005701Y-100269029D01*
X122008285Y-100256038D01*
X122009486Y-100250000D01*
X122003813Y-100221477D01*
X121989734Y-100150699D01*
X121983898Y-100141964D01*
X121936903Y-100071633D01*
X121933484Y-100066516D01*
X121889721Y-100037274D01*
X121854420Y-100013686D01*
X121854418Y-100013685D01*
X121849301Y-100010266D01*
X121763453Y-99993190D01*
X121756038Y-99991715D01*
X121750000Y-99990514D01*
X121743962Y-99991715D01*
X121730971Y-99994299D01*
X121718778Y-99995500D01*
X120317000Y-99995500D01*
X120272806Y-99977194D01*
X120254500Y-99933000D01*
X120254500Y-99243724D01*
X125486309Y-99243724D01*
X125486886Y-99248137D01*
X125486886Y-99248139D01*
X125491030Y-99279828D01*
X125505195Y-99388152D01*
X125506988Y-99392227D01*
X125555473Y-99502415D01*
X125563859Y-99521474D01*
X125657583Y-99632973D01*
X125661288Y-99635439D01*
X125661290Y-99635441D01*
X125692463Y-99656191D01*
X125778834Y-99713684D01*
X125917864Y-99757121D01*
X125922314Y-99757203D01*
X125922317Y-99757203D01*
X126059052Y-99759709D01*
X126059055Y-99759709D01*
X126063498Y-99759790D01*
X126067789Y-99758620D01*
X126067790Y-99758620D01*
X126138554Y-99739327D01*
X126204026Y-99721477D01*
X126207817Y-99719149D01*
X126207820Y-99719148D01*
X126324362Y-99647592D01*
X126324365Y-99647589D01*
X126328154Y-99645263D01*
X126331137Y-99641967D01*
X126331141Y-99641964D01*
X126422914Y-99540574D01*
X126425901Y-99537274D01*
X126447001Y-99493724D01*
X135986309Y-99493724D01*
X135986886Y-99498137D01*
X135986886Y-99498139D01*
X135989405Y-99517400D01*
X136005195Y-99638152D01*
X136006988Y-99642227D01*
X136058718Y-99759790D01*
X136063859Y-99771474D01*
X136157583Y-99882973D01*
X136161288Y-99885439D01*
X136161290Y-99885441D01*
X136192463Y-99906191D01*
X136278834Y-99963684D01*
X136417864Y-100007121D01*
X136422314Y-100007203D01*
X136422317Y-100007203D01*
X136559052Y-100009709D01*
X136559055Y-100009709D01*
X136563498Y-100009790D01*
X136567789Y-100008620D01*
X136567790Y-100008620D01*
X136634200Y-99990514D01*
X136704026Y-99971477D01*
X136707817Y-99969149D01*
X136707820Y-99969148D01*
X136824362Y-99897592D01*
X136824365Y-99897589D01*
X136828154Y-99895263D01*
X136831137Y-99891967D01*
X136831141Y-99891964D01*
X136922914Y-99790574D01*
X136925901Y-99787274D01*
X136989410Y-99656191D01*
X136991760Y-99642227D01*
X136999575Y-99595769D01*
X137013576Y-99512552D01*
X137013729Y-99500000D01*
X136993080Y-99355813D01*
X136944123Y-99248139D01*
X136934636Y-99227273D01*
X136934635Y-99227271D01*
X136932792Y-99223218D01*
X136837713Y-99112873D01*
X136715485Y-99033648D01*
X136575934Y-98991914D01*
X136503107Y-98991469D01*
X136434732Y-98991051D01*
X136434731Y-98991051D01*
X136430279Y-98991024D01*
X136290229Y-99031051D01*
X136167042Y-99108776D01*
X136164099Y-99112108D01*
X136164097Y-99112110D01*
X136073569Y-99214614D01*
X136070622Y-99217951D01*
X136068730Y-99221981D01*
X136010611Y-99345769D01*
X136010610Y-99345772D01*
X136008719Y-99349800D01*
X135986309Y-99493724D01*
X126447001Y-99493724D01*
X126489410Y-99406191D01*
X126491760Y-99392227D01*
X126509619Y-99286069D01*
X126513576Y-99262552D01*
X126513729Y-99250000D01*
X126493080Y-99105813D01*
X126458531Y-99029828D01*
X126434636Y-98977273D01*
X126434635Y-98977271D01*
X126432792Y-98973218D01*
X126337713Y-98862873D01*
X126215485Y-98783648D01*
X126075934Y-98741914D01*
X126003107Y-98741469D01*
X125934732Y-98741051D01*
X125934731Y-98741051D01*
X125930279Y-98741024D01*
X125790229Y-98781051D01*
X125667042Y-98858776D01*
X125664099Y-98862108D01*
X125664097Y-98862110D01*
X125632761Y-98897592D01*
X125570622Y-98967951D01*
X125568730Y-98971981D01*
X125510611Y-99095769D01*
X125510610Y-99095772D01*
X125508719Y-99099800D01*
X125486309Y-99243724D01*
X120254500Y-99243724D01*
X120254500Y-98493724D01*
X131986309Y-98493724D01*
X131986886Y-98498137D01*
X131986886Y-98498139D01*
X131994262Y-98554541D01*
X132005195Y-98638152D01*
X132006988Y-98642227D01*
X132051414Y-98743190D01*
X132063859Y-98771474D01*
X132074092Y-98783648D01*
X132143523Y-98866246D01*
X132157583Y-98882973D01*
X132161288Y-98885439D01*
X132161290Y-98885441D01*
X132254265Y-98947329D01*
X132278834Y-98963684D01*
X132417864Y-99007121D01*
X132422314Y-99007203D01*
X132422317Y-99007203D01*
X132559052Y-99009709D01*
X132559055Y-99009709D01*
X132563498Y-99009790D01*
X132567789Y-99008620D01*
X132567790Y-99008620D01*
X132632330Y-98991024D01*
X132704026Y-98971477D01*
X132707817Y-98969149D01*
X132707820Y-98969148D01*
X132824362Y-98897592D01*
X132824365Y-98897589D01*
X132828154Y-98895263D01*
X132831137Y-98891967D01*
X132831141Y-98891964D01*
X132922914Y-98790574D01*
X132925901Y-98787274D01*
X132989410Y-98656191D01*
X132991760Y-98642227D01*
X133013176Y-98514927D01*
X133013576Y-98512552D01*
X133013729Y-98500000D01*
X133012830Y-98493724D01*
X142236309Y-98493724D01*
X142236886Y-98498137D01*
X142236886Y-98498139D01*
X142244262Y-98554541D01*
X142255195Y-98638152D01*
X142256988Y-98642227D01*
X142301414Y-98743190D01*
X142313859Y-98771474D01*
X142324092Y-98783648D01*
X142393523Y-98866246D01*
X142407583Y-98882973D01*
X142411288Y-98885439D01*
X142411290Y-98885441D01*
X142504265Y-98947329D01*
X142528834Y-98963684D01*
X142667864Y-99007121D01*
X142672314Y-99007203D01*
X142672317Y-99007203D01*
X142809052Y-99009709D01*
X142809055Y-99009709D01*
X142813498Y-99009790D01*
X142817789Y-99008620D01*
X142817790Y-99008620D01*
X142882330Y-98991024D01*
X142954026Y-98971477D01*
X142957817Y-98969149D01*
X142957820Y-98969148D01*
X143074362Y-98897592D01*
X143074365Y-98897589D01*
X143078154Y-98895263D01*
X143081137Y-98891967D01*
X143081141Y-98891964D01*
X143172914Y-98790574D01*
X143175901Y-98787274D01*
X143239410Y-98656191D01*
X143241760Y-98642227D01*
X143263176Y-98514927D01*
X143263576Y-98512552D01*
X143263729Y-98500000D01*
X143243080Y-98355813D01*
X143197015Y-98254500D01*
X143184636Y-98227273D01*
X143184635Y-98227271D01*
X143182792Y-98223218D01*
X143087713Y-98112873D01*
X142965485Y-98033648D01*
X142825934Y-97991914D01*
X142753107Y-97991469D01*
X142684732Y-97991051D01*
X142684731Y-97991051D01*
X142680279Y-97991024D01*
X142540229Y-98031051D01*
X142417042Y-98108776D01*
X142414099Y-98112108D01*
X142414097Y-98112110D01*
X142351062Y-98183484D01*
X142320622Y-98217951D01*
X142318730Y-98221981D01*
X142260611Y-98345769D01*
X142260610Y-98345772D01*
X142258719Y-98349800D01*
X142236309Y-98493724D01*
X133012830Y-98493724D01*
X132993080Y-98355813D01*
X132947015Y-98254500D01*
X132934636Y-98227273D01*
X132934635Y-98227271D01*
X132932792Y-98223218D01*
X132837713Y-98112873D01*
X132715485Y-98033648D01*
X132575934Y-97991914D01*
X132503107Y-97991469D01*
X132434732Y-97991051D01*
X132434731Y-97991051D01*
X132430279Y-97991024D01*
X132290229Y-98031051D01*
X132167042Y-98108776D01*
X132164099Y-98112108D01*
X132164097Y-98112110D01*
X132101062Y-98183484D01*
X132070622Y-98217951D01*
X132068730Y-98221981D01*
X132010611Y-98345769D01*
X132010610Y-98345772D01*
X132008719Y-98349800D01*
X131986309Y-98493724D01*
X120254500Y-98493724D01*
X120254500Y-97493724D01*
X138236309Y-97493724D01*
X138236886Y-97498137D01*
X138236886Y-97498139D01*
X138244262Y-97554541D01*
X138255195Y-97638152D01*
X138256988Y-97642227D01*
X138308399Y-97759065D01*
X138313859Y-97771474D01*
X138407583Y-97882973D01*
X138411288Y-97885439D01*
X138411290Y-97885441D01*
X138504265Y-97947329D01*
X138528834Y-97963684D01*
X138667864Y-98007121D01*
X138672314Y-98007203D01*
X138672317Y-98007203D01*
X138809052Y-98009709D01*
X138809055Y-98009709D01*
X138813498Y-98009790D01*
X138817789Y-98008620D01*
X138817790Y-98008620D01*
X138882330Y-97991024D01*
X138954026Y-97971477D01*
X138957817Y-97969149D01*
X138957820Y-97969148D01*
X139074362Y-97897592D01*
X139074365Y-97897589D01*
X139078154Y-97895263D01*
X139081137Y-97891967D01*
X139081141Y-97891964D01*
X139172914Y-97790574D01*
X139175901Y-97787274D01*
X139239410Y-97656191D01*
X139241760Y-97642227D01*
X139263176Y-97514927D01*
X139263576Y-97512552D01*
X139263729Y-97500000D01*
X139243080Y-97355813D01*
X139182792Y-97223218D01*
X139087713Y-97112873D01*
X138965485Y-97033648D01*
X138825934Y-96991914D01*
X138753106Y-96991469D01*
X138684732Y-96991051D01*
X138684731Y-96991051D01*
X138680279Y-96991024D01*
X138540229Y-97031051D01*
X138417042Y-97108776D01*
X138414099Y-97112108D01*
X138414097Y-97112110D01*
X138323569Y-97214614D01*
X138320622Y-97217951D01*
X138318730Y-97221981D01*
X138260611Y-97345769D01*
X138260610Y-97345772D01*
X138258719Y-97349800D01*
X138236309Y-97493724D01*
X120254500Y-97493724D01*
X120254500Y-95000000D01*
X120795539Y-95000000D01*
X120815354Y-95251775D01*
X120874312Y-95497351D01*
X120875254Y-95499625D01*
X120970017Y-95728405D01*
X120970021Y-95728412D01*
X120970960Y-95730680D01*
X120972245Y-95732776D01*
X120972246Y-95732779D01*
X120998046Y-95774881D01*
X121102919Y-95946017D01*
X121266939Y-96138061D01*
X121458983Y-96302081D01*
X121674320Y-96434040D01*
X121676588Y-96434979D01*
X121676595Y-96434983D01*
X121881145Y-96519710D01*
X121907649Y-96530688D01*
X122153225Y-96589646D01*
X122209882Y-96594105D01*
X122340725Y-96604403D01*
X122340738Y-96604404D01*
X122341964Y-96604500D01*
X122468036Y-96604500D01*
X122469262Y-96604404D01*
X122469275Y-96604403D01*
X122600118Y-96594105D01*
X122656775Y-96589646D01*
X122902351Y-96530688D01*
X122928855Y-96519710D01*
X123133405Y-96434983D01*
X123133412Y-96434979D01*
X123135680Y-96434040D01*
X123351017Y-96302081D01*
X123543061Y-96138061D01*
X123707081Y-95946017D01*
X123811954Y-95774881D01*
X123837754Y-95732779D01*
X123837755Y-95732776D01*
X123839040Y-95730680D01*
X123839979Y-95728412D01*
X123839983Y-95728405D01*
X123934746Y-95499625D01*
X123935688Y-95497351D01*
X123936559Y-95493724D01*
X140486309Y-95493724D01*
X140486886Y-95498137D01*
X140486886Y-95498139D01*
X140494262Y-95554541D01*
X140505195Y-95638152D01*
X140506988Y-95642227D01*
X140546833Y-95732779D01*
X140563859Y-95771474D01*
X140657583Y-95882973D01*
X140661288Y-95885439D01*
X140661290Y-95885441D01*
X140749143Y-95943920D01*
X140778834Y-95963684D01*
X140917864Y-96007121D01*
X140922314Y-96007203D01*
X140922317Y-96007203D01*
X141059052Y-96009709D01*
X141059055Y-96009709D01*
X141063498Y-96009790D01*
X141067789Y-96008620D01*
X141067790Y-96008620D01*
X141118770Y-95994721D01*
X141204026Y-95971477D01*
X141207817Y-95969149D01*
X141207820Y-95969148D01*
X141324362Y-95897592D01*
X141324365Y-95897589D01*
X141328154Y-95895263D01*
X141331137Y-95891967D01*
X141331141Y-95891964D01*
X141422914Y-95790574D01*
X141425901Y-95787274D01*
X141489410Y-95656191D01*
X141491760Y-95642227D01*
X141513176Y-95514927D01*
X141513576Y-95512552D01*
X141513729Y-95500000D01*
X141493080Y-95355813D01*
X141432792Y-95223218D01*
X141337713Y-95112873D01*
X141215485Y-95033648D01*
X141075934Y-94991914D01*
X141003107Y-94991469D01*
X140934732Y-94991051D01*
X140934731Y-94991051D01*
X140930279Y-94991024D01*
X140790229Y-95031051D01*
X140667042Y-95108776D01*
X140664099Y-95112108D01*
X140664097Y-95112110D01*
X140573569Y-95214614D01*
X140570622Y-95217951D01*
X140568730Y-95221981D01*
X140510611Y-95345769D01*
X140510610Y-95345772D01*
X140508719Y-95349800D01*
X140486309Y-95493724D01*
X123936559Y-95493724D01*
X123994646Y-95251775D01*
X124014461Y-95000000D01*
X123994646Y-94748225D01*
X123935688Y-94502649D01*
X123919548Y-94463684D01*
X123839983Y-94271595D01*
X123839979Y-94271588D01*
X123839040Y-94269320D01*
X123772171Y-94160199D01*
X123708366Y-94056080D01*
X123707081Y-94053983D01*
X123543061Y-93861939D01*
X123351017Y-93697919D01*
X123268891Y-93647592D01*
X123137779Y-93567246D01*
X123137776Y-93567245D01*
X123135680Y-93565960D01*
X123133412Y-93565021D01*
X123133405Y-93565017D01*
X122904625Y-93470254D01*
X122904626Y-93470254D01*
X122902351Y-93469312D01*
X122656775Y-93410354D01*
X122600118Y-93405895D01*
X122469275Y-93395597D01*
X122469262Y-93395596D01*
X122468036Y-93395500D01*
X122341964Y-93395500D01*
X122340738Y-93395596D01*
X122340725Y-93395597D01*
X122209882Y-93405895D01*
X122153225Y-93410354D01*
X121907649Y-93469312D01*
X121905374Y-93470254D01*
X121905375Y-93470254D01*
X121676595Y-93565017D01*
X121676588Y-93565021D01*
X121674320Y-93565960D01*
X121672224Y-93567245D01*
X121672221Y-93567246D01*
X121541109Y-93647592D01*
X121458983Y-93697919D01*
X121266939Y-93861939D01*
X121102919Y-94053983D01*
X121101634Y-94056080D01*
X121037830Y-94160199D01*
X120970960Y-94269320D01*
X120970021Y-94271588D01*
X120970017Y-94271595D01*
X120890452Y-94463684D01*
X120874312Y-94502649D01*
X120815354Y-94748225D01*
X120795539Y-95000000D01*
X120254500Y-95000000D01*
X120254500Y-92817000D01*
X120272806Y-92772806D01*
X120317000Y-92754500D01*
X141620670Y-92754500D01*
X141664864Y-92772806D01*
G37*
%TD.AperFunction*%
%TD*%
M02*
