%TF.GenerationSoftware,KiCad,Pcbnew,6.0.9-8da3e8f707~117~ubuntu22.04.1*%
%TF.CreationDate,2022-12-02T16:27:46-05:00*%
%TF.ProjectId,watch,77617463-682e-46b6-9963-61645f706362,rev?*%
%TF.SameCoordinates,Original*%
%TF.FileFunction,Copper,L1,Top*%
%TF.FilePolarity,Positive*%
%FSLAX46Y46*%
G04 Gerber Fmt 4.6, Leading zero omitted, Abs format (unit mm)*
G04 Created by KiCad (PCBNEW 6.0.9-8da3e8f707~117~ubuntu22.04.1) date 2022-12-02 16:27:46*
%MOMM*%
%LPD*%
G01*
G04 APERTURE LIST*
G04 Aperture macros list*
%AMRoundRect*
0 Rectangle with rounded corners*
0 $1 Rounding radius*
0 $2 $3 $4 $5 $6 $7 $8 $9 X,Y pos of 4 corners*
0 Add a 4 corners polygon primitive as box body*
4,1,4,$2,$3,$4,$5,$6,$7,$8,$9,$2,$3,0*
0 Add four circle primitives for the rounded corners*
1,1,$1+$1,$2,$3*
1,1,$1+$1,$4,$5*
1,1,$1+$1,$6,$7*
1,1,$1+$1,$8,$9*
0 Add four rect primitives between the rounded corners*
20,1,$1+$1,$2,$3,$4,$5,0*
20,1,$1+$1,$4,$5,$6,$7,0*
20,1,$1+$1,$6,$7,$8,$9,0*
20,1,$1+$1,$8,$9,$2,$3,0*%
G04 Aperture macros list end*
%TA.AperFunction,SMDPad,CuDef*%
%ADD10R,1.050000X1.450000*%
%TD*%
%TA.AperFunction,SMDPad,CuDef*%
%ADD11R,0.800000X0.600000*%
%TD*%
%TA.AperFunction,SMDPad,CuDef*%
%ADD12RoundRect,0.200000X0.275000X-0.200000X0.275000X0.200000X-0.275000X0.200000X-0.275000X-0.200000X0*%
%TD*%
%TA.AperFunction,SMDPad,CuDef*%
%ADD13RoundRect,0.225000X-0.250000X0.225000X-0.250000X-0.225000X0.250000X-0.225000X0.250000X0.225000X0*%
%TD*%
%TA.AperFunction,SMDPad,CuDef*%
%ADD14RoundRect,0.150000X-0.512500X-0.150000X0.512500X-0.150000X0.512500X0.150000X-0.512500X0.150000X0*%
%TD*%
%TA.AperFunction,SMDPad,CuDef*%
%ADD15RoundRect,0.250000X-0.750000X-0.250000X0.750000X-0.250000X0.750000X0.250000X-0.750000X0.250000X0*%
%TD*%
%TA.AperFunction,SMDPad,CuDef*%
%ADD16RoundRect,0.225000X0.250000X-0.225000X0.250000X0.225000X-0.250000X0.225000X-0.250000X-0.225000X0*%
%TD*%
%TA.AperFunction,ComponentPad*%
%ADD17R,1.350000X1.350000*%
%TD*%
%TA.AperFunction,ComponentPad*%
%ADD18O,1.350000X1.350000*%
%TD*%
%TA.AperFunction,ViaPad*%
%ADD19C,0.508000*%
%TD*%
%TA.AperFunction,Conductor*%
%ADD20C,0.177800*%
%TD*%
%TA.AperFunction,Conductor*%
%ADD21C,0.381000*%
%TD*%
%TA.AperFunction,Conductor*%
%ADD22C,0.635000*%
%TD*%
%TA.AperFunction,Conductor*%
%ADD23C,0.127000*%
%TD*%
%TA.AperFunction,Conductor*%
%ADD24C,0.254000*%
%TD*%
G04 APERTURE END LIST*
D10*
%TO.P,SW2,1,1*%
%TO.N,Net-(SW2-Pad1)*%
X122567500Y-112175000D03*
%TO.P,SW2,2,2*%
%TO.N,GND*%
X122567500Y-116725000D03*
D11*
%TO.P,SW2,3*%
%TO.N,N/C*%
X120817500Y-111250000D03*
%TO.P,SW2,4*%
X120817500Y-117650000D03*
%TD*%
D12*
%TO.P,R7,1*%
%TO.N,/LED2*%
X144200000Y-124225000D03*
%TO.P,R7,2*%
%TO.N,Net-(D2-Pad2)*%
X144200000Y-122575000D03*
%TD*%
D13*
%TO.P,C2,1*%
%TO.N,+3.3V*%
X137580000Y-97725000D03*
%TO.P,C2,2*%
%TO.N,GND*%
X137580000Y-99275000D03*
%TD*%
D14*
%TO.P,U1,1,VIN*%
%TO.N,Net-(C1-Pad1)*%
X131362500Y-97550000D03*
%TO.P,U1,2,GND*%
%TO.N,GND*%
X131362500Y-98500000D03*
%TO.P,U1,3,ON/~{OFF}*%
%TO.N,Net-(C1-Pad1)*%
X131362500Y-99450000D03*
%TO.P,U1,4,BP*%
%TO.N,unconnected-(U1-Pad4)*%
X133637500Y-99450000D03*
%TO.P,U1,5,VOUT*%
%TO.N,+3.3V*%
X133637500Y-97550000D03*
%TD*%
D12*
%TO.P,R6,1*%
%TO.N,/LED1*%
X146600000Y-124225000D03*
%TO.P,R6,2*%
%TO.N,Net-(D1-Pad2)*%
X146600000Y-122575000D03*
%TD*%
D10*
%TO.P,SW4,1,1*%
%TO.N,Net-(SW4-Pad1)*%
X165432500Y-102825000D03*
%TO.P,SW4,2,2*%
%TO.N,GND*%
X165432500Y-98275000D03*
D11*
%TO.P,SW4,3*%
%TO.N,N/C*%
X167182500Y-103750000D03*
%TO.P,SW4,4*%
X167182500Y-97350000D03*
%TD*%
D12*
%TO.P,R5,1*%
%TO.N,+3.3V*%
X153750000Y-118825000D03*
%TO.P,R5,2*%
%TO.N,/SDA*%
X153750000Y-117175000D03*
%TD*%
%TO.P,R1,1*%
%TO.N,Net-(C1-Pad1)*%
X159000000Y-118825000D03*
%TO.P,R1,2*%
%TO.N,Net-(R1-Pad2)*%
X159000000Y-117175000D03*
%TD*%
D15*
%TO.P,U3,1,GND*%
%TO.N,GND*%
X144000000Y-93500000D03*
%TO.P,U3,2,MISO*%
%TO.N,/MISO*%
X144000000Y-95500000D03*
%TO.P,U3,3,MOSI*%
%TO.N,/MOSI*%
X144000000Y-97500000D03*
%TO.P,U3,4,SCK*%
%TO.N,/SCK*%
X144000000Y-99500000D03*
%TO.P,U3,5,NSS*%
%TO.N,/RF_CS*%
X144000000Y-101500000D03*
%TO.P,U3,6,RESET*%
%TO.N,Net-(U2-Pad23)*%
X144000000Y-103500000D03*
%TO.P,U3,7,DIO5*%
%TO.N,unconnected-(U3-Pad7)*%
X144000000Y-105500000D03*
%TO.P,U3,8,GND*%
%TO.N,GND*%
X144000000Y-107500000D03*
%TO.P,U3,9,ANT*%
%TO.N,Net-(J3-Pad1)*%
X160000000Y-107500000D03*
%TO.P,U3,10,GND*%
%TO.N,GND*%
X160000000Y-105500000D03*
%TO.P,U3,11,DIO3*%
%TO.N,unconnected-(U3-Pad11)*%
X160000000Y-103500000D03*
%TO.P,U3,12,DIO4*%
%TO.N,unconnected-(U3-Pad12)*%
X160000000Y-101500000D03*
%TO.P,U3,13,3.3V*%
%TO.N,+3.3V*%
X160000000Y-99500000D03*
%TO.P,U3,14,DIO0*%
%TO.N,Net-(U2-Pad9)*%
X160000000Y-97500000D03*
%TO.P,U3,15,DIO1*%
%TO.N,unconnected-(U3-Pad15)*%
X160000000Y-95500000D03*
%TO.P,U3,16,DIO2*%
%TO.N,unconnected-(U3-Pad16)*%
X160000000Y-93500000D03*
%TD*%
D12*
%TO.P,R3,1*%
%TO.N,+3.3V*%
X148000000Y-118737500D03*
%TO.P,R3,2*%
%TO.N,/nRESET*%
X148000000Y-117087500D03*
%TD*%
D10*
%TO.P,SW3,1,1*%
%TO.N,Net-(SW3-Pad1)*%
X122567500Y-100675000D03*
%TO.P,SW3,2,2*%
%TO.N,GND*%
X122567500Y-105225000D03*
D11*
%TO.P,SW3,3*%
%TO.N,N/C*%
X120817500Y-99750000D03*
%TO.P,SW3,4*%
X120817500Y-106150000D03*
%TD*%
D13*
%TO.P,C1,1*%
%TO.N,Net-(C1-Pad1)*%
X127420000Y-97725000D03*
%TO.P,C1,2*%
%TO.N,GND*%
X127420000Y-99275000D03*
%TD*%
D16*
%TO.P,C5,1*%
%TO.N,+3.3V*%
X148000000Y-114887500D03*
%TO.P,C5,2*%
%TO.N,GND*%
X148000000Y-113337500D03*
%TD*%
D12*
%TO.P,R4,1*%
%TO.N,+3.3V*%
X151000000Y-118825000D03*
%TO.P,R4,2*%
%TO.N,/SCL*%
X151000000Y-117175000D03*
%TD*%
D13*
%TO.P,C4,1*%
%TO.N,+3.3V*%
X163000000Y-98725000D03*
%TO.P,C4,2*%
%TO.N,GND*%
X163000000Y-100275000D03*
%TD*%
D16*
%TO.P,C3,1*%
%TO.N,+3.3V*%
X157250000Y-115275000D03*
%TO.P,C3,2*%
%TO.N,GND*%
X157250000Y-113725000D03*
%TD*%
D12*
%TO.P,R2,1*%
%TO.N,Net-(R1-Pad2)*%
X156500000Y-118825000D03*
%TO.P,R2,2*%
%TO.N,GND*%
X156500000Y-117175000D03*
%TD*%
D17*
%TO.P,J3,1,Pin_1*%
%TO.N,Net-(J3-Pad1)*%
X163000000Y-107000000D03*
D18*
%TO.P,J3,2,Pin_2*%
%TO.N,GND*%
X163000000Y-105000000D03*
%TD*%
D17*
%TO.P,J1,1,Pin_1*%
%TO.N,Net-(C1-Pad1)*%
X125500000Y-104000000D03*
D18*
%TO.P,J1,2,Pin_2*%
%TO.N,GND*%
X125500000Y-102000000D03*
%TD*%
D19*
%TO.N,Net-(C1-Pad1)*%
X141000000Y-125000000D03*
X140804800Y-105780600D03*
%TO.N,GND*%
X156750000Y-110750000D03*
X122567500Y-118682500D03*
X131750000Y-100750000D03*
X145400000Y-123800000D03*
X163250000Y-101250000D03*
X142000000Y-93250000D03*
X155250000Y-122250000D03*
X155250000Y-116500000D03*
X142000000Y-108000000D03*
X156000000Y-114000000D03*
X126000000Y-99250000D03*
X146500000Y-113000000D03*
X164500000Y-118500000D03*
X165000000Y-99750000D03*
X155000000Y-110750000D03*
X132500000Y-98500000D03*
X136500000Y-99500000D03*
%TO.N,+3.3V*%
X149250000Y-113500000D03*
X156000000Y-115500000D03*
X156000000Y-110444000D03*
X144000000Y-117500000D03*
X161556000Y-98725000D03*
X149500000Y-118750000D03*
X136250000Y-98500000D03*
X145000000Y-112750000D03*
X157750000Y-110500000D03*
X156500000Y-122250000D03*
X158000000Y-122250000D03*
X154925000Y-118825000D03*
X164500000Y-120500000D03*
%TO.N,/eBUSY*%
X163500000Y-115250000D03*
X161250000Y-115250000D03*
%TO.N,/eRST*%
X164500000Y-108500000D03*
X161750000Y-112750000D03*
%TO.N,/eDC*%
X161750000Y-116500000D03*
X164250000Y-110750000D03*
%TO.N,/eCS*%
X164000000Y-114500000D03*
X161250000Y-114500000D03*
%TO.N,/SCK*%
X135750000Y-100500000D03*
X163750000Y-117000000D03*
X158750000Y-123250000D03*
X161000000Y-121000000D03*
X142000000Y-110250000D03*
X142000000Y-123250000D03*
X135500000Y-105475800D03*
%TO.N,/MOSI*%
X163500000Y-118250000D03*
X142750000Y-98500000D03*
X138750000Y-97500000D03*
X143500000Y-109750000D03*
X162000000Y-118500000D03*
X162033758Y-110682483D03*
%TO.N,Net-(R1-Pad2)*%
X157500000Y-119250000D03*
%TO.N,/MISO*%
X142052000Y-109500000D03*
X162500000Y-110250000D03*
X141500000Y-94000000D03*
%TO.N,Net-(D1-Pad2)*%
X147800000Y-122400000D03*
%TO.N,Net-(D2-Pad2)*%
X143000000Y-122400000D03*
%TO.N,/nRESET*%
X142250000Y-117000000D03*
X150250000Y-116250000D03*
X141500000Y-106250000D03*
X132500000Y-106000000D03*
%TO.N,/TXD*%
X140500000Y-115250000D03*
X150500000Y-114500000D03*
%TO.N,/RXD*%
X141692130Y-105057870D03*
X130250000Y-105000000D03*
X142250000Y-115250000D03*
X149418084Y-114918084D03*
%TO.N,Net-(U2-Pad23)*%
X152250000Y-121250000D03*
X140500000Y-122250000D03*
X140750000Y-103500000D03*
%TO.N,/SCL*%
X150250000Y-117500000D03*
X145250000Y-117500000D03*
%TO.N,/SDA*%
X153000000Y-116750000D03*
X145975000Y-119725000D03*
%TO.N,Net-(SW2-Pad1)*%
X129000000Y-104500000D03*
X151000000Y-120750000D03*
X123250000Y-110500000D03*
X142750000Y-120750000D03*
X142750000Y-104500000D03*
%TO.N,Net-(SW3-Pad1)*%
X151500000Y-112000000D03*
X141000000Y-95500000D03*
X142250000Y-111250000D03*
%TO.N,Net-(SW4-Pad1)*%
X161500000Y-108250000D03*
X153500000Y-114000000D03*
%TO.N,Net-(U2-Pad9)*%
X162000000Y-97500000D03*
%TO.N,/RF_CS*%
X143000000Y-100500000D03*
X143500000Y-110500000D03*
X161750000Y-111250000D03*
%TO.N,/LED1*%
X158250000Y-119500000D03*
%TO.N,/LED2*%
X160500000Y-123500000D03*
X158750000Y-116000000D03*
X143000000Y-124400000D03*
%TD*%
D20*
%TO.N,Net-(C1-Pad1)*%
X133445200Y-105945200D02*
X133000000Y-105500000D01*
D21*
X131312500Y-97500000D02*
X129750000Y-97500000D01*
D22*
X127750000Y-104000000D02*
X129250000Y-102500000D01*
D20*
X140640200Y-105945200D02*
X133445200Y-105945200D01*
X140804800Y-105780600D02*
X140640200Y-105945200D01*
D22*
X129250000Y-100000000D02*
X129800000Y-99450000D01*
D20*
X133000000Y-105500000D02*
X129250000Y-105500000D01*
D21*
X129750000Y-97500000D02*
X129750000Y-99400000D01*
X131362500Y-97550000D02*
X131312500Y-97500000D01*
D20*
X159750000Y-125000000D02*
X160000000Y-124750000D01*
D23*
X159000000Y-118825000D02*
X160000000Y-119825000D01*
D20*
X131362500Y-99450000D02*
X131300000Y-99450000D01*
D23*
X141000000Y-125000000D02*
X159750000Y-125000000D01*
D21*
X129750000Y-99400000D02*
X129800000Y-99450000D01*
X129250000Y-97250000D02*
X131062500Y-97250000D01*
D22*
X129800000Y-99450000D02*
X131362500Y-99450000D01*
D21*
X131062500Y-97250000D02*
X131362500Y-97550000D01*
D22*
X125500000Y-104000000D02*
X127750000Y-104000000D01*
D23*
X160000000Y-119825000D02*
X160000000Y-124750000D01*
D22*
X129250000Y-102500000D02*
X129250000Y-100000000D01*
D21*
X128775000Y-97725000D02*
X129250000Y-97250000D01*
X127420000Y-97725000D02*
X128775000Y-97725000D01*
D20*
X129250000Y-105500000D02*
X127750000Y-104000000D01*
D21*
%TO.N,GND*%
X122567500Y-105225000D02*
X122567500Y-103932500D01*
X142500000Y-107500000D02*
X143559500Y-107500000D01*
D24*
X163000000Y-100275000D02*
X163000000Y-101000000D01*
D21*
X131362500Y-98500000D02*
X132500000Y-98500000D01*
D24*
X165432500Y-98275000D02*
X165432500Y-99317500D01*
D21*
X156500000Y-117175000D02*
X155925000Y-117175000D01*
X163000000Y-105000000D02*
X160940500Y-105000000D01*
X126025000Y-99275000D02*
X126000000Y-99250000D01*
X142000000Y-93250000D02*
X143559500Y-93250000D01*
X137580000Y-99275000D02*
X136725000Y-99275000D01*
D24*
X165432500Y-99317500D02*
X165000000Y-99750000D01*
D21*
X136725000Y-99275000D02*
X136500000Y-99500000D01*
X157250000Y-113725000D02*
X156275000Y-113725000D01*
X122567500Y-103932500D02*
X124500000Y-102000000D01*
X122500000Y-118750000D02*
X122567500Y-118682500D01*
X147662500Y-113000000D02*
X148000000Y-113337500D01*
X143559500Y-93250000D02*
X143559500Y-93500000D01*
D24*
X163000000Y-101000000D02*
X163250000Y-101250000D01*
D21*
X155925000Y-117175000D02*
X155250000Y-116500000D01*
X156275000Y-113725000D02*
X156000000Y-114000000D01*
X124500000Y-102000000D02*
X125500000Y-102000000D01*
X122567500Y-116725000D02*
X122567500Y-118682500D01*
X127420000Y-99275000D02*
X126025000Y-99275000D01*
X142000000Y-108000000D02*
X142500000Y-107500000D01*
X160940500Y-105000000D02*
X160440500Y-105500000D01*
X146500000Y-113000000D02*
X147662500Y-113000000D01*
%TO.N,+3.3V*%
X137580000Y-97725000D02*
X137025000Y-97725000D01*
X161725000Y-98725000D02*
X161556000Y-98725000D01*
X161556000Y-98725000D02*
X160775000Y-98725000D01*
X137580000Y-97725000D02*
X133812500Y-97725000D01*
X148000000Y-114750000D02*
X149250000Y-113500000D01*
X161750000Y-98750000D02*
X161725000Y-98725000D01*
X157250000Y-115275000D02*
X156225000Y-115275000D01*
X151000000Y-118825000D02*
X149575000Y-118825000D01*
X148000000Y-114887500D02*
X148000000Y-114750000D01*
X155000000Y-118750000D02*
X154925000Y-118825000D01*
X153750000Y-118825000D02*
X154925000Y-118825000D01*
X161775000Y-98725000D02*
X161750000Y-98750000D01*
X163000000Y-98725000D02*
X161775000Y-98725000D01*
X148000000Y-118737500D02*
X149487500Y-118737500D01*
X137025000Y-97725000D02*
X136250000Y-98500000D01*
X160775000Y-98725000D02*
X160440500Y-99059500D01*
X149487500Y-118737500D02*
X149500000Y-118750000D01*
X149575000Y-118825000D02*
X149500000Y-118750000D01*
X160440500Y-99059500D02*
X160440500Y-99500000D01*
X156225000Y-115275000D02*
X156000000Y-115500000D01*
X133812500Y-97725000D02*
X133637500Y-97550000D01*
D23*
%TO.N,/eBUSY*%
X163500000Y-115250000D02*
X161250000Y-115250000D01*
%TO.N,/eRST*%
X161750000Y-112750000D02*
X161750000Y-112000000D01*
X161750000Y-112000000D02*
X164500000Y-109250000D01*
X164500000Y-109250000D02*
X164500000Y-108500000D01*
%TO.N,/eDC*%
X164250000Y-112750000D02*
X164750000Y-113250000D01*
X164250000Y-110750000D02*
X164250000Y-112750000D01*
X164750000Y-113250000D02*
X164750000Y-115250000D01*
X163500000Y-116500000D02*
X161750000Y-116500000D01*
X164750000Y-115250000D02*
X163500000Y-116500000D01*
%TO.N,/eCS*%
X161250000Y-114500000D02*
X164000000Y-114500000D01*
%TO.N,/SCK*%
X141336100Y-105336100D02*
X135663900Y-105336100D01*
X163750000Y-117000000D02*
X163944500Y-117194500D01*
X158750000Y-123250000D02*
X142000000Y-123250000D01*
X141250000Y-107500000D02*
X141944500Y-106805500D01*
X135500000Y-105500000D02*
X135500000Y-105475800D01*
X142500000Y-99500000D02*
X143686500Y-99500000D01*
X163944500Y-117194500D02*
X163944500Y-118434118D01*
X135750000Y-100500000D02*
X141500000Y-100500000D01*
X161378618Y-121000000D02*
X161000000Y-121000000D01*
X135663900Y-105336100D02*
X135500000Y-105500000D01*
X141500000Y-100500000D02*
X142500000Y-99500000D01*
X163944500Y-118434118D02*
X161378618Y-121000000D01*
X141250000Y-109500000D02*
X141250000Y-107500000D01*
X141944500Y-106805500D02*
X141944500Y-105944500D01*
X141944500Y-105944500D02*
X141336100Y-105336100D01*
X142000000Y-110250000D02*
X141250000Y-109500000D01*
%TO.N,/MOSI*%
X143750000Y-109500000D02*
X143500000Y-109750000D01*
X142750000Y-98500000D02*
X142750000Y-97500000D01*
X142750000Y-97500000D02*
X143686500Y-97500000D01*
X163500000Y-118250000D02*
X162250000Y-118250000D01*
X162033758Y-110682483D02*
X160851275Y-109500000D01*
X160851275Y-109500000D02*
X143750000Y-109500000D01*
X162250000Y-118250000D02*
X162000000Y-118500000D01*
X142750000Y-97500000D02*
X138750000Y-97500000D01*
D21*
%TO.N,Net-(J3-Pad1)*%
X160940500Y-107000000D02*
X160440500Y-107500000D01*
X163000000Y-107000000D02*
X160940500Y-107000000D01*
D23*
%TO.N,Net-(R1-Pad2)*%
X158000000Y-118750000D02*
X158000000Y-117750000D01*
X157500000Y-119250000D02*
X158000000Y-118750000D01*
X156925000Y-119250000D02*
X156500000Y-118825000D01*
X158000000Y-117750000D02*
X158575000Y-117175000D01*
X158575000Y-117175000D02*
X159000000Y-117175000D01*
X157500000Y-119250000D02*
X156925000Y-119250000D01*
%TO.N,/MISO*%
X161250000Y-109000000D02*
X142552000Y-109000000D01*
X162500000Y-110250000D02*
X161250000Y-109000000D01*
X141500000Y-94000000D02*
X143000000Y-95500000D01*
X143000000Y-95500000D02*
X143686500Y-95500000D01*
X142552000Y-109000000D02*
X142052000Y-109500000D01*
%TO.N,Net-(D1-Pad2)*%
X147800000Y-122400000D02*
X146775000Y-122400000D01*
X146775000Y-122400000D02*
X146600000Y-122575000D01*
%TO.N,Net-(D2-Pad2)*%
X143175000Y-122575000D02*
X143000000Y-122400000D01*
X144200000Y-122575000D02*
X143175000Y-122575000D01*
D20*
%TO.N,/nRESET*%
X141500000Y-106250000D02*
X132750000Y-106250000D01*
X132750000Y-106250000D02*
X132500000Y-106000000D01*
X142250000Y-117000000D02*
X147912500Y-117000000D01*
X147912500Y-117000000D02*
X148000000Y-117087500D01*
X148000000Y-117087500D02*
X149412500Y-117087500D01*
X149412500Y-117087500D02*
X150250000Y-116250000D01*
%TO.N,/TXD*%
X141250000Y-116000000D02*
X149000000Y-116000000D01*
X149000000Y-116000000D02*
X150500000Y-114500000D01*
X140500000Y-115250000D02*
X141250000Y-116000000D01*
D23*
%TO.N,/RXD*%
X147000000Y-115500000D02*
X147220600Y-115720600D01*
X141634260Y-105000000D02*
X141692130Y-105057870D01*
X148779400Y-115720600D02*
X149500000Y-115000000D01*
X142250000Y-115250000D02*
X142470600Y-115470600D01*
X147000000Y-115470600D02*
X147000000Y-115500000D01*
X142470600Y-115470600D02*
X147000000Y-115470600D01*
X147220600Y-115720600D02*
X148779400Y-115720600D01*
X130250000Y-105000000D02*
X141634260Y-105000000D01*
X149500000Y-115000000D02*
X149418084Y-114918084D01*
%TO.N,Net-(U2-Pad23)*%
X140500000Y-122250000D02*
X140750000Y-122250000D01*
D20*
X140750000Y-103500000D02*
X143661100Y-103500000D01*
D23*
X141750000Y-121250000D02*
X152250000Y-121250000D01*
X140750000Y-122250000D02*
X141750000Y-121250000D01*
D20*
%TO.N,/SCL*%
X146250000Y-117500000D02*
X145250000Y-117500000D01*
X150250000Y-117500000D02*
X148750000Y-117500000D01*
X148250000Y-118000000D02*
X146750000Y-118000000D01*
X151000000Y-117175000D02*
X150575000Y-117175000D01*
X148750000Y-117500000D02*
X148250000Y-118000000D01*
X150575000Y-117175000D02*
X150250000Y-117500000D01*
X146750000Y-118000000D02*
X146250000Y-117500000D01*
D23*
%TO.N,/SDA*%
X152500000Y-119500000D02*
X152500000Y-117250000D01*
D20*
X153325000Y-116750000D02*
X153750000Y-117175000D01*
D23*
X145975000Y-119725000D02*
X146000000Y-119750000D01*
X146000000Y-119750000D02*
X152250000Y-119750000D01*
X152500000Y-117250000D02*
X153000000Y-116750000D01*
D20*
X153000000Y-116750000D02*
X153325000Y-116750000D01*
D23*
X152250000Y-119750000D02*
X152500000Y-119500000D01*
%TO.N,Net-(SW2-Pad1)*%
X122567500Y-112175000D02*
X122567500Y-111182500D01*
X122567500Y-111182500D02*
X123250000Y-110500000D01*
X142750000Y-120750000D02*
X151000000Y-120750000D01*
X142750000Y-104500000D02*
X129000000Y-104500000D01*
%TO.N,Net-(SW3-Pad1)*%
X150750000Y-111250000D02*
X151500000Y-112000000D01*
X122567500Y-98682500D02*
X125750000Y-95500000D01*
X122567500Y-100675000D02*
X122567500Y-98682500D01*
X125750000Y-95500000D02*
X141000000Y-95500000D01*
X142250000Y-111250000D02*
X150750000Y-111250000D01*
%TO.N,Net-(SW4-Pad1)*%
X164250000Y-107481000D02*
X163481000Y-108250000D01*
X164250000Y-106750000D02*
X164250000Y-107481000D01*
X165432500Y-105567500D02*
X164250000Y-106750000D01*
X165432500Y-102825000D02*
X165432500Y-105567500D01*
X163481000Y-108250000D02*
X161500000Y-108250000D01*
%TO.N,Net-(U2-Pad9)*%
X162000000Y-97500000D02*
X160313500Y-97500000D01*
%TO.N,/RF_CS*%
X160500000Y-110000000D02*
X144000000Y-110000000D01*
X144000000Y-110000000D02*
X143500000Y-110500000D01*
X143000000Y-100500000D02*
X143686500Y-101186500D01*
X161750000Y-111250000D02*
X160500000Y-110000000D01*
X143686500Y-101186500D02*
X143686500Y-101500000D01*
%TO.N,/LED1*%
X158378618Y-124250000D02*
X146625000Y-124250000D01*
X158250000Y-119500000D02*
X159000000Y-119500000D01*
X159500000Y-123128618D02*
X158378618Y-124250000D01*
X159000000Y-119500000D02*
X159500000Y-120000000D01*
X159500000Y-120000000D02*
X159500000Y-123128618D01*
X146625000Y-124250000D02*
X146600000Y-124225000D01*
%TO.N,/LED2*%
X144025000Y-124400000D02*
X144200000Y-124225000D01*
X160000000Y-116000000D02*
X160500000Y-116500000D01*
X158750000Y-116000000D02*
X160000000Y-116000000D01*
X143000000Y-124400000D02*
X144025000Y-124400000D01*
X160500000Y-116500000D02*
X160500000Y-123500000D01*
%TD*%
M02*
