M48
; DRILL file {KiCad 6.0.9-8da3e8f707~117~ubuntu22.04.1} date Fri 02 Dec 2022 04:27:50 PM EST
; FORMAT={-:-/ absolute / inch / decimal}
; #@! TF.CreationDate,2022-12-02T16:27:50-05:00
; #@! TF.GenerationSoftware,Kicad,Pcbnew,6.0.9-8da3e8f707~117~ubuntu22.04.1
; #@! TF.FileFunction,Plated,1,4,PTH
FMAT,2
INCH
; #@! TA.AperFunction,Plated,PTH,ViaDrill
T1C0.0080
; #@! TA.AperFunction,Plated,PTH,ComponentDrill
T2C0.0315
%
G90
G05
T1
X4.8255Y-4.6725
X4.8524Y-4.3504
X4.9606Y-3.9075
X5.0787Y-4.1142
X5.128Y-4.1339
X5.187Y-3.9665
X5.2165Y-3.878
X5.2165Y-4.1732
X5.3346Y-4.1526
X5.3445Y-3.9567
X5.3642Y-3.878
X5.374Y-3.9173
X5.4626Y-3.8386
X5.5315Y-4.5374
X5.5315Y-4.813
X5.5413Y-4.0748
X5.5435Y-4.1646
X5.5512Y-3.7598
X5.5512Y-4.9213
X5.5709Y-3.7008
X5.5709Y-4.1831
X5.5784Y-4.1361
X5.5906Y-3.6713
X5.5906Y-4.252
X5.5906Y-4.3406
X5.5906Y-4.8524
X5.5926Y-4.311
X5.6004Y-4.3799
X5.6004Y-4.5374
X5.6004Y-4.6063
X5.6201Y-3.878
X5.6201Y-4.1142
X5.6201Y-4.7539
X5.6299Y-3.9567
X5.6299Y-4.8189
X5.6299Y-4.8976
X5.6496Y-4.3209
X5.6496Y-4.3504
X5.6693Y-4.626
X5.7087Y-4.439
X5.7185Y-4.626
X5.7244Y-4.874
X5.747Y-4.7136
X5.7677Y-4.4488
X5.8189Y-4.8189
X5.876Y-4.4685
X5.8826Y-4.5243
X5.8858Y-4.6752
X5.9154Y-4.5768
X5.9154Y-4.626
X5.9252Y-4.5079
X5.9449Y-4.7539
X5.9646Y-4.4094
X5.9941Y-4.7736
X6.0236Y-4.5965
X6.0433Y-4.4882
X6.0994Y-4.6781
X6.1024Y-4.3602
X6.1122Y-4.5866
X6.1122Y-4.813
X6.1417Y-4.3482
X6.1417Y-4.4882
X6.1417Y-4.5472
X6.1614Y-4.813
X6.1713Y-4.3602
X6.2008Y-4.6949
X6.2106Y-4.3504
X6.2205Y-4.813
X6.2303Y-4.7047
X6.25Y-4.5669
X6.25Y-4.8524
X6.3189Y-4.8622
X6.3386Y-4.7638
X6.3484Y-4.5079
X6.3484Y-4.5374
X6.3583Y-4.2618
X6.3605Y-3.8868
X6.3681Y-4.3799
X6.3681Y-4.439
X6.3681Y-4.5866
X6.378Y-3.8386
X6.378Y-4.6654
X6.3793Y-4.3576
X6.3976Y-4.3406
X6.4272Y-3.9862
X6.437Y-4.5374
X6.437Y-4.6555
X6.4469Y-4.6063
X6.4567Y-4.5079
X6.4665Y-4.3602
X6.4764Y-4.2717
X6.4764Y-4.6654
X6.4764Y-4.7441
X6.4961Y-3.9272
T2
X4.9409Y-4.0157
X4.9409Y-4.0945
X6.4173Y-4.1339
X6.4173Y-4.2126
T0
M30
