%TF.GenerationSoftware,KiCad,Pcbnew,6.0.9-8da3e8f707~117~ubuntu22.04.1*%
%TF.CreationDate,2022-12-02T16:27:47-05:00*%
%TF.ProjectId,watch,77617463-682e-46b6-9963-61645f706362,rev?*%
%TF.SameCoordinates,Original*%
%TF.FileFunction,Soldermask,Bot*%
%TF.FilePolarity,Negative*%
%FSLAX46Y46*%
G04 Gerber Fmt 4.6, Leading zero omitted, Abs format (unit mm)*
G04 Created by KiCad (PCBNEW 6.0.9-8da3e8f707~117~ubuntu22.04.1) date 2022-12-02 16:27:47*
%MOMM*%
%LPD*%
G01*
G04 APERTURE LIST*
G04 Aperture macros list*
%AMRoundRect*
0 Rectangle with rounded corners*
0 $1 Rounding radius*
0 $2 $3 $4 $5 $6 $7 $8 $9 X,Y pos of 4 corners*
0 Add a 4 corners polygon primitive as box body*
4,1,4,$2,$3,$4,$5,$6,$7,$8,$9,$2,$3,0*
0 Add four circle primitives for the rounded corners*
1,1,$1+$1,$2,$3*
1,1,$1+$1,$4,$5*
1,1,$1+$1,$6,$7*
1,1,$1+$1,$8,$9*
0 Add four rect primitives between the rounded corners*
20,1,$1+$1,$2,$3,$4,$5,0*
20,1,$1+$1,$4,$5,$6,$7,0*
20,1,$1+$1,$6,$7,$8,$9,0*
20,1,$1+$1,$8,$9,$2,$3,0*%
G04 Aperture macros list end*
%ADD10C,2.700000*%
%ADD11RoundRect,0.381000X-0.762000X-0.381000X0.762000X-0.381000X0.762000X0.381000X-0.762000X0.381000X0*%
%ADD12R,0.400000X1.100000*%
%ADD13R,0.550000X1.600000*%
%ADD14R,1.600000X0.550000*%
%ADD15R,1.350000X1.350000*%
%ADD16O,1.350000X1.350000*%
%ADD17R,1.000000X2.750000*%
%ADD18RoundRect,0.237500X0.237500X-0.287500X0.237500X0.287500X-0.237500X0.287500X-0.237500X-0.287500X0*%
G04 APERTURE END LIST*
D10*
%TO.C,J2*%
X165405000Y-95000000D03*
X122405000Y-95000000D03*
X122405000Y-122500000D03*
X165405000Y-123000000D03*
D11*
X166405000Y-105500000D03*
X166405000Y-107500000D03*
X166405000Y-109500000D03*
X166405000Y-111500000D03*
X166405000Y-113500000D03*
X166405000Y-115500000D03*
X166405000Y-117500000D03*
X166405000Y-119500000D03*
%TD*%
D12*
%TO.C,U4*%
X144025000Y-114350000D03*
X144675000Y-114350000D03*
X145325000Y-114350000D03*
X145975000Y-114350000D03*
X145975000Y-118650000D03*
X145325000Y-118650000D03*
X144675000Y-118650000D03*
X144025000Y-118650000D03*
%TD*%
D13*
%TO.C,U2*%
X153200000Y-112250000D03*
X154000000Y-112250000D03*
X154800000Y-112250000D03*
X155600000Y-112250000D03*
X156400000Y-112250000D03*
X157200000Y-112250000D03*
X158000000Y-112250000D03*
X158800000Y-112250000D03*
D14*
X160250000Y-113700000D03*
X160250000Y-114500000D03*
X160250000Y-115300000D03*
X160250000Y-116100000D03*
X160250000Y-116900000D03*
X160250000Y-117700000D03*
X160250000Y-118500000D03*
X160250000Y-119300000D03*
D13*
X158800000Y-120750000D03*
X158000000Y-120750000D03*
X157200000Y-120750000D03*
X156400000Y-120750000D03*
X155600000Y-120750000D03*
X154800000Y-120750000D03*
X154000000Y-120750000D03*
X153200000Y-120750000D03*
D14*
X151750000Y-119300000D03*
X151750000Y-118500000D03*
X151750000Y-117700000D03*
X151750000Y-116900000D03*
X151750000Y-116100000D03*
X151750000Y-115300000D03*
X151750000Y-114500000D03*
X151750000Y-113700000D03*
%TD*%
D15*
%TO.C,J3*%
X163000000Y-107000000D03*
D16*
X163000000Y-105000000D03*
%TD*%
D17*
%TO.C,J4*%
X137500000Y-96375000D03*
X137500000Y-102625000D03*
X135500000Y-96375000D03*
X135500000Y-102625000D03*
X133500000Y-96375000D03*
X133500000Y-102625000D03*
X131500000Y-96375000D03*
X131500000Y-102625000D03*
%TD*%
D18*
%TO.C,D1*%
X146500000Y-124250000D03*
X146500000Y-122500000D03*
%TD*%
D15*
%TO.C,J1*%
X125500000Y-104000000D03*
D16*
X125500000Y-102000000D03*
%TD*%
D18*
%TO.C,D2*%
X144250000Y-124250000D03*
X144250000Y-122500000D03*
%TD*%
M02*
